%TF.GenerationSoftware,KiCad,Pcbnew,8.0.6*%
%TF.CreationDate,2025-02-14T15:15:11-07:00*%
%TF.ProjectId,KiCad_Curve_Tracer,4b694361-645f-4437-9572-76655f547261,rev?*%
%TF.SameCoordinates,Original*%
%TF.FileFunction,Legend,Bot*%
%TF.FilePolarity,Positive*%
%FSLAX46Y46*%
G04 Gerber Fmt 4.6, Leading zero omitted, Abs format (unit mm)*
G04 Created by KiCad (PCBNEW 8.0.6) date 2025-02-14 15:15:11*
%MOMM*%
%LPD*%
G01*
G04 APERTURE LIST*
%ADD10C,0.000000*%
G04 APERTURE END LIST*
D10*
%TO.C,G\u002A\u002A\u002A*%
G36*
X56534344Y-35250648D02*
G01*
X56561509Y-35270576D01*
X56567800Y-35276461D01*
X56582834Y-35293749D01*
X56589569Y-35311698D01*
X56591391Y-35337942D01*
X56590976Y-35351323D01*
X56581522Y-35386388D01*
X56559301Y-35411978D01*
X56523779Y-35428811D01*
X56512687Y-35431288D01*
X56479826Y-35428919D01*
X56451550Y-35412972D01*
X56431710Y-35385268D01*
X56423111Y-35356550D01*
X56424332Y-35318966D01*
X56440299Y-35285912D01*
X56470389Y-35259422D01*
X56482342Y-35252777D01*
X56509355Y-35244887D01*
X56534344Y-35250648D01*
G37*
G36*
X56040430Y-33623886D02*
G01*
X56082011Y-33643700D01*
X56118239Y-33674350D01*
X56129162Y-33688510D01*
X56148764Y-33730450D01*
X56159957Y-33783063D01*
X56162580Y-33844190D01*
X56156469Y-33911670D01*
X56141462Y-33983344D01*
X56133761Y-34011402D01*
X56119883Y-34059796D01*
X56103306Y-34115800D01*
X56084829Y-34176860D01*
X56065255Y-34240425D01*
X56045381Y-34303943D01*
X56026010Y-34364862D01*
X56007941Y-34420631D01*
X55991974Y-34468698D01*
X55978911Y-34506510D01*
X55969550Y-34531516D01*
X55969333Y-34534141D01*
X55975644Y-34544721D01*
X55992627Y-34561397D01*
X56021211Y-34585022D01*
X56062327Y-34616446D01*
X56089388Y-34636420D01*
X56138077Y-34670524D01*
X56182060Y-34697954D01*
X56226180Y-34721393D01*
X56275282Y-34743524D01*
X56334208Y-34767029D01*
X56355638Y-34775416D01*
X56421875Y-34804435D01*
X56478899Y-34835440D01*
X56531894Y-34871491D01*
X56586041Y-34915644D01*
X56647011Y-34973037D01*
X56717600Y-35054062D01*
X56772916Y-35137439D01*
X56812735Y-35222816D01*
X56836830Y-35309838D01*
X56839567Y-35329575D01*
X56841332Y-35380925D01*
X56837694Y-35438985D01*
X56829128Y-35498204D01*
X56816106Y-35553032D01*
X56809912Y-35570800D01*
X56784709Y-35620692D01*
X56747792Y-35674798D01*
X56701116Y-35731167D01*
X56646635Y-35787847D01*
X56586307Y-35842885D01*
X56522084Y-35894331D01*
X56455923Y-35940231D01*
X56389778Y-35978636D01*
X56358100Y-35994432D01*
X56293597Y-36022602D01*
X56224449Y-36047361D01*
X56148386Y-36069330D01*
X56063137Y-36089131D01*
X55966432Y-36107384D01*
X55856000Y-36124712D01*
X55809607Y-36131258D01*
X55748516Y-36139077D01*
X55695503Y-36144545D01*
X55645941Y-36148038D01*
X55595203Y-36149934D01*
X55538662Y-36150610D01*
X55405959Y-36151031D01*
X55397913Y-36151056D01*
X55397324Y-36151058D01*
X55377051Y-36223565D01*
X55375135Y-36230447D01*
X55368808Y-36253666D01*
X55363017Y-36274918D01*
X55357913Y-36294166D01*
X55350444Y-36322333D01*
X55343410Y-36349691D01*
X55339852Y-36363529D01*
X55339532Y-36364744D01*
X55337334Y-36373088D01*
X55331310Y-36395957D01*
X55325913Y-36412990D01*
X55319990Y-36431683D01*
X55317913Y-36436238D01*
X55316573Y-36439177D01*
X55308756Y-36456322D01*
X55302713Y-36464217D01*
X55296233Y-36472683D01*
X55281046Y-36483572D01*
X55271100Y-36487682D01*
X55260265Y-36487683D01*
X55253657Y-36487684D01*
X55235428Y-36476947D01*
X55214564Y-36454151D01*
X55189216Y-36417977D01*
X55162212Y-36371622D01*
X55149913Y-36341227D01*
X55143196Y-36324627D01*
X55136934Y-36309150D01*
X55156182Y-36309150D01*
X55157807Y-36316064D01*
X55166077Y-36335722D01*
X55179399Y-36362251D01*
X55195573Y-36391557D01*
X55212395Y-36419544D01*
X55227666Y-36442118D01*
X55231715Y-36447215D01*
X55247360Y-36462128D01*
X55260265Y-36468126D01*
X55262102Y-36468021D01*
X55278931Y-36460157D01*
X55293658Y-36444456D01*
X55299883Y-36427484D01*
X55299874Y-36427147D01*
X55296734Y-36425395D01*
X55294375Y-36428958D01*
X55289682Y-36436045D01*
X55281279Y-36449577D01*
X55277662Y-36452172D01*
X55273334Y-36455277D01*
X55267666Y-36459343D01*
X55265334Y-36458824D01*
X55257334Y-36457044D01*
X55252250Y-36455913D01*
X55249334Y-36453124D01*
X55234314Y-36438759D01*
X55230001Y-36432361D01*
X55225334Y-36425438D01*
X55213913Y-36408497D01*
X55213142Y-36407353D01*
X55211376Y-36404106D01*
X55301125Y-36404106D01*
X55302713Y-36408832D01*
X55308000Y-36400105D01*
X55311807Y-36389223D01*
X55314876Y-36372096D01*
X55313288Y-36367370D01*
X55308000Y-36376097D01*
X55304194Y-36386979D01*
X55301125Y-36404106D01*
X55211376Y-36404106D01*
X55205913Y-36394064D01*
X55201334Y-36385646D01*
X55188017Y-36361166D01*
X55183444Y-36352351D01*
X55180646Y-36346958D01*
X55179424Y-36344754D01*
X55316632Y-36344754D01*
X55317913Y-36352620D01*
X55321465Y-36349589D01*
X55322744Y-36344961D01*
X55320834Y-36334251D01*
X55318103Y-36334375D01*
X55316632Y-36344754D01*
X55179424Y-36344754D01*
X55173913Y-36334817D01*
X55168033Y-36324215D01*
X55166998Y-36322610D01*
X55160636Y-36312744D01*
X55324632Y-36312744D01*
X55325913Y-36320610D01*
X55329465Y-36317579D01*
X55330744Y-36312951D01*
X55328834Y-36302241D01*
X55326103Y-36302365D01*
X55324632Y-36312744D01*
X55160636Y-36312744D01*
X55159361Y-36310766D01*
X55159196Y-36310682D01*
X55156182Y-36309150D01*
X55136934Y-36309150D01*
X55135908Y-36306615D01*
X55134272Y-36302572D01*
X55129861Y-36280734D01*
X55148632Y-36280734D01*
X55149913Y-36288600D01*
X55153465Y-36285569D01*
X55153880Y-36284068D01*
X55332000Y-36284068D01*
X55332578Y-36288305D01*
X55337334Y-36289403D01*
X55338291Y-36288230D01*
X55337334Y-36278733D01*
X55334928Y-36277481D01*
X55332000Y-36284068D01*
X55153880Y-36284068D01*
X55154744Y-36280941D01*
X55152834Y-36270231D01*
X55151196Y-36270305D01*
X55150103Y-36270355D01*
X55148632Y-36280734D01*
X55129861Y-36280734D01*
X55127668Y-36269878D01*
X55124877Y-36256060D01*
X55341360Y-36256060D01*
X55341582Y-36261613D01*
X55343410Y-36264253D01*
X55348000Y-36252058D01*
X55352889Y-36233465D01*
X55354570Y-36220218D01*
X55352941Y-36215970D01*
X55348000Y-36224049D01*
X55344377Y-36235040D01*
X55341360Y-36256060D01*
X55124877Y-36256060D01*
X55119549Y-36229683D01*
X55119364Y-36228051D01*
X55141857Y-36228051D01*
X55141934Y-36233480D01*
X55143196Y-36244546D01*
X55145515Y-36242055D01*
X55146759Y-36234343D01*
X55145515Y-36214046D01*
X55144767Y-36211776D01*
X55143196Y-36213075D01*
X55142691Y-36213492D01*
X55141857Y-36228051D01*
X55119364Y-36228051D01*
X55115367Y-36192706D01*
X55356632Y-36192706D01*
X55357913Y-36200572D01*
X55361465Y-36197541D01*
X55362744Y-36192913D01*
X55360834Y-36182203D01*
X55358103Y-36182327D01*
X55356632Y-36192706D01*
X55115367Y-36192706D01*
X55113859Y-36179376D01*
X55080930Y-36183619D01*
X55080192Y-36183714D01*
X55058836Y-36186383D01*
X55026141Y-36190386D01*
X54986423Y-36195197D01*
X54944000Y-36200290D01*
X54879507Y-36209280D01*
X54816081Y-36221895D01*
X54765912Y-36237002D01*
X54727559Y-36255051D01*
X54699575Y-36276491D01*
X54696025Y-36280421D01*
X54688691Y-36294202D01*
X54685010Y-36314990D01*
X54684001Y-36347241D01*
X54682968Y-36389481D01*
X54678619Y-36451834D01*
X54671483Y-36515056D01*
X54662226Y-36573529D01*
X54651512Y-36621634D01*
X54649151Y-36630461D01*
X54640158Y-36665981D01*
X54628659Y-36713411D01*
X54615292Y-36769959D01*
X54600697Y-36832832D01*
X54585515Y-36899238D01*
X54570385Y-36966384D01*
X54555948Y-37031478D01*
X54542844Y-37091727D01*
X54531712Y-37144339D01*
X54520948Y-37195662D01*
X54507980Y-37256595D01*
X54494743Y-37318064D01*
X54482876Y-37372411D01*
X54477557Y-37396907D01*
X54468653Y-37441608D01*
X54462733Y-37479921D01*
X54459190Y-37517441D01*
X54457417Y-37559764D01*
X54456804Y-37612487D01*
X54456761Y-37625561D01*
X54456895Y-37670633D01*
X54457860Y-37704352D01*
X54460093Y-37730461D01*
X54464032Y-37752701D01*
X54470112Y-37774814D01*
X54478773Y-37800542D01*
X54484630Y-37816088D01*
X54499611Y-37851849D01*
X54519113Y-37895267D01*
X54541266Y-37942224D01*
X54564200Y-37988601D01*
X54565672Y-37991502D01*
X54609155Y-38078117D01*
X54647388Y-38156139D01*
X54679959Y-38224665D01*
X54706456Y-38282791D01*
X54726466Y-38329612D01*
X54739578Y-38364224D01*
X54745377Y-38385724D01*
X54746797Y-38404981D01*
X54740651Y-38444540D01*
X54720991Y-38482843D01*
X54686778Y-38522311D01*
X54655538Y-38548762D01*
X54601261Y-38583154D01*
X54540834Y-38610854D01*
X54480000Y-38628901D01*
X54461382Y-38631903D01*
X54411537Y-38634870D01*
X54410834Y-38634850D01*
X54350955Y-38633169D01*
X54282712Y-38626943D01*
X54209883Y-38616334D01*
X54207510Y-38615923D01*
X54172908Y-38609230D01*
X54138565Y-38601013D01*
X54102656Y-38590578D01*
X54063354Y-38577232D01*
X54018831Y-38560282D01*
X53967261Y-38539034D01*
X53906817Y-38512796D01*
X53835672Y-38480873D01*
X53752000Y-38442574D01*
X53699532Y-38419516D01*
X53587199Y-38376159D01*
X53466954Y-38336733D01*
X53344115Y-38302911D01*
X53224000Y-38276367D01*
X53156800Y-38263245D01*
X53097517Y-38250710D01*
X53047275Y-38238530D01*
X53002590Y-38225591D01*
X52959982Y-38210780D01*
X52915967Y-38192984D01*
X52867063Y-38171091D01*
X52809789Y-38143987D01*
X52802260Y-38140382D01*
X52749349Y-38115630D01*
X52696017Y-38091576D01*
X52645952Y-38069826D01*
X52602841Y-38051989D01*
X52570370Y-38039669D01*
X52557432Y-38035133D01*
X52452422Y-37996275D01*
X52343275Y-37952592D01*
X52233924Y-37905814D01*
X52128305Y-37857671D01*
X52030352Y-37809893D01*
X51944000Y-37764212D01*
X51908649Y-37745058D01*
X51855596Y-37718979D01*
X51807631Y-37699460D01*
X51760000Y-37684440D01*
X51682213Y-37662890D01*
X51615026Y-37643730D01*
X51560183Y-37627334D01*
X51516057Y-37613154D01*
X51481022Y-37600639D01*
X51453453Y-37589240D01*
X51431724Y-37578409D01*
X51414210Y-37567595D01*
X51411133Y-37565457D01*
X51376471Y-37538364D01*
X51353334Y-37514866D01*
X51351379Y-37512881D01*
X51344000Y-37500775D01*
X51338355Y-37491513D01*
X51334379Y-37488893D01*
X51332560Y-37487695D01*
X51327668Y-37486363D01*
X51316000Y-37483186D01*
X51312201Y-37482151D01*
X51278955Y-37476164D01*
X51260000Y-37473519D01*
X51234566Y-37469970D01*
X51208667Y-37467003D01*
X51180781Y-37463809D01*
X51180000Y-37463734D01*
X51152000Y-37461049D01*
X51120000Y-37457980D01*
X51119354Y-37457918D01*
X51304643Y-37457918D01*
X51316000Y-37459175D01*
X51327005Y-37458060D01*
X51326000Y-37455139D01*
X51324000Y-37454555D01*
X51322379Y-37454082D01*
X51306000Y-37455139D01*
X51304643Y-37457918D01*
X51119354Y-37457918D01*
X51119344Y-37457917D01*
X51096000Y-37456050D01*
X51052000Y-37452531D01*
X51048354Y-37452260D01*
X51041222Y-37451731D01*
X51019116Y-37449915D01*
X51248643Y-37449915D01*
X51260000Y-37451173D01*
X51271005Y-37450057D01*
X51270000Y-37447136D01*
X51266379Y-37446079D01*
X51264000Y-37446233D01*
X51250000Y-37447136D01*
X51248643Y-37449915D01*
X51019116Y-37449915D01*
X50996000Y-37448016D01*
X50983465Y-37446986D01*
X50927852Y-37441913D01*
X51168643Y-37441913D01*
X51180000Y-37443170D01*
X51191005Y-37442055D01*
X51190000Y-37439134D01*
X51186379Y-37438077D01*
X51170000Y-37439134D01*
X51168643Y-37441913D01*
X50927852Y-37441913D01*
X50918556Y-37441065D01*
X50896000Y-37438833D01*
X50853674Y-37434644D01*
X50844000Y-37433597D01*
X50836000Y-37432731D01*
X50831169Y-37432208D01*
X51070093Y-37432208D01*
X51077028Y-37433634D01*
X51096000Y-37434142D01*
X51110796Y-37433783D01*
X51119442Y-37432522D01*
X51113891Y-37430689D01*
X51095838Y-37429357D01*
X51073891Y-37430798D01*
X51070093Y-37432208D01*
X50831169Y-37432208D01*
X50816667Y-37430638D01*
X50796000Y-37428401D01*
X50792667Y-37428056D01*
X50760000Y-37424680D01*
X50750140Y-37423661D01*
X50979731Y-37423661D01*
X50981446Y-37425738D01*
X50996000Y-37426572D01*
X51001428Y-37426495D01*
X51012490Y-37425232D01*
X51010000Y-37422912D01*
X51002290Y-37421668D01*
X50988000Y-37422544D01*
X50982000Y-37422912D01*
X50979731Y-37423661D01*
X50750140Y-37423661D01*
X50716729Y-37420208D01*
X50688000Y-37417935D01*
X50668000Y-37416352D01*
X50657178Y-37415496D01*
X50881135Y-37415496D01*
X50882338Y-37418001D01*
X50896000Y-37418866D01*
X50898485Y-37418813D01*
X50909111Y-37417428D01*
X50905848Y-37414881D01*
X50897730Y-37413594D01*
X50896000Y-37413766D01*
X50881848Y-37415177D01*
X50881135Y-37415496D01*
X50657178Y-37415496D01*
X50648000Y-37414770D01*
X50633707Y-37413639D01*
X50624320Y-37412896D01*
X50616000Y-37412461D01*
X50548000Y-37408906D01*
X50536455Y-37408302D01*
X50513334Y-37407793D01*
X50504091Y-37407589D01*
X50806167Y-37407589D01*
X50806291Y-37410321D01*
X50816667Y-37411792D01*
X50824531Y-37410511D01*
X50823665Y-37409496D01*
X50837416Y-37409496D01*
X50844000Y-37412424D01*
X51326179Y-37412424D01*
X51326413Y-37424167D01*
X51327668Y-37434222D01*
X51329646Y-37430429D01*
X51330970Y-37417737D01*
X51330879Y-37416136D01*
X51355555Y-37416136D01*
X51356494Y-37454726D01*
X51360468Y-37485848D01*
X51367559Y-37505394D01*
X51377504Y-37516124D01*
X51397605Y-37533342D01*
X51422003Y-37551447D01*
X51434372Y-37559380D01*
X51453008Y-37569297D01*
X51476385Y-37579388D01*
X51506650Y-37590423D01*
X51545954Y-37603173D01*
X51596445Y-37618408D01*
X51660272Y-37636899D01*
X51676570Y-37641591D01*
X51738855Y-37660110D01*
X51792666Y-37677067D01*
X51836242Y-37691873D01*
X51867825Y-37703936D01*
X51885656Y-37712664D01*
X51894369Y-37718320D01*
X51911185Y-37728494D01*
X51919719Y-37732525D01*
X51922807Y-37733679D01*
X51937423Y-37740927D01*
X51960879Y-37753358D01*
X51989891Y-37769252D01*
X51999952Y-37774759D01*
X52051119Y-37801076D01*
X52113527Y-37831090D01*
X52184069Y-37863466D01*
X52259634Y-37896870D01*
X52337114Y-37929971D01*
X52413400Y-37961433D01*
X52485382Y-37989924D01*
X52549952Y-38014109D01*
X52604000Y-38032656D01*
X52624028Y-38040160D01*
X52656021Y-38053645D01*
X52696134Y-38071484D01*
X52741187Y-38092263D01*
X52788000Y-38114567D01*
X52806630Y-38123579D01*
X52865269Y-38151590D01*
X52913773Y-38173808D01*
X52955377Y-38191358D01*
X52993316Y-38205365D01*
X53030826Y-38216954D01*
X53071142Y-38227249D01*
X53117498Y-38237374D01*
X53173130Y-38248456D01*
X53215310Y-38256789D01*
X53264405Y-38266793D01*
X53308629Y-38276120D01*
X53344367Y-38284004D01*
X53368000Y-38289680D01*
X53386420Y-38294649D01*
X53466070Y-38318255D01*
X53550869Y-38346299D01*
X53635600Y-38376917D01*
X53715049Y-38408244D01*
X53784000Y-38438416D01*
X53846645Y-38467350D01*
X53933905Y-38506021D01*
X54010814Y-38537624D01*
X54079471Y-38562784D01*
X54141976Y-38582127D01*
X54200427Y-38596278D01*
X54256924Y-38605864D01*
X54313565Y-38611511D01*
X54372450Y-38613843D01*
X54410834Y-38614106D01*
X54446806Y-38613158D01*
X54475078Y-38610355D01*
X54500199Y-38605208D01*
X54526714Y-38597225D01*
X54546937Y-38589925D01*
X54602961Y-38563232D01*
X54651299Y-38530500D01*
X54689887Y-38493585D01*
X54716662Y-38454344D01*
X54729561Y-38414636D01*
X54730102Y-38404216D01*
X54728502Y-38389835D01*
X54723992Y-38371649D01*
X54716012Y-38348360D01*
X54704007Y-38318665D01*
X54687418Y-38281266D01*
X54665689Y-38234862D01*
X54638262Y-38178153D01*
X54604579Y-38109838D01*
X54564083Y-38028618D01*
X54557078Y-38014604D01*
X54525079Y-37949983D01*
X54499575Y-37896732D01*
X54479791Y-37852495D01*
X54464954Y-37814917D01*
X54454290Y-37781643D01*
X54447025Y-37750316D01*
X54442386Y-37718582D01*
X54439598Y-37684085D01*
X54437888Y-37644469D01*
X54436973Y-37610605D01*
X54436848Y-37577940D01*
X54437945Y-37547075D01*
X54440591Y-37515522D01*
X54445115Y-37480794D01*
X54451845Y-37440403D01*
X54461108Y-37391861D01*
X54473235Y-37332681D01*
X54488551Y-37260376D01*
X54492747Y-37240740D01*
X54519520Y-37116150D01*
X54543378Y-37006424D01*
X54564486Y-36910832D01*
X54583007Y-36828646D01*
X54599107Y-36759135D01*
X54612948Y-36701570D01*
X54624696Y-36655222D01*
X54634956Y-36614136D01*
X54644283Y-36569738D01*
X54651204Y-36525327D01*
X54656524Y-36475574D01*
X54661053Y-36415146D01*
X54662215Y-36397489D01*
X54665791Y-36348802D01*
X54669650Y-36312838D01*
X54674672Y-36287094D01*
X54681738Y-36269069D01*
X54691728Y-36256262D01*
X54705522Y-36246173D01*
X54724000Y-36236299D01*
X54746926Y-36225547D01*
X54771995Y-36215816D01*
X54800059Y-36207327D01*
X54833276Y-36199644D01*
X54873802Y-36192333D01*
X54923797Y-36184956D01*
X54985417Y-36177078D01*
X55060821Y-36168264D01*
X55105641Y-36163174D01*
X55105763Y-36160029D01*
X55134289Y-36160029D01*
X55134648Y-36174829D01*
X55135908Y-36183478D01*
X55137741Y-36177925D01*
X55138753Y-36164209D01*
X55367414Y-36164209D01*
X55368808Y-36164900D01*
X55375650Y-36151143D01*
X55382394Y-36133825D01*
X55405959Y-36133825D01*
X55566980Y-36129868D01*
X55567132Y-36129864D01*
X55705567Y-36123041D01*
X55840064Y-36109721D01*
X55968701Y-36090304D01*
X56089556Y-36065190D01*
X56200709Y-36034776D01*
X56300239Y-35999463D01*
X56386224Y-35959649D01*
X56395106Y-35954840D01*
X56465023Y-35912368D01*
X56534011Y-35862874D01*
X56599755Y-35808532D01*
X56659937Y-35751516D01*
X56712244Y-35694001D01*
X56754359Y-35638161D01*
X56783966Y-35586172D01*
X56787715Y-35577475D01*
X56802840Y-35530600D01*
X56814427Y-35475504D01*
X56821706Y-35417887D01*
X56823907Y-35363446D01*
X56820259Y-35317877D01*
X56819651Y-35314467D01*
X56797122Y-35232875D01*
X56759814Y-35151445D01*
X56708819Y-35071893D01*
X56645231Y-34995933D01*
X56570141Y-34925279D01*
X56553600Y-34911661D01*
X56522071Y-34886809D01*
X56491514Y-34863936D01*
X56464778Y-34845088D01*
X56444711Y-34832308D01*
X56434159Y-34827642D01*
X56433714Y-34829120D01*
X56432781Y-34842376D01*
X56432077Y-34866433D01*
X56431726Y-34897664D01*
X56431335Y-34917697D01*
X56426634Y-34962422D01*
X56415668Y-34996400D01*
X56414990Y-34998501D01*
X56409334Y-35007377D01*
X56394349Y-35030892D01*
X56389662Y-35035871D01*
X56362661Y-35064551D01*
X56356000Y-35070277D01*
X56333190Y-35089884D01*
X56315813Y-35102377D01*
X56284521Y-35124874D01*
X56280774Y-35127568D01*
X56222165Y-35163578D01*
X56220006Y-35164905D01*
X56183632Y-35184309D01*
X56168000Y-35192648D01*
X56155126Y-35199516D01*
X56152000Y-35200941D01*
X56136000Y-35208232D01*
X56120000Y-35215524D01*
X56104000Y-35222816D01*
X56090377Y-35229025D01*
X56064000Y-35238648D01*
X56040000Y-35247403D01*
X56030001Y-35251051D01*
X56020000Y-35254132D01*
X56000000Y-35260294D01*
X55966973Y-35270470D01*
X55961421Y-35272181D01*
X55953707Y-35300950D01*
X55944313Y-35335985D01*
X55943872Y-35337625D01*
X55929627Y-35384623D01*
X55913256Y-35429508D01*
X55896209Y-35468914D01*
X55879939Y-35499476D01*
X55865896Y-35517827D01*
X55864950Y-35518647D01*
X55855733Y-35524284D01*
X55842013Y-35528095D01*
X55820919Y-35530414D01*
X55789576Y-35531577D01*
X55745114Y-35531920D01*
X55732298Y-35531920D01*
X55728774Y-35531922D01*
X55681640Y-35531947D01*
X55644033Y-35532913D01*
X55617057Y-35536037D01*
X55598292Y-35542537D01*
X55589662Y-35549918D01*
X55585334Y-35553620D01*
X55585319Y-35553633D01*
X55577334Y-35567697D01*
X55575718Y-35570543D01*
X55567069Y-35594485D01*
X55558544Y-35621612D01*
X55556952Y-35626678D01*
X55553334Y-35638233D01*
X55545526Y-35663170D01*
X55545334Y-35663795D01*
X55537334Y-35689843D01*
X55529964Y-35713839D01*
X55529334Y-35715922D01*
X55513873Y-35767050D01*
X55510713Y-35777682D01*
X55505334Y-35795780D01*
X55499348Y-35815921D01*
X55493913Y-35834426D01*
X55486969Y-35858068D01*
X55478001Y-35888598D01*
X55469953Y-35915996D01*
X55469913Y-35916132D01*
X55465334Y-35931719D01*
X55457334Y-35958952D01*
X55452655Y-35974880D01*
X55438713Y-36022338D01*
X55437376Y-36026889D01*
X55422713Y-36076798D01*
X55406001Y-36133682D01*
X55405959Y-36133825D01*
X55382394Y-36133825D01*
X55384838Y-36127549D01*
X55391688Y-36103128D01*
X55391863Y-36102236D01*
X55393849Y-36090103D01*
X55391907Y-36091832D01*
X55388521Y-36100080D01*
X55385264Y-36108013D01*
X55384598Y-36109723D01*
X55375708Y-36134621D01*
X55369226Y-36156028D01*
X55367414Y-36164209D01*
X55138753Y-36164209D01*
X55139073Y-36159867D01*
X55137632Y-36137912D01*
X55136223Y-36134114D01*
X55136000Y-36135199D01*
X55134797Y-36141051D01*
X55134289Y-36160029D01*
X55105763Y-36160029D01*
X55109346Y-36068000D01*
X55126179Y-36068000D01*
X55126413Y-36079744D01*
X55127668Y-36089798D01*
X55129646Y-36086006D01*
X55130970Y-36073314D01*
X55130479Y-36064666D01*
X55396632Y-36064666D01*
X55397913Y-36072532D01*
X55401465Y-36069501D01*
X55402744Y-36064873D01*
X55400834Y-36054163D01*
X55398103Y-36054287D01*
X55396632Y-36064666D01*
X55130479Y-36064666D01*
X55129646Y-36049995D01*
X55128399Y-36045941D01*
X55126804Y-36050692D01*
X55126179Y-36068000D01*
X55109346Y-36068000D01*
X55110531Y-36037563D01*
X55110583Y-36036457D01*
X55405244Y-36036457D01*
X55406001Y-36042275D01*
X55412000Y-36035990D01*
X55415538Y-36029066D01*
X55419316Y-36011983D01*
X55417457Y-36006965D01*
X55416641Y-36008314D01*
X55412000Y-36015984D01*
X55409728Y-36021554D01*
X55405244Y-36036457D01*
X55110583Y-36036457D01*
X55111928Y-36007981D01*
X55132000Y-36007981D01*
X55136000Y-36011983D01*
X55140000Y-36007981D01*
X55136000Y-36003980D01*
X55135668Y-36004312D01*
X55132000Y-36007981D01*
X55111928Y-36007981D01*
X55112077Y-36004834D01*
X55113476Y-35987975D01*
X55421125Y-35987975D01*
X55422713Y-35992701D01*
X55428000Y-35983974D01*
X55431807Y-35973092D01*
X55434876Y-35955965D01*
X55433288Y-35951239D01*
X55428000Y-35959966D01*
X55424194Y-35970848D01*
X55421125Y-35987975D01*
X55113476Y-35987975D01*
X55115467Y-35963968D01*
X55134179Y-35963968D01*
X55134413Y-35975711D01*
X55135668Y-35985766D01*
X55137646Y-35981973D01*
X55138970Y-35969281D01*
X55137646Y-35945962D01*
X55136399Y-35941908D01*
X55134804Y-35946659D01*
X55134179Y-35963968D01*
X55115467Y-35963968D01*
X55118123Y-35931957D01*
X55437125Y-35931957D01*
X55438713Y-35936684D01*
X55444000Y-35927956D01*
X55447807Y-35917074D01*
X55450876Y-35899947D01*
X55449288Y-35895221D01*
X55444000Y-35903949D01*
X55440194Y-35914830D01*
X55437125Y-35931957D01*
X55118123Y-35931957D01*
X55121442Y-35891945D01*
X55141857Y-35891945D01*
X55141934Y-35897374D01*
X55143196Y-35908440D01*
X55145515Y-35905949D01*
X55146759Y-35898237D01*
X55145515Y-35877940D01*
X55144856Y-35875940D01*
X55452000Y-35875940D01*
X55452578Y-35880176D01*
X55457334Y-35881275D01*
X55458291Y-35880102D01*
X55457334Y-35870605D01*
X55454928Y-35869353D01*
X55452000Y-35875940D01*
X55144856Y-35875940D01*
X55144767Y-35875670D01*
X55142691Y-35877386D01*
X55141857Y-35891945D01*
X55121442Y-35891945D01*
X55122768Y-35875955D01*
X55125970Y-35851932D01*
X55460000Y-35851932D01*
X55460578Y-35856169D01*
X55465334Y-35857267D01*
X55466291Y-35856094D01*
X55465334Y-35846597D01*
X55462928Y-35845345D01*
X55460000Y-35851932D01*
X55125970Y-35851932D01*
X55129169Y-35827925D01*
X55149857Y-35827925D01*
X55149934Y-35833354D01*
X55151196Y-35844420D01*
X55153515Y-35841929D01*
X55154759Y-35834217D01*
X55154169Y-35824590D01*
X55468632Y-35824590D01*
X55469913Y-35832456D01*
X55473465Y-35829425D01*
X55474744Y-35824798D01*
X55472834Y-35814087D01*
X55470103Y-35814211D01*
X55468632Y-35824590D01*
X55154169Y-35824590D01*
X55153515Y-35813920D01*
X55152767Y-35811650D01*
X55150691Y-35813366D01*
X55149857Y-35827925D01*
X55129169Y-35827925D01*
X55133372Y-35796382D01*
X55477244Y-35796382D01*
X55478001Y-35802200D01*
X55484000Y-35795915D01*
X55487538Y-35788990D01*
X55491316Y-35771907D01*
X55489457Y-35766889D01*
X55488000Y-35769297D01*
X55484000Y-35775908D01*
X55481728Y-35781479D01*
X55477244Y-35796382D01*
X55133372Y-35796382D01*
X55136634Y-35771907D01*
X55157857Y-35771907D01*
X55157934Y-35777337D01*
X55159196Y-35788402D01*
X55161515Y-35785911D01*
X55162759Y-35778199D01*
X55161515Y-35757903D01*
X55160767Y-35755632D01*
X55158691Y-35757348D01*
X55157857Y-35771907D01*
X55136634Y-35771907D01*
X55140277Y-35744565D01*
X55492632Y-35744565D01*
X55493913Y-35752431D01*
X55497465Y-35749400D01*
X55498744Y-35744772D01*
X55496834Y-35734062D01*
X55494103Y-35734186D01*
X55492632Y-35744565D01*
X55140277Y-35744565D01*
X55140418Y-35743510D01*
X55144771Y-35719891D01*
X55165560Y-35719891D01*
X55165613Y-35722376D01*
X55166998Y-35733005D01*
X55169544Y-35729742D01*
X55170831Y-35721620D01*
X55170260Y-35715889D01*
X55500000Y-35715889D01*
X55500578Y-35720126D01*
X55505334Y-35721224D01*
X55506291Y-35720052D01*
X55505334Y-35710554D01*
X55502928Y-35709302D01*
X55500000Y-35715889D01*
X55170260Y-35715889D01*
X55169248Y-35705734D01*
X55168929Y-35705021D01*
X55166425Y-35706224D01*
X55165560Y-35719891D01*
X55144771Y-35719891D01*
X55149933Y-35691882D01*
X55509125Y-35691882D01*
X55510713Y-35696608D01*
X55516000Y-35687881D01*
X55519807Y-35676999D01*
X55522876Y-35659872D01*
X55521288Y-35655146D01*
X55516000Y-35663873D01*
X55512194Y-35674755D01*
X55509125Y-35691882D01*
X55149933Y-35691882D01*
X55152023Y-35680545D01*
X55172632Y-35680545D01*
X55173913Y-35688411D01*
X55177465Y-35685380D01*
X55178744Y-35680752D01*
X55176834Y-35670042D01*
X55174103Y-35670166D01*
X55172632Y-35680545D01*
X55152023Y-35680545D01*
X55160996Y-35631863D01*
X55181595Y-35631863D01*
X55181722Y-35637134D01*
X55183444Y-35639940D01*
X55184982Y-35635864D01*
X55524000Y-35635864D01*
X55524578Y-35640101D01*
X55529334Y-35641199D01*
X55530291Y-35640026D01*
X55529334Y-35630529D01*
X55526928Y-35629277D01*
X55524000Y-35635864D01*
X55184982Y-35635864D01*
X55188000Y-35627862D01*
X55191938Y-35612158D01*
X55191975Y-35611857D01*
X55532000Y-35611857D01*
X55532578Y-35616093D01*
X55537334Y-35617192D01*
X55538291Y-35616019D01*
X55537334Y-35606522D01*
X55534928Y-35605270D01*
X55532000Y-35611857D01*
X55191975Y-35611857D01*
X55194406Y-35591850D01*
X55194310Y-35587849D01*
X55540000Y-35587849D01*
X55540578Y-35592086D01*
X55545334Y-35593184D01*
X55546291Y-35592011D01*
X55545334Y-35582514D01*
X55542928Y-35581262D01*
X55540000Y-35587849D01*
X55194310Y-35587849D01*
X55194279Y-35586579D01*
X55192557Y-35583773D01*
X55188000Y-35595852D01*
X55184063Y-35611556D01*
X55181595Y-35631863D01*
X55160996Y-35631863D01*
X55164010Y-35615513D01*
X55168524Y-35594181D01*
X55174830Y-35563842D01*
X55548000Y-35563842D01*
X55548578Y-35568078D01*
X55553334Y-35569177D01*
X55554291Y-35568004D01*
X55553334Y-35558507D01*
X55550928Y-35557255D01*
X55548000Y-35563842D01*
X55174830Y-35563842D01*
X55175875Y-35558814D01*
X55176477Y-35555839D01*
X55196000Y-35555839D01*
X55196578Y-35560076D01*
X55201334Y-35561174D01*
X55202291Y-35560001D01*
X55201334Y-35550504D01*
X55198928Y-35549252D01*
X55196000Y-35555839D01*
X55176477Y-35555839D01*
X55179716Y-35539834D01*
X55556685Y-35539834D01*
X55558544Y-35544852D01*
X55564000Y-35535833D01*
X55566273Y-35530262D01*
X55570757Y-35515359D01*
X55570000Y-35509541D01*
X55564000Y-35515826D01*
X55560463Y-35522751D01*
X55556685Y-35539834D01*
X55179716Y-35539834D01*
X55181805Y-35529515D01*
X55182000Y-35528497D01*
X55204632Y-35528497D01*
X55205913Y-35536363D01*
X55209465Y-35533332D01*
X55210744Y-35528704D01*
X55208834Y-35517994D01*
X55206103Y-35518118D01*
X55204632Y-35528497D01*
X55182000Y-35528497D01*
X55185337Y-35511073D01*
X55185662Y-35509226D01*
X55596000Y-35509226D01*
X55596021Y-35509349D01*
X55604187Y-35511563D01*
X55624862Y-35513324D01*
X55654730Y-35514609D01*
X55690473Y-35515394D01*
X55728774Y-35515655D01*
X55766316Y-35515369D01*
X55799783Y-35514511D01*
X55825857Y-35513058D01*
X55841220Y-35510987D01*
X55852867Y-35502073D01*
X55868177Y-35480120D01*
X55884960Y-35448163D01*
X55901876Y-35409052D01*
X55917582Y-35365638D01*
X55930737Y-35320773D01*
X55946690Y-35258480D01*
X55939940Y-35248841D01*
X55934802Y-35241503D01*
X55956614Y-35241503D01*
X55962382Y-35246742D01*
X55966973Y-35247756D01*
X55980282Y-35243567D01*
X55981821Y-35242585D01*
X55985184Y-35238124D01*
X55973900Y-35237795D01*
X55969707Y-35238206D01*
X55963547Y-35238811D01*
X55956614Y-35241503D01*
X55934802Y-35241503D01*
X55927963Y-35231737D01*
X55996000Y-35231737D01*
X56000000Y-35235738D01*
X56002927Y-35232810D01*
X56013416Y-35232810D01*
X56020000Y-35235738D01*
X56024236Y-35235161D01*
X56025334Y-35230403D01*
X56024161Y-35229445D01*
X56014667Y-35230403D01*
X56013416Y-35232810D01*
X56002927Y-35232810D01*
X56004000Y-35231737D01*
X56000000Y-35227736D01*
X55996000Y-35231737D01*
X55927963Y-35231737D01*
X55917252Y-35216441D01*
X55940648Y-35216441D01*
X55949237Y-35224499D01*
X55953707Y-35226446D01*
X55953240Y-35223734D01*
X56036000Y-35223734D01*
X56040000Y-35227736D01*
X56044000Y-35223734D01*
X56040000Y-35219733D01*
X56037484Y-35222250D01*
X56036000Y-35223734D01*
X55953240Y-35223734D01*
X55952764Y-35220970D01*
X55950295Y-35217415D01*
X55948832Y-35216186D01*
X56062569Y-35216186D01*
X56064000Y-35219488D01*
X56069416Y-35218502D01*
X56084000Y-35211731D01*
X56089432Y-35207275D01*
X56088000Y-35203973D01*
X56082585Y-35204959D01*
X56068000Y-35211731D01*
X56065707Y-35213612D01*
X56062569Y-35216186D01*
X55948832Y-35216186D01*
X55948000Y-35215487D01*
X55943528Y-35211731D01*
X55942410Y-35211809D01*
X55940648Y-35216441D01*
X55917252Y-35216441D01*
X55913707Y-35211379D01*
X55900901Y-35193092D01*
X55895260Y-35185066D01*
X55917563Y-35185066D01*
X55930000Y-35196746D01*
X55935797Y-35201217D01*
X55939940Y-35203204D01*
X55937402Y-35199727D01*
X56100000Y-35199727D01*
X56104000Y-35203728D01*
X56108000Y-35199727D01*
X56104000Y-35195726D01*
X56100000Y-35199727D01*
X55937402Y-35199727D01*
X55933021Y-35193725D01*
X55931305Y-35191724D01*
X56116000Y-35191724D01*
X56120000Y-35195726D01*
X56124000Y-35191724D01*
X56120000Y-35187723D01*
X56116000Y-35191724D01*
X55931305Y-35191724D01*
X55925699Y-35185189D01*
X55923907Y-35183722D01*
X56132000Y-35183722D01*
X56136000Y-35187723D01*
X56140000Y-35183722D01*
X56136000Y-35179721D01*
X56132000Y-35183722D01*
X55923907Y-35183722D01*
X55919021Y-35179721D01*
X55917617Y-35179852D01*
X55917563Y-35185066D01*
X55895260Y-35185066D01*
X55894051Y-35183346D01*
X55888691Y-35175719D01*
X56148000Y-35175719D01*
X56152000Y-35179721D01*
X56156000Y-35175719D01*
X56153707Y-35173425D01*
X56152000Y-35171718D01*
X56148000Y-35175719D01*
X55888691Y-35175719D01*
X55877940Y-35160423D01*
X55900648Y-35160423D01*
X55909237Y-35168481D01*
X55913707Y-35170428D01*
X55913240Y-35167717D01*
X56164000Y-35167717D01*
X56168000Y-35171718D01*
X56172000Y-35167717D01*
X56168000Y-35163716D01*
X56164000Y-35167717D01*
X55913240Y-35167717D01*
X55912764Y-35164952D01*
X55910295Y-35161397D01*
X55908962Y-35160277D01*
X56180000Y-35160277D01*
X56183632Y-35160864D01*
X56196000Y-35155713D01*
X56205868Y-35149573D01*
X56212000Y-35143146D01*
X56208369Y-35142559D01*
X56196000Y-35147710D01*
X56186133Y-35153850D01*
X56184000Y-35156085D01*
X56180000Y-35160277D01*
X55908962Y-35160277D01*
X55904000Y-35156109D01*
X55903528Y-35155713D01*
X55902410Y-35155791D01*
X55900648Y-35160423D01*
X55877940Y-35160423D01*
X55869799Y-35148839D01*
X55844924Y-35113905D01*
X55833068Y-35097712D01*
X55826828Y-35089190D01*
X55814361Y-35073164D01*
X55812320Y-35070898D01*
X55837409Y-35070898D01*
X55844572Y-35082006D01*
X55860639Y-35103697D01*
X55878445Y-35126548D01*
X55890141Y-35140116D01*
X55894051Y-35142710D01*
X55890903Y-35136703D01*
X56220000Y-35136703D01*
X56222165Y-35137423D01*
X56233191Y-35133219D01*
X56248787Y-35124854D01*
X56263524Y-35115353D01*
X56271974Y-35107741D01*
X56272228Y-35106156D01*
X56268000Y-35107172D01*
X56264667Y-35107973D01*
X56248481Y-35116477D01*
X56248000Y-35116768D01*
X56241726Y-35120562D01*
X56232719Y-35126572D01*
X56226201Y-35130921D01*
X56220000Y-35136703D01*
X55890903Y-35136703D01*
X55889407Y-35133847D01*
X55888000Y-35131750D01*
X55875444Y-35113041D01*
X55875189Y-35112687D01*
X55863618Y-35096639D01*
X56284000Y-35096639D01*
X56284521Y-35097733D01*
X56292000Y-35095694D01*
X56294369Y-35094050D01*
X56300000Y-35086747D01*
X56299480Y-35085652D01*
X56292000Y-35087692D01*
X56289632Y-35089336D01*
X56284000Y-35096639D01*
X55863618Y-35096639D01*
X55863160Y-35096004D01*
X55849795Y-35078744D01*
X55847830Y-35076633D01*
X56312660Y-35076633D01*
X56315813Y-35077103D01*
X56330000Y-35067710D01*
X56342301Y-35058392D01*
X56353996Y-35048097D01*
X56353877Y-35045323D01*
X56352000Y-35046167D01*
X56341343Y-35050962D01*
X56336000Y-35054519D01*
X56331529Y-35057496D01*
X56316000Y-35072159D01*
X56315343Y-35072779D01*
X56312660Y-35076633D01*
X55847830Y-35076633D01*
X55842172Y-35070556D01*
X55838601Y-35068713D01*
X55838078Y-35068443D01*
X55837409Y-35070898D01*
X55812320Y-35070898D01*
X55806372Y-35064295D01*
X55801711Y-35061050D01*
X55799157Y-35061127D01*
X55793707Y-35065608D01*
X55787664Y-35070576D01*
X55771855Y-35092637D01*
X55752627Y-35125463D01*
X55730874Y-35167207D01*
X55724936Y-35179604D01*
X55707492Y-35216021D01*
X55697842Y-35237644D01*
X55683376Y-35270058D01*
X55678713Y-35281234D01*
X55672000Y-35297324D01*
X55659422Y-35327471D01*
X55653662Y-35342299D01*
X55649334Y-35353441D01*
X55636526Y-35386413D01*
X55629662Y-35405625D01*
X55615581Y-35445036D01*
X55613899Y-35450010D01*
X55613662Y-35450735D01*
X55609334Y-35463972D01*
X55604818Y-35477785D01*
X55598421Y-35498938D01*
X55596000Y-35509226D01*
X55185662Y-35509226D01*
X55187901Y-35496487D01*
X55212632Y-35496487D01*
X55213913Y-35504353D01*
X55217465Y-35501322D01*
X55218744Y-35496694D01*
X55216834Y-35485984D01*
X55214103Y-35486108D01*
X55212632Y-35496487D01*
X55187901Y-35496487D01*
X55189689Y-35486313D01*
X55153800Y-35483816D01*
X55572000Y-35483816D01*
X55572578Y-35488053D01*
X55577334Y-35489151D01*
X55578291Y-35487978D01*
X55577334Y-35478481D01*
X55574928Y-35477229D01*
X55572000Y-35483816D01*
X55153800Y-35483816D01*
X55118845Y-35481384D01*
X55098539Y-35479814D01*
X55016181Y-35470858D01*
X54995532Y-35467811D01*
X55220000Y-35467811D01*
X55220578Y-35472048D01*
X55225334Y-35473146D01*
X55226291Y-35471973D01*
X55225334Y-35462476D01*
X55222928Y-35461224D01*
X55220000Y-35467811D01*
X54995532Y-35467811D01*
X54926931Y-35457688D01*
X54835366Y-35441180D01*
X54746064Y-35422213D01*
X54663605Y-35401666D01*
X54592566Y-35380417D01*
X54584044Y-35377544D01*
X54562842Y-35369924D01*
X54543466Y-35361737D01*
X54524152Y-35351773D01*
X54503136Y-35338819D01*
X54478656Y-35321664D01*
X54448948Y-35299096D01*
X54412249Y-35269903D01*
X54366796Y-35232874D01*
X54310826Y-35186798D01*
X54276344Y-35158653D01*
X54219078Y-35114000D01*
X54168105Y-35078008D01*
X54120145Y-35048961D01*
X54071921Y-35025141D01*
X54020153Y-35004832D01*
X53961565Y-34986316D01*
X53892878Y-34967876D01*
X53849641Y-34957422D01*
X53759543Y-34939697D01*
X53673895Y-34929374D01*
X53587912Y-34926186D01*
X53496807Y-34929865D01*
X53395793Y-34940145D01*
X53363071Y-34945575D01*
X53313431Y-34956555D01*
X53256313Y-34971287D01*
X53195577Y-34988614D01*
X53135082Y-35007379D01*
X53078688Y-35026424D01*
X53030254Y-35044593D01*
X52993639Y-35060728D01*
X52959490Y-35078887D01*
X52909130Y-35108310D01*
X52855150Y-35142189D01*
X52801106Y-35178144D01*
X52750554Y-35213792D01*
X52707051Y-35246754D01*
X52674152Y-35274646D01*
X52658186Y-35289346D01*
X52610260Y-35330769D01*
X52567465Y-35362096D01*
X52526062Y-35385171D01*
X52482309Y-35401841D01*
X52432466Y-35413950D01*
X52372794Y-35423345D01*
X52348714Y-35426831D01*
X52307219Y-35434115D01*
X52269822Y-35442118D01*
X52242429Y-35449648D01*
X52220427Y-35457829D01*
X52166030Y-35484278D01*
X52115392Y-35517213D01*
X52071500Y-35554243D01*
X52037339Y-35592977D01*
X52015895Y-35631026D01*
X52008772Y-35660014D01*
X52008354Y-35670887D01*
X52006948Y-35707459D01*
X52013274Y-35762793D01*
X52027349Y-35822931D01*
X52048775Y-35884788D01*
X52078334Y-35957819D01*
X52073617Y-36058924D01*
X52073179Y-36067957D01*
X52070476Y-36108926D01*
X52066307Y-36144672D01*
X52059784Y-36178482D01*
X52050023Y-36213643D01*
X52036137Y-36253441D01*
X52017240Y-36301162D01*
X51992448Y-36360092D01*
X51971709Y-36407010D01*
X51941558Y-36470043D01*
X51911875Y-36526484D01*
X51884190Y-36573468D01*
X51860032Y-36608131D01*
X51850598Y-36620589D01*
X51833119Y-36645460D01*
X51813984Y-36674197D01*
X51795349Y-36703398D01*
X51779370Y-36729658D01*
X51768202Y-36749576D01*
X51764000Y-36759747D01*
X51760792Y-36766247D01*
X51749892Y-36784183D01*
X51732659Y-36811140D01*
X51710537Y-36844868D01*
X51684967Y-36883114D01*
X51682202Y-36887206D01*
X51641309Y-36945496D01*
X51603341Y-36994568D01*
X51564361Y-37039237D01*
X51520430Y-37084320D01*
X51480175Y-37124744D01*
X51444927Y-37162885D01*
X51418390Y-37195897D01*
X51398640Y-37226453D01*
X51383754Y-37257226D01*
X51380000Y-37267805D01*
X51371809Y-37290889D01*
X51370130Y-37296624D01*
X51362454Y-37332978D01*
X51360597Y-37348639D01*
X51357568Y-37374185D01*
X51355555Y-37416136D01*
X51330879Y-37416136D01*
X51329646Y-37394418D01*
X51328399Y-37390364D01*
X51326804Y-37395116D01*
X51326179Y-37412424D01*
X50844000Y-37412424D01*
X50848236Y-37411846D01*
X50849334Y-37407089D01*
X50848161Y-37406131D01*
X50838667Y-37407089D01*
X50837416Y-37409496D01*
X50823665Y-37409496D01*
X50821500Y-37406957D01*
X50816874Y-37405679D01*
X50806167Y-37407589D01*
X50504091Y-37407589D01*
X50504000Y-37407587D01*
X50497334Y-37407440D01*
X50488000Y-37407234D01*
X50480000Y-37407058D01*
X50472000Y-37406882D01*
X50464000Y-37406706D01*
X50457334Y-37406559D01*
X50455922Y-37406528D01*
X50449334Y-37406635D01*
X50441032Y-37406770D01*
X50425334Y-37407025D01*
X50417334Y-37407155D01*
X50409334Y-37407285D01*
X50400000Y-37407436D01*
X50392000Y-37407566D01*
X50385508Y-37407671D01*
X50372000Y-37408648D01*
X50344282Y-37410653D01*
X50328000Y-37411830D01*
X50320000Y-37412915D01*
X50315940Y-37413465D01*
X50295310Y-37416262D01*
X50288667Y-37417368D01*
X50246564Y-37424381D01*
X50236000Y-37426401D01*
X50200667Y-37433157D01*
X50194777Y-37434283D01*
X50164000Y-37440981D01*
X50146807Y-37444723D01*
X50132000Y-37448166D01*
X50130403Y-37448537D01*
X50104667Y-37454022D01*
X50088000Y-37457574D01*
X50080000Y-37459279D01*
X50064264Y-37462632D01*
X50060000Y-37463318D01*
X50010535Y-37471274D01*
X50008000Y-37471452D01*
X49990764Y-37472666D01*
X49967196Y-37474325D01*
X49967015Y-37474338D01*
X49960000Y-37473818D01*
X49934655Y-37471939D01*
X49931505Y-37471705D01*
X49901801Y-37463253D01*
X49891940Y-37457815D01*
X49875704Y-37448861D01*
X49865362Y-37440294D01*
X49902042Y-37440294D01*
X49907958Y-37445394D01*
X49921091Y-37450163D01*
X49934655Y-37451929D01*
X49935759Y-37449431D01*
X49932055Y-37447506D01*
X49993135Y-37447506D01*
X49994338Y-37450011D01*
X50008000Y-37450876D01*
X50010485Y-37450824D01*
X50021111Y-37449438D01*
X50017848Y-37446891D01*
X50009730Y-37445604D01*
X49993848Y-37447187D01*
X49993135Y-37447506D01*
X49932055Y-37447506D01*
X49929344Y-37446097D01*
X49924839Y-37443755D01*
X49919029Y-37441913D01*
X50048643Y-37441913D01*
X50060000Y-37443170D01*
X50071005Y-37442055D01*
X50070000Y-37439134D01*
X50066379Y-37438077D01*
X50060521Y-37438455D01*
X50050000Y-37439134D01*
X50048643Y-37441913D01*
X49919029Y-37441913D01*
X49911383Y-37439489D01*
X49902494Y-37439272D01*
X49902042Y-37440294D01*
X49865362Y-37440294D01*
X49851012Y-37428406D01*
X49850826Y-37428229D01*
X49850465Y-37427886D01*
X49840878Y-37417769D01*
X49869563Y-37417769D01*
X49882000Y-37429450D01*
X49887797Y-37433920D01*
X49891940Y-37435907D01*
X49888793Y-37431596D01*
X50094167Y-37431596D01*
X50094291Y-37434328D01*
X50104667Y-37435800D01*
X50112531Y-37434518D01*
X50112000Y-37433896D01*
X50109500Y-37430965D01*
X50105334Y-37429813D01*
X50104874Y-37429686D01*
X50096000Y-37431269D01*
X50094167Y-37431596D01*
X49888793Y-37431596D01*
X49885021Y-37426428D01*
X49884226Y-37425501D01*
X50125416Y-37425501D01*
X50132000Y-37428429D01*
X50136236Y-37427851D01*
X50137334Y-37423094D01*
X50136161Y-37422136D01*
X50126667Y-37423094D01*
X50125416Y-37425501D01*
X49884226Y-37425501D01*
X49877699Y-37417892D01*
X49877218Y-37417498D01*
X50157416Y-37417498D01*
X50164000Y-37420426D01*
X50168236Y-37419849D01*
X50169334Y-37415091D01*
X50168161Y-37414134D01*
X50168000Y-37414150D01*
X50158667Y-37415091D01*
X50157416Y-37417498D01*
X49877218Y-37417498D01*
X49871021Y-37412424D01*
X49869617Y-37412555D01*
X49869563Y-37417769D01*
X49840878Y-37417769D01*
X49831143Y-37407496D01*
X49822676Y-37392383D01*
X49822811Y-37383557D01*
X49844061Y-37383557D01*
X49846351Y-37398734D01*
X49850553Y-37407528D01*
X49850826Y-37407677D01*
X49850892Y-37407589D01*
X50190167Y-37407589D01*
X50190291Y-37410321D01*
X50200667Y-37411792D01*
X50208531Y-37410511D01*
X50205500Y-37406957D01*
X50204000Y-37406543D01*
X50200874Y-37405679D01*
X50190167Y-37407589D01*
X49850892Y-37407589D01*
X49854206Y-37403185D01*
X49854159Y-37401900D01*
X50224643Y-37401900D01*
X50236000Y-37403158D01*
X50247005Y-37402042D01*
X50246127Y-37399491D01*
X50745135Y-37399491D01*
X50746338Y-37401996D01*
X50760000Y-37402861D01*
X50762485Y-37402808D01*
X50773111Y-37401423D01*
X50769848Y-37398876D01*
X50761730Y-37397589D01*
X50748000Y-37398958D01*
X50745848Y-37399172D01*
X50745135Y-37399491D01*
X50246127Y-37399491D01*
X50246000Y-37399121D01*
X50242379Y-37398064D01*
X50236000Y-37398476D01*
X50226000Y-37399121D01*
X50224643Y-37401900D01*
X49854159Y-37401900D01*
X49853783Y-37391731D01*
X49853778Y-37391584D01*
X50278167Y-37391584D01*
X50278291Y-37394316D01*
X50288667Y-37395787D01*
X50296531Y-37394505D01*
X50293957Y-37391488D01*
X50673135Y-37391488D01*
X50674338Y-37393994D01*
X50688000Y-37394859D01*
X50690485Y-37394806D01*
X50701111Y-37393420D01*
X50697848Y-37390873D01*
X50696667Y-37390686D01*
X50689730Y-37389587D01*
X50673848Y-37391170D01*
X50673135Y-37391488D01*
X50293957Y-37391488D01*
X50293500Y-37390952D01*
X50288874Y-37389674D01*
X50278167Y-37391584D01*
X49853778Y-37391584D01*
X49853645Y-37387994D01*
X49853641Y-37387964D01*
X49852772Y-37383648D01*
X50355731Y-37383648D01*
X50357446Y-37385725D01*
X50372000Y-37386560D01*
X50377428Y-37386482D01*
X50388490Y-37385219D01*
X50387572Y-37384364D01*
X50516236Y-37384364D01*
X50526022Y-37385445D01*
X50548000Y-37385855D01*
X50551291Y-37385848D01*
X50571871Y-37385344D01*
X50580038Y-37384196D01*
X50574000Y-37382627D01*
X50569707Y-37382390D01*
X50550053Y-37381303D01*
X50536000Y-37381966D01*
X50528000Y-37382344D01*
X50522000Y-37382627D01*
X50521334Y-37382716D01*
X50520436Y-37382835D01*
X50516236Y-37384364D01*
X50387572Y-37384364D01*
X50386000Y-37382900D01*
X50384000Y-37382577D01*
X50378290Y-37381655D01*
X50376282Y-37381778D01*
X50358000Y-37382900D01*
X50355731Y-37383648D01*
X49852772Y-37383648D01*
X49850290Y-37371327D01*
X49847093Y-37364409D01*
X49844296Y-37369612D01*
X49844061Y-37383557D01*
X49822811Y-37383557D01*
X49822885Y-37378694D01*
X49825809Y-37365728D01*
X49827891Y-37349551D01*
X49829102Y-37346600D01*
X49853783Y-37346600D01*
X49857631Y-37343409D01*
X49867437Y-37332399D01*
X51333264Y-37332399D01*
X51334379Y-37343407D01*
X51337299Y-37342402D01*
X51338355Y-37338779D01*
X51337299Y-37322395D01*
X51334521Y-37321038D01*
X51333264Y-37332399D01*
X49867437Y-37332399D01*
X49868496Y-37331210D01*
X49888062Y-37308420D01*
X49898357Y-37296387D01*
X51340000Y-37296387D01*
X51344000Y-37300388D01*
X51348000Y-37296387D01*
X51344000Y-37292386D01*
X51340000Y-37296387D01*
X49898357Y-37296387D01*
X49912000Y-37280440D01*
X49889266Y-37300418D01*
X49887168Y-37302297D01*
X49869860Y-37320313D01*
X49858287Y-37336400D01*
X49855268Y-37342367D01*
X49853783Y-37346600D01*
X49829102Y-37346600D01*
X49829974Y-37344475D01*
X49841036Y-37328911D01*
X49859476Y-37306922D01*
X49882853Y-37281530D01*
X49890451Y-37273360D01*
X49924000Y-37273360D01*
X49924132Y-37274764D01*
X49929344Y-37274818D01*
X49935389Y-37268378D01*
X51348000Y-37268378D01*
X51348578Y-37272615D01*
X51353334Y-37273713D01*
X51354291Y-37272540D01*
X51353334Y-37263043D01*
X51350928Y-37261791D01*
X51348000Y-37268378D01*
X49935389Y-37268378D01*
X49941021Y-37262377D01*
X49945490Y-37256578D01*
X49947476Y-37252434D01*
X49944454Y-37254641D01*
X49938000Y-37259355D01*
X49929467Y-37266680D01*
X49924000Y-37273360D01*
X49890451Y-37273360D01*
X49896937Y-37266386D01*
X49915351Y-37244843D01*
X51356000Y-37244843D01*
X51356423Y-37249331D01*
X51360597Y-37251218D01*
X51367053Y-37239954D01*
X51368455Y-37233712D01*
X51363909Y-37232424D01*
X51361811Y-37233992D01*
X51356000Y-37244843D01*
X49915351Y-37244843D01*
X49918907Y-37240683D01*
X49925113Y-37232367D01*
X49956000Y-37232367D01*
X49960000Y-37236368D01*
X49964000Y-37232367D01*
X49961972Y-37230338D01*
X49960000Y-37228366D01*
X49956000Y-37232367D01*
X49925113Y-37232367D01*
X49934967Y-37219164D01*
X49942368Y-37205347D01*
X49942408Y-37196356D01*
X49965857Y-37196356D01*
X49965934Y-37201785D01*
X49967196Y-37212851D01*
X49967213Y-37212833D01*
X51372000Y-37212833D01*
X51372629Y-37215728D01*
X51380000Y-37216362D01*
X51382395Y-37214720D01*
X51388000Y-37207887D01*
X51387793Y-37207089D01*
X51380000Y-37204358D01*
X51377808Y-37204684D01*
X51372000Y-37212833D01*
X49967213Y-37212833D01*
X49969515Y-37210360D01*
X49970759Y-37202648D01*
X49970572Y-37199590D01*
X51307731Y-37199590D01*
X51309446Y-37201667D01*
X51324000Y-37202502D01*
X51329428Y-37202424D01*
X51340490Y-37201161D01*
X51338000Y-37198842D01*
X51330290Y-37197597D01*
X51310000Y-37198842D01*
X51307731Y-37199590D01*
X49970572Y-37199590D01*
X49970071Y-37191425D01*
X51249135Y-37191425D01*
X51250338Y-37193931D01*
X51264000Y-37194796D01*
X51266485Y-37194743D01*
X51277111Y-37193357D01*
X51273848Y-37190810D01*
X51265730Y-37189523D01*
X51249848Y-37191107D01*
X51249135Y-37191425D01*
X49970071Y-37191425D01*
X49969587Y-37183518D01*
X51198167Y-37183518D01*
X51198291Y-37186250D01*
X51208667Y-37187721D01*
X51216531Y-37186440D01*
X51213500Y-37182887D01*
X51208874Y-37181608D01*
X51198167Y-37183518D01*
X49969587Y-37183518D01*
X49969515Y-37182351D01*
X49968767Y-37180081D01*
X49966691Y-37181797D01*
X49965857Y-37196356D01*
X49942408Y-37196356D01*
X49942431Y-37191135D01*
X49939097Y-37176349D01*
X51116000Y-37176349D01*
X51120000Y-37180351D01*
X51124000Y-37176349D01*
X51123071Y-37175420D01*
X51137135Y-37175420D01*
X51138338Y-37177926D01*
X51152000Y-37178791D01*
X51154485Y-37178738D01*
X51165111Y-37177352D01*
X51161848Y-37174805D01*
X51153730Y-37173518D01*
X51137848Y-37175102D01*
X51137135Y-37175420D01*
X51123071Y-37175420D01*
X51120000Y-37172348D01*
X51116000Y-37176349D01*
X49939097Y-37176349D01*
X49937534Y-37169420D01*
X50981416Y-37169420D01*
X50988000Y-37172348D01*
X50992236Y-37171771D01*
X50993042Y-37168278D01*
X51017401Y-37168278D01*
X51026749Y-37169451D01*
X51048000Y-37169868D01*
X51048354Y-37169868D01*
X51068725Y-37169376D01*
X51076452Y-37168184D01*
X51069857Y-37166548D01*
X51046182Y-37165238D01*
X51021857Y-37166630D01*
X51017401Y-37168278D01*
X50993042Y-37168278D01*
X50993334Y-37167013D01*
X50992161Y-37166055D01*
X50982667Y-37167013D01*
X50981416Y-37169420D01*
X49937534Y-37169420D01*
X49936124Y-37163167D01*
X49929334Y-37143769D01*
X49927045Y-37137229D01*
X49949806Y-37137229D01*
X49956000Y-37152342D01*
X49957612Y-37155997D01*
X49961972Y-37162625D01*
X49962575Y-37159415D01*
X50881135Y-37159415D01*
X50882338Y-37161921D01*
X50896000Y-37162786D01*
X50898485Y-37162733D01*
X50909111Y-37161347D01*
X50905848Y-37158800D01*
X50897730Y-37157513D01*
X50881848Y-37159096D01*
X50881135Y-37159415D01*
X49962575Y-37159415D01*
X49963438Y-37154815D01*
X49963338Y-37153822D01*
X50824643Y-37153822D01*
X50836000Y-37155080D01*
X50847005Y-37153964D01*
X50846000Y-37151043D01*
X50842379Y-37149986D01*
X50826000Y-37151043D01*
X50824643Y-37153822D01*
X49963338Y-37153822D01*
X49962721Y-37147713D01*
X49960236Y-37143506D01*
X50782167Y-37143506D01*
X50782291Y-37146237D01*
X50792667Y-37147709D01*
X50800531Y-37146427D01*
X50797500Y-37142874D01*
X50792874Y-37141595D01*
X50782167Y-37143506D01*
X49960236Y-37143506D01*
X49959021Y-37141450D01*
X49956874Y-37137817D01*
X50736643Y-37137817D01*
X50748000Y-37139075D01*
X50759005Y-37137959D01*
X50758000Y-37135038D01*
X50754379Y-37133981D01*
X50738000Y-37135038D01*
X50736643Y-37137817D01*
X49956874Y-37137817D01*
X49956000Y-37136337D01*
X49949999Y-37133207D01*
X49949806Y-37137229D01*
X49927045Y-37137229D01*
X49923640Y-37127501D01*
X50686167Y-37127501D01*
X50686291Y-37130232D01*
X50696667Y-37131704D01*
X50704531Y-37130422D01*
X50701500Y-37126869D01*
X50696874Y-37125590D01*
X50686167Y-37127501D01*
X49923640Y-37127501D01*
X49923418Y-37126867D01*
X49921334Y-37121265D01*
X49913334Y-37099760D01*
X49912056Y-37096324D01*
X49932246Y-37096324D01*
X49933231Y-37101742D01*
X49940000Y-37116331D01*
X49944454Y-37121763D01*
X49945280Y-37121405D01*
X50661416Y-37121405D01*
X50668000Y-37124333D01*
X50672236Y-37123755D01*
X50673334Y-37118998D01*
X50672161Y-37118040D01*
X50662667Y-37118998D01*
X50661416Y-37121405D01*
X49945280Y-37121405D01*
X49947755Y-37120332D01*
X49946770Y-37114914D01*
X49945570Y-37112329D01*
X50644000Y-37112329D01*
X50648000Y-37116331D01*
X50652000Y-37112329D01*
X50648000Y-37108328D01*
X50644000Y-37112329D01*
X49945570Y-37112329D01*
X49940000Y-37100325D01*
X49937301Y-37097033D01*
X50620648Y-37097033D01*
X50629237Y-37105091D01*
X50633707Y-37107038D01*
X50632764Y-37101562D01*
X50630295Y-37098007D01*
X50623528Y-37092323D01*
X50622410Y-37092401D01*
X50620648Y-37097033D01*
X49937301Y-37097033D01*
X49935547Y-37094893D01*
X49932246Y-37096324D01*
X49912056Y-37096324D01*
X49905334Y-37078255D01*
X49904613Y-37076318D01*
X49924000Y-37076318D01*
X49924578Y-37080554D01*
X49929334Y-37081653D01*
X49930291Y-37080480D01*
X49929334Y-37070983D01*
X49926928Y-37069731D01*
X49924000Y-37076318D01*
X49904613Y-37076318D01*
X49897169Y-37056307D01*
X49895984Y-37052310D01*
X49916000Y-37052310D01*
X49916578Y-37056547D01*
X49921334Y-37057645D01*
X49922291Y-37056472D01*
X49922011Y-37053689D01*
X50572093Y-37053689D01*
X50577283Y-37061283D01*
X50594000Y-37076924D01*
X50616000Y-37096324D01*
X50596606Y-37074317D01*
X50593590Y-37070930D01*
X50581038Y-37057679D01*
X50574606Y-37052310D01*
X50572093Y-37053689D01*
X49922011Y-37053689D01*
X49921334Y-37046975D01*
X49918928Y-37045723D01*
X49916000Y-37052310D01*
X49895984Y-37052310D01*
X49894379Y-37046894D01*
X49889334Y-37029872D01*
X49888869Y-37028303D01*
X49908000Y-37028303D01*
X49908578Y-37032539D01*
X49913334Y-37033638D01*
X49913844Y-37033013D01*
X50556648Y-37033013D01*
X50565237Y-37041071D01*
X50569707Y-37043018D01*
X50568764Y-37037542D01*
X50566295Y-37033987D01*
X50559528Y-37028303D01*
X50558410Y-37028381D01*
X50556648Y-37033013D01*
X49913844Y-37033013D01*
X49914291Y-37032465D01*
X49913334Y-37022968D01*
X49910928Y-37021716D01*
X49910000Y-37023804D01*
X49908000Y-37028303D01*
X49888869Y-37028303D01*
X49879382Y-36996293D01*
X49900000Y-36996293D01*
X49900578Y-37000529D01*
X49905334Y-37001628D01*
X49906291Y-37000455D01*
X49905468Y-36992291D01*
X50532000Y-36992291D01*
X50536000Y-36996293D01*
X50540000Y-36992291D01*
X50536000Y-36988290D01*
X50532000Y-36992291D01*
X49905468Y-36992291D01*
X49905334Y-36990958D01*
X49904000Y-36990264D01*
X49902928Y-36989706D01*
X49900000Y-36996293D01*
X49879382Y-36996293D01*
X49878520Y-36993386D01*
X49875550Y-36976286D01*
X50524000Y-36976286D01*
X50528000Y-36980288D01*
X50532000Y-36976286D01*
X50528000Y-36972285D01*
X50524000Y-36976286D01*
X49875550Y-36976286D01*
X49873466Y-36964283D01*
X49893264Y-36964283D01*
X49894379Y-36975291D01*
X49897299Y-36974286D01*
X49898355Y-36970663D01*
X49897428Y-36956280D01*
X50516000Y-36956280D01*
X50516578Y-36960517D01*
X50521334Y-36961615D01*
X50522291Y-36960442D01*
X50521334Y-36950945D01*
X50518928Y-36949693D01*
X50516000Y-36956280D01*
X49897428Y-36956280D01*
X49897334Y-36954822D01*
X49897299Y-36954279D01*
X49894521Y-36952922D01*
X49893264Y-36964283D01*
X49873466Y-36964283D01*
X49869226Y-36939868D01*
X49869278Y-36932273D01*
X50508000Y-36932273D01*
X50508578Y-36936509D01*
X50513334Y-36937608D01*
X50514291Y-36936435D01*
X50513334Y-36926938D01*
X50510928Y-36925686D01*
X50508000Y-36932273D01*
X49869278Y-36932273D01*
X49869388Y-36916267D01*
X49884000Y-36916267D01*
X49884578Y-36920504D01*
X49889334Y-36921603D01*
X49890291Y-36920430D01*
X49889468Y-36912266D01*
X50500000Y-36912266D01*
X50504000Y-36916267D01*
X50508000Y-36912266D01*
X50504000Y-36908265D01*
X50500000Y-36912266D01*
X49889468Y-36912266D01*
X49889334Y-36910932D01*
X49886928Y-36909681D01*
X49884000Y-36916267D01*
X49869388Y-36916267D01*
X49869543Y-36893742D01*
X49869913Y-36892260D01*
X50492000Y-36892260D01*
X50492578Y-36896496D01*
X50497334Y-36897595D01*
X50498291Y-36896422D01*
X50497334Y-36886925D01*
X50494928Y-36885673D01*
X50492000Y-36892260D01*
X49869913Y-36892260D01*
X49875912Y-36868252D01*
X49892000Y-36868252D01*
X49892578Y-36872489D01*
X49897334Y-36873587D01*
X49898291Y-36872414D01*
X49898275Y-36872254D01*
X50484000Y-36872254D01*
X50488000Y-36876255D01*
X50492000Y-36872254D01*
X50488000Y-36868252D01*
X50484000Y-36872254D01*
X49898275Y-36872254D01*
X49897334Y-36862917D01*
X49894928Y-36861665D01*
X49892000Y-36868252D01*
X49875912Y-36868252D01*
X49879724Y-36852998D01*
X49882305Y-36848246D01*
X49900000Y-36848246D01*
X49904000Y-36852247D01*
X49908000Y-36848246D01*
X50476000Y-36848246D01*
X50480000Y-36852247D01*
X50484000Y-36848246D01*
X50480000Y-36844245D01*
X50476000Y-36848246D01*
X49908000Y-36848246D01*
X49904000Y-36844245D01*
X49900000Y-36848246D01*
X49882305Y-36848246D01*
X49891691Y-36830968D01*
X49908000Y-36830968D01*
X49908079Y-36833034D01*
X49910000Y-36835575D01*
X49910734Y-36834520D01*
X49918734Y-36824376D01*
X49918847Y-36824239D01*
X50468000Y-36824239D01*
X50472000Y-36828240D01*
X50476000Y-36824239D01*
X50472000Y-36820237D01*
X50468000Y-36824239D01*
X49918847Y-36824239D01*
X49932000Y-36808233D01*
X49938666Y-36800231D01*
X50460000Y-36800231D01*
X50464000Y-36804232D01*
X50468000Y-36800231D01*
X50464000Y-36796230D01*
X50460000Y-36800231D01*
X49938666Y-36800231D01*
X49951910Y-36784334D01*
X49956626Y-36784334D01*
X49959021Y-36788227D01*
X49963152Y-36785306D01*
X49967676Y-36780225D01*
X50452000Y-36780225D01*
X50452578Y-36784461D01*
X50457334Y-36785560D01*
X50458291Y-36784387D01*
X50457334Y-36774890D01*
X50454928Y-36773638D01*
X50452000Y-36780225D01*
X49967676Y-36780225D01*
X49973021Y-36774223D01*
X49977490Y-36768424D01*
X49979476Y-36764280D01*
X49970000Y-36771201D01*
X49966903Y-36773696D01*
X49956626Y-36784334D01*
X49951910Y-36784334D01*
X49952000Y-36784226D01*
X49930000Y-36803627D01*
X49927035Y-36806314D01*
X49913501Y-36820879D01*
X49908000Y-36830968D01*
X49891691Y-36830968D01*
X49900025Y-36815627D01*
X49930699Y-36779619D01*
X49953037Y-36759794D01*
X49990764Y-36759794D01*
X49998197Y-36756217D01*
X50444000Y-36756217D01*
X50444578Y-36760454D01*
X50449334Y-36761552D01*
X50450291Y-36760379D01*
X50449334Y-36750882D01*
X50446928Y-36749630D01*
X50444000Y-36756217D01*
X49998197Y-36756217D01*
X49998750Y-36755951D01*
X50014631Y-36744715D01*
X50023267Y-36737976D01*
X50038493Y-36724869D01*
X50043432Y-36718680D01*
X50037532Y-36720654D01*
X50020242Y-36732037D01*
X50017776Y-36733821D01*
X50000825Y-36747540D01*
X49990873Y-36758042D01*
X49990764Y-36759794D01*
X49953037Y-36759794D01*
X49972000Y-36742964D01*
X50010382Y-36710375D01*
X50018003Y-36702488D01*
X50429244Y-36702488D01*
X50430001Y-36711242D01*
X50436000Y-36728208D01*
X50441032Y-36736995D01*
X50443316Y-36732210D01*
X50442634Y-36725285D01*
X50436000Y-36708202D01*
X50433728Y-36704965D01*
X50429244Y-36702488D01*
X50018003Y-36702488D01*
X50030901Y-36689140D01*
X50060000Y-36689140D01*
X50060521Y-36690235D01*
X50068000Y-36688196D01*
X50070369Y-36686552D01*
X50076000Y-36679249D01*
X50075480Y-36678154D01*
X50068000Y-36680193D01*
X50065632Y-36681837D01*
X50060000Y-36689140D01*
X50030901Y-36689140D01*
X50041981Y-36677674D01*
X50042953Y-36676192D01*
X50420000Y-36676192D01*
X50420578Y-36680428D01*
X50425334Y-36681527D01*
X50426291Y-36680354D01*
X50425334Y-36670857D01*
X50422928Y-36669605D01*
X50420000Y-36676192D01*
X50042953Y-36676192D01*
X50050830Y-36664188D01*
X50076000Y-36664188D01*
X50080000Y-36668189D01*
X50084000Y-36664188D01*
X50080000Y-36660187D01*
X50076000Y-36664188D01*
X50050830Y-36664188D01*
X50061331Y-36648183D01*
X50084000Y-36648183D01*
X50088000Y-36652184D01*
X50412000Y-36652184D01*
X50412578Y-36656421D01*
X50417334Y-36657519D01*
X50418291Y-36656346D01*
X50417334Y-36646849D01*
X50414928Y-36645597D01*
X50412000Y-36652184D01*
X50088000Y-36652184D01*
X50092000Y-36648183D01*
X50088000Y-36644182D01*
X50084000Y-36648183D01*
X50061331Y-36648183D01*
X50063231Y-36645287D01*
X50067891Y-36632178D01*
X50092000Y-36632178D01*
X50096000Y-36636179D01*
X50100000Y-36632178D01*
X50096000Y-36628177D01*
X50404000Y-36628177D01*
X50404578Y-36632413D01*
X50409334Y-36633512D01*
X50410291Y-36632339D01*
X50409334Y-36622842D01*
X50406928Y-36621590D01*
X50404000Y-36628177D01*
X50096000Y-36628177D01*
X50092000Y-36632178D01*
X50067891Y-36632178D01*
X50076044Y-36609243D01*
X50076774Y-36604169D01*
X50100000Y-36604169D01*
X50100578Y-36608406D01*
X50105334Y-36609504D01*
X50106291Y-36608331D01*
X50106275Y-36608170D01*
X50396000Y-36608170D01*
X50400000Y-36612172D01*
X50404000Y-36608170D01*
X50400000Y-36604169D01*
X50396000Y-36608170D01*
X50106275Y-36608170D01*
X50105334Y-36598834D01*
X50103196Y-36597721D01*
X50102928Y-36597582D01*
X50100000Y-36604169D01*
X50076774Y-36604169D01*
X50078502Y-36592165D01*
X50388000Y-36592165D01*
X50392000Y-36596167D01*
X50396000Y-36592165D01*
X50392000Y-36588164D01*
X50388000Y-36592165D01*
X50078502Y-36592165D01*
X50080806Y-36576160D01*
X50380000Y-36576160D01*
X50384000Y-36580162D01*
X50388000Y-36576160D01*
X50384000Y-36572159D01*
X50380000Y-36576160D01*
X50080806Y-36576160D01*
X50082330Y-36565574D01*
X50083584Y-36524068D01*
X50357414Y-36524068D01*
X50358730Y-36530362D01*
X50368000Y-36548152D01*
X50368369Y-36548791D01*
X50376282Y-36559912D01*
X50379717Y-36559684D01*
X50377323Y-36551009D01*
X50368255Y-36535677D01*
X50364032Y-36530299D01*
X50357414Y-36524068D01*
X50083584Y-36524068D01*
X50084000Y-36510308D01*
X50084041Y-36498494D01*
X50084754Y-36476129D01*
X50101857Y-36476129D01*
X50101934Y-36481558D01*
X50103196Y-36492624D01*
X50105515Y-36490133D01*
X50106759Y-36482421D01*
X50105515Y-36462124D01*
X50104831Y-36460048D01*
X50325414Y-36460048D01*
X50326730Y-36466342D01*
X50336000Y-36484131D01*
X50336369Y-36484771D01*
X50344282Y-36495892D01*
X50347717Y-36495664D01*
X50345323Y-36486989D01*
X50336255Y-36471656D01*
X50332032Y-36466279D01*
X50325414Y-36460048D01*
X50104831Y-36460048D01*
X50104767Y-36459854D01*
X50102691Y-36461570D01*
X50101857Y-36476129D01*
X50084754Y-36476129D01*
X50085521Y-36452072D01*
X50086012Y-36448120D01*
X50316000Y-36448120D01*
X50320000Y-36452121D01*
X50324000Y-36448120D01*
X50320000Y-36444119D01*
X50316000Y-36448120D01*
X50086012Y-36448120D01*
X50089750Y-36418039D01*
X50090365Y-36416110D01*
X50108000Y-36416110D01*
X50112000Y-36420111D01*
X50114656Y-36417454D01*
X50293563Y-36417454D01*
X50306000Y-36429135D01*
X50311797Y-36433605D01*
X50315940Y-36435592D01*
X50309021Y-36426113D01*
X50301699Y-36417577D01*
X50296000Y-36412911D01*
X50295021Y-36412109D01*
X50293617Y-36412240D01*
X50293563Y-36417454D01*
X50114656Y-36417454D01*
X50116000Y-36416110D01*
X50112000Y-36412109D01*
X50108000Y-36416110D01*
X50090365Y-36416110D01*
X50094673Y-36402586D01*
X50116000Y-36402586D01*
X50120412Y-36401344D01*
X50132000Y-36392102D01*
X50142743Y-36381335D01*
X50148000Y-36373617D01*
X50143589Y-36374858D01*
X50132000Y-36384100D01*
X50121258Y-36394867D01*
X50116000Y-36402586D01*
X50094673Y-36402586D01*
X50097570Y-36393492D01*
X50109827Y-36375528D01*
X50118954Y-36368095D01*
X50164000Y-36368095D01*
X50168000Y-36372096D01*
X50172000Y-36368095D01*
X50169378Y-36365472D01*
X50252093Y-36365472D01*
X50257283Y-36373067D01*
X50274000Y-36388707D01*
X50296000Y-36408107D01*
X50276606Y-36386101D01*
X50273590Y-36382713D01*
X50261038Y-36369462D01*
X50254606Y-36364094D01*
X50252093Y-36365472D01*
X50169378Y-36365472D01*
X50168000Y-36364094D01*
X50164000Y-36368095D01*
X50118954Y-36368095D01*
X50126963Y-36361572D01*
X50192643Y-36361572D01*
X50204000Y-36362830D01*
X50215005Y-36361715D01*
X50214816Y-36361166D01*
X50229416Y-36361166D01*
X50236000Y-36364094D01*
X50240236Y-36363516D01*
X50241334Y-36358759D01*
X50240161Y-36357801D01*
X50230667Y-36358759D01*
X50229416Y-36361166D01*
X50214816Y-36361166D01*
X50214000Y-36358794D01*
X50210379Y-36357737D01*
X50194000Y-36358794D01*
X50192643Y-36361572D01*
X50126963Y-36361572D01*
X50127365Y-36361245D01*
X50128435Y-36360554D01*
X50157913Y-36346938D01*
X50192569Y-36338287D01*
X50226089Y-36335670D01*
X50252161Y-36340152D01*
X50265098Y-36347606D01*
X50290960Y-36372063D01*
X50319283Y-36409161D01*
X50349053Y-36457070D01*
X50379259Y-36513959D01*
X50408888Y-36577998D01*
X50436928Y-36647357D01*
X50462367Y-36720206D01*
X50489774Y-36803060D01*
X50515795Y-36875938D01*
X50539740Y-36935858D01*
X50562313Y-36984183D01*
X50584222Y-37022280D01*
X50606172Y-37051513D01*
X50628869Y-37073247D01*
X50653020Y-37088849D01*
X50671949Y-37095816D01*
X50705445Y-37104129D01*
X50749374Y-37112688D01*
X50800836Y-37121061D01*
X50856929Y-37128817D01*
X50914755Y-37135523D01*
X50971412Y-37140748D01*
X51024000Y-37144061D01*
X51027961Y-37144243D01*
X51081605Y-37147565D01*
X51139276Y-37152430D01*
X51194299Y-37158213D01*
X51240000Y-37164289D01*
X51276519Y-37170111D01*
X51319703Y-37176930D01*
X51352287Y-37180578D01*
X51377470Y-37179987D01*
X51398445Y-37174092D01*
X51418411Y-37161826D01*
X51440561Y-37142122D01*
X51468094Y-37113915D01*
X51504205Y-37076138D01*
X51526452Y-37052735D01*
X51578252Y-36994578D01*
X51626120Y-36934705D01*
X51672471Y-36869809D01*
X51719718Y-36796582D01*
X51770277Y-36711717D01*
X51791053Y-36677569D01*
X51815772Y-36639763D01*
X51838372Y-36607684D01*
X51845381Y-36598105D01*
X51888617Y-36530898D01*
X51932190Y-36449127D01*
X51976480Y-36352090D01*
X51999707Y-36296801D01*
X52018813Y-36248413D01*
X52032836Y-36207947D01*
X52042694Y-36172022D01*
X52049306Y-36137258D01*
X52053590Y-36100272D01*
X52056466Y-36057683D01*
X52057321Y-36041136D01*
X52058799Y-36003419D01*
X52058608Y-35976417D01*
X52056415Y-35956255D01*
X52051884Y-35939052D01*
X52044682Y-35920933D01*
X52027694Y-35881899D01*
X52009334Y-35882717D01*
X52001334Y-35883074D01*
X51989913Y-35883583D01*
X51984219Y-35883837D01*
X51937847Y-35885903D01*
X51925635Y-35886306D01*
X51885826Y-35886632D01*
X51844000Y-35886218D01*
X51832905Y-35886108D01*
X51768894Y-35884802D01*
X51704000Y-35883011D01*
X51695812Y-35882785D01*
X51640000Y-35880934D01*
X51615681Y-35880128D01*
X51568000Y-35878320D01*
X51530521Y-35876899D01*
X51528000Y-35876792D01*
X51442352Y-35873168D01*
X51440667Y-35873089D01*
X51380000Y-35870258D01*
X51353195Y-35869007D01*
X51343758Y-35868523D01*
X51320000Y-35867304D01*
X51312000Y-35866893D01*
X51265071Y-35864484D01*
X51244902Y-35863343D01*
X51782305Y-35863343D01*
X51790315Y-35864133D01*
X51811311Y-35864661D01*
X51844000Y-35864853D01*
X51856007Y-35864832D01*
X51884978Y-35864520D01*
X51901830Y-35863898D01*
X51905269Y-35863037D01*
X51894000Y-35862012D01*
X51873599Y-35861206D01*
X51860000Y-35861105D01*
X51832040Y-35860897D01*
X51794000Y-35862012D01*
X51788574Y-35862364D01*
X51782305Y-35863343D01*
X51244902Y-35863343D01*
X51244000Y-35863292D01*
X51209334Y-35861330D01*
X51200000Y-35860802D01*
X51193334Y-35860425D01*
X51184000Y-35859896D01*
X51180000Y-35859670D01*
X51176000Y-35859416D01*
X51168461Y-35858936D01*
X51127542Y-35856333D01*
X51124000Y-35856037D01*
X51123126Y-35855964D01*
X51533094Y-35855964D01*
X51544647Y-35856956D01*
X51568000Y-35857309D01*
X51574835Y-35857275D01*
X51594538Y-35856704D01*
X51599225Y-35855934D01*
X51636000Y-35855934D01*
X51640000Y-35859935D01*
X51644000Y-35855934D01*
X51640000Y-35851932D01*
X52004000Y-35851932D01*
X52004578Y-35856169D01*
X52009334Y-35857267D01*
X52010291Y-35856094D01*
X52009334Y-35846597D01*
X52006928Y-35845345D01*
X52004000Y-35851932D01*
X51640000Y-35851932D01*
X51636000Y-35855934D01*
X51599225Y-35855934D01*
X51601392Y-35855578D01*
X51593822Y-35854095D01*
X51592753Y-35853987D01*
X51564277Y-35852816D01*
X51537822Y-35854159D01*
X51535226Y-35854528D01*
X51533094Y-35855964D01*
X51123126Y-35855964D01*
X51095196Y-35853630D01*
X51089334Y-35853140D01*
X51080000Y-35852360D01*
X51078180Y-35852208D01*
X51072000Y-35851378D01*
X51064000Y-35850303D01*
X51045960Y-35847880D01*
X51348236Y-35847880D01*
X51358022Y-35848961D01*
X51380000Y-35849371D01*
X51383291Y-35849364D01*
X51403871Y-35848860D01*
X51412038Y-35847712D01*
X51406000Y-35846143D01*
X51400667Y-35845848D01*
X51382053Y-35844819D01*
X51368000Y-35845482D01*
X51354000Y-35846143D01*
X51352436Y-35846351D01*
X51348236Y-35847880D01*
X51045960Y-35847880D01*
X51040249Y-35847113D01*
X51015758Y-35841291D01*
X51011276Y-35840225D01*
X51010455Y-35839878D01*
X51212236Y-35839878D01*
X51222022Y-35840959D01*
X51244000Y-35841368D01*
X51247291Y-35841362D01*
X51267871Y-35840858D01*
X51276038Y-35839710D01*
X51270000Y-35838141D01*
X51256000Y-35837366D01*
X51248461Y-35836949D01*
X51246053Y-35836816D01*
X51218000Y-35838141D01*
X51217334Y-35838229D01*
X51216436Y-35838348D01*
X51212236Y-35839878D01*
X51010455Y-35839878D01*
X51000000Y-35835459D01*
X50991643Y-35831926D01*
X51060000Y-35831926D01*
X51064000Y-35835927D01*
X51068000Y-35831926D01*
X51067601Y-35831527D01*
X51101948Y-35831527D01*
X51106698Y-35833123D01*
X51124000Y-35833748D01*
X51135741Y-35833514D01*
X51145792Y-35832259D01*
X51145334Y-35832020D01*
X51142000Y-35830280D01*
X51133913Y-35829436D01*
X51129312Y-35828956D01*
X51126998Y-35829087D01*
X51118379Y-35829577D01*
X51110379Y-35830031D01*
X51106000Y-35830280D01*
X51102379Y-35831394D01*
X51101948Y-35831527D01*
X51067601Y-35831527D01*
X51064145Y-35828070D01*
X51064000Y-35827925D01*
X51060000Y-35831926D01*
X50991643Y-35831926D01*
X50988790Y-35830720D01*
X50970320Y-35817775D01*
X50969186Y-35816622D01*
X51004262Y-35816622D01*
X51012533Y-35824252D01*
X51015758Y-35825855D01*
X51024878Y-35825713D01*
X51025058Y-35823052D01*
X51020429Y-35819922D01*
X51996000Y-35819922D01*
X51996578Y-35824159D01*
X52001334Y-35825257D01*
X52002291Y-35824084D01*
X52001334Y-35814587D01*
X51998928Y-35813335D01*
X51996000Y-35819922D01*
X51020429Y-35819922D01*
X51016346Y-35817161D01*
X51010095Y-35815218D01*
X51004262Y-35816622D01*
X50969186Y-35816622D01*
X50953393Y-35800568D01*
X50935539Y-35778276D01*
X50932413Y-35774384D01*
X50931360Y-35773286D01*
X50956093Y-35773286D01*
X50961283Y-35780880D01*
X50978000Y-35796520D01*
X51000000Y-35815921D01*
X50980606Y-35793914D01*
X50979418Y-35792580D01*
X51988632Y-35792580D01*
X51989913Y-35800446D01*
X51993465Y-35797415D01*
X51994744Y-35792787D01*
X51992834Y-35782077D01*
X51992597Y-35782088D01*
X51990103Y-35782201D01*
X51988632Y-35792580D01*
X50979418Y-35792580D01*
X50977590Y-35790527D01*
X50965038Y-35777275D01*
X50960000Y-35773070D01*
X50958606Y-35771907D01*
X50956093Y-35773286D01*
X50931360Y-35773286D01*
X50911169Y-35752234D01*
X50880083Y-35724085D01*
X50865707Y-35712131D01*
X50841937Y-35692366D01*
X50840000Y-35690866D01*
X50839889Y-35690780D01*
X50833416Y-35685766D01*
X50876548Y-35685766D01*
X50881505Y-35692452D01*
X50894728Y-35705931D01*
X50918000Y-35728194D01*
X50960000Y-35767906D01*
X50921567Y-35727233D01*
X50920301Y-35725893D01*
X50917927Y-35723384D01*
X50912000Y-35717228D01*
X50898674Y-35703386D01*
X50887137Y-35691882D01*
X51982561Y-35691882D01*
X51982568Y-35695173D01*
X51983072Y-35715760D01*
X51984219Y-35723930D01*
X51985788Y-35717890D01*
X51987112Y-35693935D01*
X51985788Y-35665874D01*
X51985580Y-35664308D01*
X51984051Y-35660107D01*
X51982971Y-35669896D01*
X51982561Y-35691882D01*
X50887137Y-35691882D01*
X50884491Y-35689243D01*
X50878301Y-35683879D01*
X50878076Y-35683883D01*
X50876548Y-35685766D01*
X50833416Y-35685766D01*
X50816398Y-35672585D01*
X50852648Y-35672585D01*
X50861237Y-35680642D01*
X50865707Y-35682589D01*
X50864764Y-35677113D01*
X50862295Y-35673558D01*
X50855528Y-35667874D01*
X50854576Y-35667940D01*
X50854410Y-35667952D01*
X50852648Y-35672585D01*
X50816398Y-35672585D01*
X50799513Y-35659507D01*
X50777707Y-35642765D01*
X50754945Y-35625289D01*
X50752508Y-35623242D01*
X50788000Y-35623242D01*
X50790714Y-35627142D01*
X50802333Y-35636857D01*
X50818091Y-35647864D01*
X50832454Y-35656387D01*
X50839889Y-35658650D01*
X50839784Y-35657386D01*
X50831758Y-35649465D01*
X50815428Y-35637697D01*
X50808629Y-35633349D01*
X50799632Y-35628207D01*
X50793880Y-35624920D01*
X50788000Y-35623242D01*
X50752508Y-35623242D01*
X50752000Y-35622815D01*
X50749043Y-35620331D01*
X51988000Y-35620331D01*
X51988423Y-35624819D01*
X51992597Y-35626706D01*
X51999053Y-35615442D01*
X52000455Y-35609200D01*
X51995909Y-35607912D01*
X51993811Y-35609480D01*
X51988000Y-35620331D01*
X50749043Y-35620331D01*
X50735033Y-35608564D01*
X50764648Y-35608564D01*
X50773237Y-35616622D01*
X50777707Y-35618569D01*
X50776764Y-35613093D01*
X50774295Y-35609538D01*
X50767528Y-35603854D01*
X50767021Y-35603889D01*
X50766410Y-35603932D01*
X50764648Y-35608564D01*
X50735033Y-35608564D01*
X50702329Y-35581095D01*
X50688000Y-35566937D01*
X50671276Y-35550412D01*
X50700486Y-35550412D01*
X50707825Y-35559281D01*
X50726000Y-35576349D01*
X50752000Y-35599853D01*
X50744000Y-35590998D01*
X50737541Y-35583848D01*
X52006667Y-35583848D01*
X52006853Y-35589310D01*
X52008354Y-35595852D01*
X52011044Y-35593754D01*
X52020000Y-35583848D01*
X52020604Y-35583115D01*
X52025704Y-35574061D01*
X52018313Y-35571844D01*
X52012890Y-35573234D01*
X52006667Y-35583848D01*
X50737541Y-35583848D01*
X50730311Y-35575845D01*
X51636000Y-35575845D01*
X51640000Y-35579847D01*
X51644000Y-35575845D01*
X51700000Y-35575845D01*
X51704000Y-35579847D01*
X51708000Y-35575845D01*
X51706960Y-35574805D01*
X51774513Y-35574805D01*
X51776459Y-35575508D01*
X51792085Y-35576062D01*
X51820296Y-35576425D01*
X51860000Y-35576555D01*
X51865489Y-35576553D01*
X51903833Y-35576392D01*
X51930549Y-35576003D01*
X51944544Y-35575429D01*
X51944726Y-35574710D01*
X51930000Y-35573888D01*
X51928705Y-35573840D01*
X51884047Y-35572900D01*
X51834302Y-35572916D01*
X51790000Y-35573888D01*
X51787338Y-35573994D01*
X51774513Y-35574805D01*
X51706960Y-35574805D01*
X51704000Y-35571844D01*
X51700000Y-35575845D01*
X51644000Y-35575845D01*
X51640000Y-35571844D01*
X51636000Y-35575845D01*
X50730311Y-35575845D01*
X50728504Y-35573845D01*
X50728000Y-35573295D01*
X50722565Y-35567368D01*
X51507286Y-35567368D01*
X51511536Y-35569182D01*
X51528000Y-35569826D01*
X51536726Y-35569618D01*
X51546341Y-35568292D01*
X51541907Y-35566184D01*
X51529119Y-35564855D01*
X51509907Y-35566346D01*
X51507286Y-35567368D01*
X50722565Y-35567368D01*
X50721947Y-35566694D01*
X50721334Y-35566062D01*
X50714496Y-35559007D01*
X51430167Y-35559007D01*
X51430291Y-35561738D01*
X51440667Y-35563210D01*
X51448531Y-35561928D01*
X51445500Y-35558375D01*
X51440874Y-35557096D01*
X51430167Y-35559007D01*
X50714496Y-35559007D01*
X50708861Y-35553194D01*
X50706263Y-35551004D01*
X51390167Y-35551004D01*
X51390291Y-35553736D01*
X51400667Y-35555207D01*
X51408531Y-35553926D01*
X51405500Y-35550372D01*
X51400874Y-35549094D01*
X51390167Y-35551004D01*
X50706263Y-35551004D01*
X50702504Y-35547836D01*
X50702414Y-35547837D01*
X50700486Y-35550412D01*
X50671276Y-35550412D01*
X50664619Y-35543835D01*
X51364000Y-35543835D01*
X51368000Y-35547836D01*
X51372000Y-35543835D01*
X51368000Y-35539834D01*
X51364000Y-35543835D01*
X50664619Y-35543835D01*
X50661231Y-35540487D01*
X50649707Y-35526029D01*
X50632454Y-35504383D01*
X50630023Y-35501333D01*
X50629382Y-35500220D01*
X50652702Y-35500220D01*
X50654884Y-35506399D01*
X50670000Y-35520588D01*
X50688000Y-35535833D01*
X50681820Y-35528531D01*
X51332262Y-35528531D01*
X51340533Y-35536162D01*
X51343758Y-35537764D01*
X51352878Y-35537623D01*
X51353058Y-35534962D01*
X51344346Y-35529070D01*
X51338095Y-35527127D01*
X51332262Y-35528531D01*
X50681820Y-35528531D01*
X50672761Y-35517827D01*
X50661294Y-35505218D01*
X50654761Y-35499821D01*
X50652702Y-35500220D01*
X50629382Y-35500220D01*
X50618037Y-35480524D01*
X50636648Y-35480524D01*
X50645237Y-35488582D01*
X50649707Y-35490529D01*
X50648764Y-35485053D01*
X50646576Y-35481903D01*
X50646295Y-35481498D01*
X50639528Y-35475814D01*
X50638410Y-35475892D01*
X50636648Y-35480524D01*
X50618037Y-35480524D01*
X50617334Y-35479304D01*
X50612198Y-35470387D01*
X51260486Y-35470387D01*
X51267825Y-35479256D01*
X51286000Y-35496324D01*
X51312000Y-35519828D01*
X51316000Y-35519828D01*
X51320000Y-35523829D01*
X51324000Y-35519828D01*
X51320000Y-35515826D01*
X51316000Y-35519828D01*
X51312000Y-35519828D01*
X51288504Y-35493819D01*
X51281947Y-35486669D01*
X51268861Y-35473169D01*
X51262504Y-35467811D01*
X51262414Y-35467812D01*
X51260486Y-35470387D01*
X50612198Y-35470387D01*
X50607080Y-35461502D01*
X50605913Y-35458450D01*
X50598998Y-35440367D01*
X50598782Y-35439802D01*
X50620246Y-35439802D01*
X50621231Y-35445220D01*
X50628000Y-35459809D01*
X50632454Y-35465242D01*
X50635755Y-35463810D01*
X50634770Y-35458392D01*
X50633571Y-35455808D01*
X51252000Y-35455808D01*
X51256000Y-35459809D01*
X51260000Y-35455808D01*
X51256000Y-35451806D01*
X51252000Y-35455808D01*
X50633571Y-35455808D01*
X50628000Y-35443804D01*
X50623547Y-35438371D01*
X50620246Y-35439802D01*
X50598782Y-35439802D01*
X50591132Y-35419796D01*
X50612000Y-35419796D01*
X50612578Y-35424033D01*
X50617334Y-35425131D01*
X50618291Y-35423958D01*
X50617334Y-35414461D01*
X50614928Y-35413209D01*
X50614264Y-35414703D01*
X50612000Y-35419796D01*
X50591132Y-35419796D01*
X50590774Y-35418861D01*
X50584504Y-35392454D01*
X50604632Y-35392454D01*
X50605913Y-35400320D01*
X50609465Y-35397289D01*
X50610744Y-35392661D01*
X50610707Y-35392454D01*
X51220321Y-35392454D01*
X51220406Y-35393341D01*
X51224779Y-35405963D01*
X51233215Y-35422783D01*
X51242261Y-35437498D01*
X51248461Y-35443804D01*
X51248781Y-35442288D01*
X51245138Y-35431470D01*
X51237858Y-35415055D01*
X51229591Y-35398798D01*
X51222983Y-35388453D01*
X51222294Y-35387877D01*
X51220321Y-35392454D01*
X50610707Y-35392454D01*
X50609334Y-35384755D01*
X50608834Y-35381951D01*
X50606103Y-35382075D01*
X50604632Y-35392454D01*
X50584504Y-35392454D01*
X50579596Y-35371781D01*
X51212000Y-35371781D01*
X51212578Y-35376018D01*
X51217334Y-35377116D01*
X51218291Y-35375943D01*
X51217334Y-35366446D01*
X51214928Y-35365194D01*
X51212000Y-35371781D01*
X50579596Y-35371781D01*
X50579477Y-35371280D01*
X50577309Y-35351775D01*
X50597560Y-35351775D01*
X50597613Y-35354260D01*
X50598998Y-35364889D01*
X50601544Y-35361626D01*
X50602831Y-35353505D01*
X50602260Y-35347773D01*
X51204000Y-35347773D01*
X51204578Y-35352010D01*
X51209334Y-35353108D01*
X51210291Y-35351936D01*
X51209334Y-35342438D01*
X51206928Y-35341186D01*
X51204000Y-35347773D01*
X50602260Y-35347773D01*
X50601248Y-35337618D01*
X50600929Y-35336905D01*
X50598425Y-35338108D01*
X50598379Y-35338835D01*
X50597560Y-35351775D01*
X50577309Y-35351775D01*
X50574641Y-35327767D01*
X51196000Y-35327767D01*
X51200000Y-35331768D01*
X51204000Y-35327767D01*
X51200000Y-35323766D01*
X51196000Y-35327767D01*
X50574641Y-35327767D01*
X50573984Y-35321859D01*
X50576159Y-35299758D01*
X50597264Y-35299758D01*
X50598379Y-35310767D01*
X50601299Y-35309762D01*
X50602355Y-35306139D01*
X50601944Y-35299758D01*
X51188000Y-35299758D01*
X51188578Y-35303995D01*
X51193334Y-35305093D01*
X51194291Y-35303920D01*
X51193334Y-35294423D01*
X51190928Y-35293171D01*
X51188000Y-35299758D01*
X50601944Y-35299758D01*
X50601299Y-35289755D01*
X50598521Y-35288398D01*
X50597264Y-35299758D01*
X50576159Y-35299758D01*
X50578900Y-35271913D01*
X50578965Y-35271750D01*
X51180000Y-35271750D01*
X51184000Y-35275751D01*
X51188000Y-35271750D01*
X51184000Y-35267748D01*
X51180000Y-35271750D01*
X50578965Y-35271750D01*
X50583778Y-35259746D01*
X50604000Y-35259746D01*
X50604578Y-35263982D01*
X50609334Y-35265081D01*
X50610291Y-35263908D01*
X50609334Y-35254411D01*
X50606928Y-35253159D01*
X50604000Y-35259746D01*
X50583778Y-35259746D01*
X50588590Y-35247742D01*
X51172000Y-35247742D01*
X51176000Y-35251743D01*
X51180000Y-35247742D01*
X51176000Y-35243741D01*
X51172000Y-35247742D01*
X50588590Y-35247742D01*
X50592475Y-35238052D01*
X50612000Y-35238052D01*
X50612109Y-35240444D01*
X50614264Y-35243074D01*
X50618437Y-35237225D01*
X50628264Y-35223734D01*
X50634043Y-35215674D01*
X50635357Y-35211893D01*
X50626000Y-35218712D01*
X50617668Y-35226901D01*
X50612000Y-35238052D01*
X50592475Y-35238052D01*
X50596812Y-35227235D01*
X50622159Y-35193222D01*
X50644000Y-35193222D01*
X50644001Y-35193311D01*
X50646576Y-35195240D01*
X50655441Y-35187899D01*
X50670501Y-35171851D01*
X51148968Y-35171851D01*
X51152062Y-35187378D01*
X51159712Y-35207729D01*
X51161763Y-35212099D01*
X51168461Y-35223721D01*
X51170418Y-35222296D01*
X51167607Y-35209679D01*
X51160000Y-35187723D01*
X51157479Y-35181524D01*
X51151485Y-35170376D01*
X51148970Y-35171718D01*
X51148968Y-35171851D01*
X50670501Y-35171851D01*
X50672504Y-35169717D01*
X50696000Y-35143709D01*
X50695288Y-35144353D01*
X50670000Y-35167213D01*
X50662852Y-35173772D01*
X50649356Y-35186862D01*
X50644000Y-35193222D01*
X50622159Y-35193222D01*
X50628557Y-35184636D01*
X50634479Y-35178100D01*
X50659275Y-35148483D01*
X50664967Y-35139708D01*
X51140000Y-35139708D01*
X51140578Y-35143944D01*
X51145334Y-35145043D01*
X51146291Y-35143870D01*
X51145334Y-35134373D01*
X51142928Y-35133121D01*
X51140000Y-35139708D01*
X50664967Y-35139708D01*
X50667811Y-35135323D01*
X50695274Y-35135323D01*
X50695288Y-35138013D01*
X50703559Y-35128175D01*
X50710412Y-35117464D01*
X50712676Y-35112366D01*
X51132632Y-35112366D01*
X51133913Y-35120232D01*
X51137465Y-35117201D01*
X51138744Y-35112573D01*
X51136834Y-35101863D01*
X51134103Y-35101987D01*
X51132632Y-35112366D01*
X50712676Y-35112366D01*
X50715645Y-35105680D01*
X50717099Y-35098334D01*
X50713084Y-35100362D01*
X50708609Y-35107879D01*
X50700643Y-35123703D01*
X50695274Y-35135323D01*
X50667811Y-35135323D01*
X50676937Y-35121253D01*
X50688644Y-35092743D01*
X50690519Y-35083690D01*
X50716000Y-35083690D01*
X50716578Y-35087927D01*
X50721334Y-35089025D01*
X50722291Y-35087852D01*
X50721334Y-35078355D01*
X50719551Y-35077427D01*
X50718928Y-35077103D01*
X50716000Y-35083690D01*
X50690519Y-35083690D01*
X50695575Y-35059282D01*
X50695860Y-35055681D01*
X51125560Y-35055681D01*
X51125613Y-35058167D01*
X51126998Y-35068796D01*
X51129544Y-35065532D01*
X51130831Y-35057411D01*
X51129248Y-35041525D01*
X51128929Y-35040811D01*
X51126425Y-35042015D01*
X51125560Y-35055681D01*
X50695860Y-35055681D01*
X50697762Y-35031674D01*
X50724000Y-35031674D01*
X50728000Y-35035675D01*
X50732000Y-35031674D01*
X50728000Y-35027673D01*
X50725913Y-35029761D01*
X50724000Y-35031674D01*
X50697762Y-35031674D01*
X50698909Y-35017203D01*
X50699193Y-35000331D01*
X50724632Y-35000331D01*
X50725913Y-35008197D01*
X50729465Y-35005166D01*
X50729880Y-35003665D01*
X51117264Y-35003665D01*
X51118379Y-35014674D01*
X51121299Y-35013668D01*
X51122355Y-35010046D01*
X51121299Y-34993662D01*
X51118521Y-34992304D01*
X51117264Y-35003665D01*
X50729880Y-35003665D01*
X50730744Y-35000538D01*
X50728834Y-34989827D01*
X50728597Y-34989838D01*
X50726103Y-34989951D01*
X50724632Y-35000331D01*
X50699193Y-35000331D01*
X50699825Y-34962835D01*
X50699945Y-34947647D01*
X51109264Y-34947647D01*
X51110379Y-34958656D01*
X51113299Y-34957651D01*
X51114355Y-34954028D01*
X51113299Y-34937644D01*
X51110521Y-34936287D01*
X51109264Y-34947647D01*
X50699945Y-34947647D01*
X50700086Y-34929877D01*
X50701261Y-34903634D01*
X50718018Y-34903634D01*
X50718225Y-34912361D01*
X50719551Y-34921980D01*
X50721659Y-34917545D01*
X50722987Y-34904752D01*
X50721497Y-34885535D01*
X50720475Y-34882913D01*
X50718662Y-34887164D01*
X50718018Y-34903634D01*
X50701261Y-34903634D01*
X50702031Y-34886443D01*
X50703718Y-34875625D01*
X51101264Y-34875625D01*
X51102379Y-34886633D01*
X51105299Y-34885628D01*
X51106355Y-34882006D01*
X51105299Y-34865622D01*
X51102521Y-34864264D01*
X51101264Y-34875625D01*
X50703718Y-34875625D01*
X50707126Y-34853773D01*
X50707776Y-34852089D01*
X50724000Y-34852089D01*
X50724423Y-34856577D01*
X50728597Y-34858464D01*
X50735053Y-34847200D01*
X50736455Y-34840958D01*
X50731909Y-34839670D01*
X50729811Y-34841238D01*
X50724000Y-34852089D01*
X50707776Y-34852089D01*
X50716829Y-34828616D01*
X50720608Y-34823608D01*
X50740000Y-34823608D01*
X50744000Y-34827610D01*
X50748000Y-34823608D01*
X50744000Y-34819607D01*
X50740000Y-34823608D01*
X50720608Y-34823608D01*
X50732594Y-34807722D01*
X50732606Y-34807712D01*
X50764626Y-34807712D01*
X50767021Y-34811605D01*
X50771152Y-34808683D01*
X50781021Y-34797600D01*
X50785490Y-34791802D01*
X50787476Y-34787658D01*
X50778000Y-34794579D01*
X50774903Y-34797074D01*
X50764626Y-34807712D01*
X50732606Y-34807712D01*
X50755878Y-34787842D01*
X50761250Y-34784159D01*
X50796000Y-34784159D01*
X50799632Y-34784746D01*
X50812000Y-34779595D01*
X51093857Y-34779595D01*
X51093934Y-34785024D01*
X51095196Y-34796090D01*
X51097515Y-34793599D01*
X51098759Y-34785886D01*
X51097515Y-34765590D01*
X51096767Y-34763320D01*
X51094691Y-34765035D01*
X51093857Y-34779595D01*
X50812000Y-34779595D01*
X50821868Y-34773455D01*
X50828000Y-34767028D01*
X50824369Y-34766441D01*
X50812000Y-34771592D01*
X50802133Y-34777732D01*
X50796000Y-34784159D01*
X50761250Y-34784159D01*
X50788137Y-34765725D01*
X50791165Y-34763746D01*
X50797494Y-34759588D01*
X50836000Y-34759588D01*
X50840000Y-34763589D01*
X50844000Y-34759588D01*
X50840000Y-34755587D01*
X50836000Y-34759588D01*
X50797494Y-34759588D01*
X50807395Y-34753083D01*
X50852000Y-34753083D01*
X50852001Y-34753172D01*
X50854576Y-34755101D01*
X50863441Y-34747760D01*
X50878627Y-34731579D01*
X51084000Y-34731579D01*
X51084578Y-34735816D01*
X51089334Y-34736914D01*
X51090291Y-34735742D01*
X51089334Y-34726244D01*
X51086928Y-34724992D01*
X51084000Y-34731579D01*
X50878627Y-34731579D01*
X50880504Y-34729579D01*
X50904000Y-34703571D01*
X50878000Y-34727075D01*
X50870852Y-34733634D01*
X50857356Y-34746723D01*
X50852000Y-34753083D01*
X50807395Y-34753083D01*
X50818545Y-34745758D01*
X50842150Y-34730102D01*
X50857160Y-34719971D01*
X50862286Y-34715382D01*
X50875592Y-34696386D01*
X50875962Y-34695568D01*
X50900000Y-34695568D01*
X50904000Y-34699569D01*
X50908000Y-34695568D01*
X51076000Y-34695568D01*
X51080000Y-34699569D01*
X51084000Y-34695568D01*
X51080000Y-34691567D01*
X51076000Y-34695568D01*
X50908000Y-34695568D01*
X50904000Y-34691567D01*
X50900000Y-34695568D01*
X50875962Y-34695568D01*
X50886611Y-34672007D01*
X50886808Y-34671560D01*
X50908000Y-34671560D01*
X50912000Y-34675562D01*
X50916000Y-34671560D01*
X51068000Y-34671560D01*
X51072000Y-34675562D01*
X51076000Y-34671560D01*
X51072000Y-34667559D01*
X51068000Y-34671560D01*
X50916000Y-34671560D01*
X50912000Y-34667559D01*
X50908000Y-34671560D01*
X50886808Y-34671560D01*
X50899304Y-34643155D01*
X50921567Y-34643155D01*
X50929563Y-34637800D01*
X50935619Y-34632056D01*
X51045920Y-34632056D01*
X51056255Y-34647082D01*
X51064145Y-34655286D01*
X51068000Y-34654064D01*
X51066100Y-34647881D01*
X51056000Y-34635549D01*
X51048000Y-34629817D01*
X51046427Y-34628690D01*
X51045920Y-34632056D01*
X50935619Y-34632056D01*
X50944707Y-34623436D01*
X50958515Y-34608720D01*
X50970283Y-34594242D01*
X50973208Y-34587932D01*
X51012702Y-34587932D01*
X51014884Y-34594112D01*
X51030000Y-34608301D01*
X51048000Y-34623545D01*
X51032761Y-34605540D01*
X51021294Y-34592931D01*
X51014761Y-34587534D01*
X51012702Y-34587932D01*
X50973208Y-34587932D01*
X50973324Y-34587681D01*
X50967140Y-34590503D01*
X50951234Y-34604174D01*
X50950618Y-34604754D01*
X50933813Y-34622869D01*
X50921972Y-34639441D01*
X50921567Y-34643155D01*
X50899304Y-34643155D01*
X50901844Y-34637380D01*
X50925801Y-34603146D01*
X50953723Y-34578806D01*
X50983278Y-34566301D01*
X51012133Y-34567570D01*
X51014209Y-34568273D01*
X51041686Y-34585629D01*
X51067633Y-34615915D01*
X51090068Y-34656284D01*
X51107009Y-34703888D01*
X51110708Y-34722079D01*
X51115376Y-34753392D01*
X51120047Y-34791968D01*
X51124116Y-34833231D01*
X51125831Y-34852484D01*
X51136082Y-34948974D01*
X51148479Y-35034604D01*
X51163837Y-35113683D01*
X51182972Y-35190519D01*
X51206701Y-35269422D01*
X51208644Y-35275421D01*
X51229903Y-35338427D01*
X51248815Y-35388107D01*
X51266634Y-35426531D01*
X51284617Y-35455768D01*
X51304019Y-35477886D01*
X51326095Y-35494956D01*
X51352101Y-35509046D01*
X51354843Y-35510309D01*
X51379499Y-35519949D01*
X51408153Y-35527920D01*
X51442518Y-35534397D01*
X51484309Y-35539554D01*
X51535239Y-35543565D01*
X51597022Y-35546604D01*
X51671371Y-35548844D01*
X51760000Y-35550460D01*
X51820931Y-35551205D01*
X51887109Y-35551552D01*
X51940299Y-35551063D01*
X51982197Y-35549587D01*
X52014497Y-35546978D01*
X52038896Y-35543084D01*
X52057087Y-35537759D01*
X52070768Y-35530852D01*
X52081633Y-35522215D01*
X52088638Y-35515911D01*
X52121569Y-35491408D01*
X52161895Y-35466752D01*
X52203433Y-35445495D01*
X52240000Y-35431191D01*
X52250758Y-35428262D01*
X52282144Y-35421242D01*
X52320557Y-35413996D01*
X52360000Y-35407698D01*
X52386538Y-35403735D01*
X52442652Y-35393430D01*
X52488693Y-35380821D01*
X52528780Y-35363958D01*
X52567035Y-35340893D01*
X52607578Y-35309675D01*
X52654529Y-35268355D01*
X52661811Y-35261833D01*
X52705040Y-35226345D01*
X52757816Y-35187021D01*
X52816151Y-35146558D01*
X52876055Y-35107649D01*
X52933541Y-35072992D01*
X52984620Y-35045280D01*
X53013855Y-35032130D01*
X53059359Y-35014496D01*
X53113350Y-34995595D01*
X53171983Y-34976618D01*
X53231410Y-34958760D01*
X53287787Y-34943214D01*
X53337265Y-34931173D01*
X53376000Y-34923832D01*
X53415653Y-34918912D01*
X53485402Y-34913150D01*
X53557620Y-34910226D01*
X53627764Y-34910198D01*
X53691290Y-34913125D01*
X53743657Y-34919065D01*
X53787575Y-34926692D01*
X53893557Y-34949054D01*
X53987080Y-34975442D01*
X54070550Y-35006842D01*
X54146374Y-35044241D01*
X54216958Y-35088626D01*
X54284707Y-35140984D01*
X54320206Y-35170767D01*
X54386112Y-35224903D01*
X54442837Y-35269821D01*
X54489784Y-35305065D01*
X54526352Y-35330176D01*
X54551940Y-35344699D01*
X54558986Y-35347763D01*
X54589144Y-35359290D01*
X54626300Y-35371894D01*
X54664000Y-35383350D01*
X54686112Y-35389316D01*
X54734299Y-35400891D01*
X54788650Y-35412479D01*
X54846981Y-35423750D01*
X54907110Y-35434378D01*
X54966855Y-35444034D01*
X55024032Y-35452389D01*
X55076460Y-35459116D01*
X55121955Y-35463887D01*
X55158335Y-35466373D01*
X55183418Y-35466247D01*
X55195020Y-35463180D01*
X55196729Y-35459809D01*
X55580000Y-35459809D01*
X55580578Y-35464045D01*
X55585334Y-35465144D01*
X55586291Y-35463971D01*
X55586233Y-35463395D01*
X55585334Y-35454474D01*
X55582928Y-35453222D01*
X55580000Y-35459809D01*
X55196729Y-35459809D01*
X55199481Y-35454379D01*
X55203538Y-35444271D01*
X55229244Y-35444271D01*
X55230001Y-35450089D01*
X55236000Y-35443804D01*
X55238045Y-35439802D01*
X55588246Y-35439802D01*
X55589662Y-35442207D01*
X55596000Y-35435801D01*
X55599772Y-35428946D01*
X55603755Y-35415795D01*
X55602339Y-35413391D01*
X55596000Y-35419796D01*
X55592229Y-35426651D01*
X55588246Y-35439802D01*
X55238045Y-35439802D01*
X55239538Y-35436879D01*
X55243316Y-35419796D01*
X55241457Y-35414778D01*
X55236000Y-35423797D01*
X55233728Y-35429368D01*
X55229244Y-35444271D01*
X55203538Y-35444271D01*
X55207975Y-35433218D01*
X55219019Y-35403240D01*
X55221608Y-35395789D01*
X55244000Y-35395789D01*
X55244578Y-35400025D01*
X55249334Y-35401124D01*
X55250291Y-35399951D01*
X55249872Y-35395789D01*
X55604000Y-35395789D01*
X55604578Y-35400025D01*
X55609334Y-35401124D01*
X55610291Y-35399951D01*
X55609334Y-35390454D01*
X55606928Y-35389202D01*
X55604000Y-35395789D01*
X55249872Y-35395789D01*
X55249334Y-35390454D01*
X55246928Y-35389202D01*
X55244000Y-35395789D01*
X55221608Y-35395789D01*
X55229952Y-35371781D01*
X55252000Y-35371781D01*
X55252578Y-35376018D01*
X55257334Y-35377116D01*
X55258291Y-35375943D01*
X55258275Y-35375782D01*
X55612246Y-35375782D01*
X55613662Y-35378186D01*
X55620000Y-35371781D01*
X55623772Y-35364926D01*
X55627755Y-35351775D01*
X55626339Y-35349371D01*
X55620000Y-35355776D01*
X55616229Y-35362631D01*
X55612246Y-35375782D01*
X55258275Y-35375782D01*
X55257334Y-35366446D01*
X55254928Y-35365194D01*
X55252000Y-35371781D01*
X55229952Y-35371781D01*
X55231342Y-35367780D01*
X55233705Y-35360843D01*
X55238379Y-35347773D01*
X55260000Y-35347773D01*
X55260578Y-35352010D01*
X55265334Y-35353108D01*
X55266291Y-35351936D01*
X55265334Y-35342438D01*
X55262928Y-35341186D01*
X55260000Y-35347773D01*
X55238379Y-35347773D01*
X55242671Y-35335770D01*
X55628246Y-35335770D01*
X55629662Y-35338174D01*
X55636000Y-35331768D01*
X55639772Y-35324913D01*
X55643755Y-35311762D01*
X55642339Y-35309358D01*
X55636000Y-35315763D01*
X55632229Y-35322619D01*
X55628246Y-35335770D01*
X55242671Y-35335770D01*
X55246964Y-35323766D01*
X55268000Y-35323766D01*
X55268578Y-35328002D01*
X55273334Y-35329101D01*
X55274291Y-35327928D01*
X55273334Y-35318431D01*
X55270928Y-35317179D01*
X55268000Y-35323766D01*
X55246964Y-35323766D01*
X55250865Y-35312859D01*
X55254332Y-35303760D01*
X55276246Y-35303760D01*
X55277662Y-35306164D01*
X55284000Y-35299758D01*
X55287772Y-35292903D01*
X55288119Y-35291756D01*
X55644000Y-35291756D01*
X55644578Y-35295992D01*
X55649334Y-35297091D01*
X55650291Y-35295918D01*
X55649334Y-35286421D01*
X55646928Y-35285169D01*
X55644000Y-35291756D01*
X55288119Y-35291756D01*
X55291755Y-35279752D01*
X55290339Y-35277348D01*
X55284000Y-35283753D01*
X55280229Y-35290608D01*
X55276246Y-35303760D01*
X55254332Y-35303760D01*
X55266530Y-35271750D01*
X55652246Y-35271750D01*
X55653662Y-35274154D01*
X55660000Y-35267748D01*
X55663772Y-35260893D01*
X55667755Y-35247742D01*
X55666339Y-35245338D01*
X55660000Y-35251743D01*
X55656229Y-35258598D01*
X55652246Y-35271750D01*
X55266530Y-35271750D01*
X55269365Y-35264312D01*
X55294375Y-35264312D01*
X55298651Y-35259746D01*
X55304365Y-35248068D01*
X55310028Y-35231737D01*
X55668000Y-35231737D01*
X55672000Y-35235738D01*
X55676000Y-35231737D01*
X55672000Y-35227736D01*
X55668000Y-35231737D01*
X55310028Y-35231737D01*
X55311415Y-35227736D01*
X55312105Y-35225091D01*
X55313626Y-35215167D01*
X55309350Y-35219733D01*
X55303636Y-35231410D01*
X55296586Y-35251743D01*
X55295896Y-35254388D01*
X55294375Y-35264312D01*
X55269365Y-35264312D01*
X55270313Y-35261823D01*
X55290378Y-35211731D01*
X55677125Y-35211731D01*
X55678713Y-35216457D01*
X55684000Y-35207729D01*
X55687807Y-35196848D01*
X55690876Y-35179721D01*
X55689288Y-35174994D01*
X55684000Y-35183722D01*
X55680194Y-35194604D01*
X55677125Y-35211731D01*
X55290378Y-35211731D01*
X55290942Y-35210322D01*
X55295385Y-35199727D01*
X55316567Y-35199727D01*
X55316573Y-35199959D01*
X55320041Y-35199380D01*
X55328000Y-35187723D01*
X55335760Y-35172006D01*
X55339434Y-35159714D01*
X55339428Y-35159482D01*
X55335960Y-35160061D01*
X55328000Y-35171718D01*
X55320241Y-35187435D01*
X55316567Y-35199727D01*
X55295385Y-35199727D01*
X55311648Y-35160941D01*
X55317293Y-35148123D01*
X55339532Y-35148123D01*
X55343038Y-35147044D01*
X55347521Y-35140208D01*
X55356369Y-35123656D01*
X55366668Y-35102663D01*
X55376219Y-35081895D01*
X55381260Y-35069766D01*
X55598380Y-35069766D01*
X55599241Y-35072512D01*
X55612530Y-35082777D01*
X55637918Y-35100074D01*
X55657081Y-35114042D01*
X55677828Y-35132596D01*
X55689800Y-35147710D01*
X55691538Y-35151106D01*
X55697842Y-35159945D01*
X55699883Y-35154036D01*
X55697813Y-35145491D01*
X55684045Y-35126459D01*
X55659613Y-35105175D01*
X55627164Y-35084181D01*
X55610278Y-35075029D01*
X55598380Y-35069766D01*
X55381260Y-35069766D01*
X55382820Y-35066013D01*
X55384270Y-35059683D01*
X55380811Y-35063250D01*
X55371805Y-35077687D01*
X55360135Y-35099429D01*
X55351725Y-35116582D01*
X55342691Y-35137237D01*
X55339532Y-35148123D01*
X55317293Y-35148123D01*
X55331325Y-35116264D01*
X55348866Y-35078878D01*
X55363165Y-35051368D01*
X55364980Y-35048624D01*
X55388000Y-35048624D01*
X55388521Y-35049718D01*
X55396000Y-35047679D01*
X55398369Y-35046035D01*
X55404000Y-35038732D01*
X55403480Y-35037637D01*
X55396000Y-35039676D01*
X55393632Y-35041321D01*
X55388000Y-35048624D01*
X55364980Y-35048624D01*
X55373117Y-35036320D01*
X55381811Y-35028198D01*
X55383350Y-35027002D01*
X55416415Y-35027002D01*
X55416641Y-35028479D01*
X55425765Y-35025865D01*
X55443352Y-35017167D01*
X55446695Y-35015301D01*
X55500000Y-35015301D01*
X55500301Y-35016055D01*
X55509008Y-35022931D01*
X55526000Y-35032655D01*
X55526365Y-35032843D01*
X55550450Y-35045657D01*
X55572000Y-35057712D01*
X55584354Y-35064765D01*
X55586233Y-35064783D01*
X55576000Y-35055899D01*
X55573017Y-35053515D01*
X55553358Y-35040236D01*
X55530000Y-35026884D01*
X55522013Y-35022889D01*
X55506261Y-35016131D01*
X55500000Y-35015301D01*
X55446695Y-35015301D01*
X55448189Y-35014467D01*
X55458896Y-35007666D01*
X55484000Y-35007666D01*
X55488000Y-35011668D01*
X55492000Y-35007666D01*
X55488000Y-35003665D01*
X55484000Y-35007666D01*
X55458896Y-35007666D01*
X55465961Y-35003178D01*
X55471564Y-34997275D01*
X55464745Y-34998105D01*
X55445251Y-35007019D01*
X55443716Y-35007823D01*
X55426187Y-35018477D01*
X55416415Y-35027002D01*
X55383350Y-35027002D01*
X55403461Y-35011374D01*
X55428477Y-34994609D01*
X55438540Y-34988228D01*
X55453892Y-34976447D01*
X55484000Y-34976447D01*
X55484302Y-34977025D01*
X55493012Y-34983128D01*
X55510000Y-34992422D01*
X55539094Y-35007923D01*
X55576588Y-35029422D01*
X55614783Y-35052599D01*
X55649980Y-35075142D01*
X55678480Y-35094736D01*
X55696583Y-35109071D01*
X55703538Y-35115508D01*
X55716522Y-35125614D01*
X55724936Y-35126020D01*
X55733710Y-35117897D01*
X55739049Y-35111200D01*
X55752600Y-35090378D01*
X55765883Y-35066144D01*
X55775986Y-35044046D01*
X55780000Y-35029633D01*
X55779339Y-35025908D01*
X55776000Y-35017927D01*
X55772586Y-35009767D01*
X55769138Y-35003665D01*
X55796390Y-35003665D01*
X55798089Y-35008507D01*
X55805912Y-35022475D01*
X55816800Y-35039403D01*
X55827077Y-35053677D01*
X55833068Y-35059683D01*
X55833892Y-35059073D01*
X55831113Y-35050249D01*
X55821960Y-35034322D01*
X55821843Y-35034155D01*
X56356000Y-35034155D01*
X56360412Y-35032913D01*
X56372000Y-35023671D01*
X56382743Y-35012904D01*
X56388000Y-35005186D01*
X56383589Y-35006427D01*
X56372000Y-35015669D01*
X56361258Y-35026436D01*
X56356000Y-35034155D01*
X55821843Y-35034155D01*
X55808841Y-35015669D01*
X55800548Y-35005983D01*
X55796390Y-35003665D01*
X55769138Y-35003665D01*
X55760894Y-34989075D01*
X55760000Y-34987539D01*
X55758155Y-34984368D01*
X55780648Y-34984368D01*
X55789237Y-34992425D01*
X55793707Y-34994373D01*
X55793240Y-34991661D01*
X56388246Y-34991661D01*
X56389662Y-34994065D01*
X56396000Y-34987660D01*
X56399772Y-34980805D01*
X56403755Y-34967654D01*
X56402339Y-34965250D01*
X56396000Y-34971655D01*
X56392229Y-34978510D01*
X56388246Y-34991661D01*
X55793240Y-34991661D01*
X55792764Y-34988897D01*
X55790295Y-34985342D01*
X55784667Y-34980615D01*
X55783528Y-34979658D01*
X55782410Y-34979735D01*
X55780648Y-34984368D01*
X55758155Y-34984368D01*
X55751645Y-34973181D01*
X55748429Y-34967654D01*
X55772000Y-34967654D01*
X55776000Y-34971655D01*
X55780000Y-34967654D01*
X55776000Y-34963652D01*
X55772000Y-34967654D01*
X55748429Y-34967654D01*
X55738715Y-34950962D01*
X55737018Y-34947647D01*
X56404000Y-34947647D01*
X56404578Y-34951884D01*
X56409334Y-34952982D01*
X56410291Y-34951810D01*
X56409866Y-34947592D01*
X56409334Y-34942312D01*
X56406928Y-34941060D01*
X56404000Y-34947647D01*
X55737018Y-34947647D01*
X55730872Y-34935644D01*
X55756000Y-34935644D01*
X55760000Y-34939645D01*
X55764000Y-34935644D01*
X55760000Y-34931642D01*
X55756000Y-34935644D01*
X55730872Y-34935644D01*
X55720000Y-34914408D01*
X55713334Y-34901388D01*
X55711446Y-34897700D01*
X55704454Y-34882383D01*
X55702123Y-34877277D01*
X55724716Y-34877277D01*
X55727501Y-34884541D01*
X55736576Y-34901633D01*
X55744479Y-34914927D01*
X55751645Y-34923088D01*
X55752003Y-34917850D01*
X55744000Y-34899632D01*
X55742835Y-34897409D01*
X55739392Y-34891630D01*
X56414179Y-34891630D01*
X56414413Y-34903374D01*
X56415668Y-34913428D01*
X56417646Y-34909635D01*
X56418970Y-34896943D01*
X56417646Y-34873624D01*
X56416399Y-34869570D01*
X56414804Y-34874322D01*
X56414179Y-34891630D01*
X55739392Y-34891630D01*
X55733626Y-34881952D01*
X55727795Y-34875625D01*
X55726806Y-34875645D01*
X55724716Y-34877277D01*
X55702123Y-34877277D01*
X55695889Y-34863621D01*
X55716000Y-34863621D01*
X55720000Y-34867622D01*
X55724000Y-34863621D01*
X55720292Y-34859912D01*
X55720000Y-34859620D01*
X55716000Y-34863621D01*
X55695889Y-34863621D01*
X55688000Y-34846339D01*
X55686756Y-34843615D01*
X55708000Y-34843615D01*
X55708578Y-34847851D01*
X55713334Y-34848950D01*
X55714291Y-34847777D01*
X55713334Y-34838280D01*
X55710928Y-34837028D01*
X55708000Y-34843615D01*
X55686756Y-34843615D01*
X55685601Y-34841084D01*
X55681334Y-34830375D01*
X55673334Y-34810296D01*
X55669073Y-34799601D01*
X55692246Y-34799601D01*
X55693231Y-34805018D01*
X55700000Y-34819607D01*
X55704454Y-34825040D01*
X55707755Y-34823608D01*
X55706770Y-34818191D01*
X55705984Y-34816497D01*
X56389007Y-34816497D01*
X56394081Y-34819607D01*
X56399256Y-34821734D01*
X56406486Y-34833612D01*
X56407313Y-34836729D01*
X56409866Y-34843099D01*
X56411072Y-34834084D01*
X56410461Y-34826925D01*
X56403468Y-34815277D01*
X56400198Y-34813743D01*
X56390135Y-34814805D01*
X56389007Y-34816497D01*
X55705984Y-34816497D01*
X55704000Y-34812222D01*
X55702355Y-34808677D01*
X56365416Y-34808677D01*
X56372000Y-34811605D01*
X56376236Y-34811027D01*
X56377334Y-34806270D01*
X56376161Y-34805312D01*
X56366667Y-34806270D01*
X56365416Y-34808677D01*
X55702355Y-34808677D01*
X55700000Y-34803602D01*
X55696721Y-34799601D01*
X56348000Y-34799601D01*
X56352000Y-34803602D01*
X56356000Y-34799601D01*
X56352000Y-34795600D01*
X56348000Y-34799601D01*
X55696721Y-34799601D01*
X55695547Y-34798169D01*
X55692246Y-34799601D01*
X55669073Y-34799601D01*
X55665884Y-34791598D01*
X56332000Y-34791598D01*
X56336000Y-34795600D01*
X56340000Y-34791598D01*
X56336000Y-34787597D01*
X56332000Y-34791598D01*
X55665884Y-34791598D01*
X55664290Y-34787597D01*
X55664265Y-34787522D01*
X55662958Y-34783596D01*
X55684000Y-34783596D01*
X55688000Y-34787597D01*
X55690927Y-34784669D01*
X56309416Y-34784669D01*
X56316000Y-34787597D01*
X56320236Y-34787020D01*
X56321334Y-34782262D01*
X56320161Y-34781304D01*
X56310667Y-34782262D01*
X56309416Y-34784669D01*
X55690927Y-34784669D01*
X55692000Y-34783596D01*
X55688000Y-34779595D01*
X55684521Y-34783075D01*
X55684000Y-34783596D01*
X55662958Y-34783596D01*
X55660650Y-34776667D01*
X56285416Y-34776667D01*
X56292000Y-34779595D01*
X56296236Y-34779017D01*
X56297334Y-34774260D01*
X56296161Y-34773302D01*
X56286667Y-34774260D01*
X56285416Y-34776667D01*
X55660650Y-34776667D01*
X55657985Y-34768664D01*
X56261416Y-34768664D01*
X56268000Y-34771592D01*
X56272236Y-34771014D01*
X56273334Y-34766257D01*
X56272161Y-34765299D01*
X56262667Y-34766257D01*
X56261416Y-34768664D01*
X55657985Y-34768664D01*
X55654730Y-34758890D01*
X55653947Y-34755587D01*
X55676000Y-34755587D01*
X55676578Y-34759823D01*
X55681334Y-34760922D01*
X55682291Y-34759749D01*
X55682275Y-34759588D01*
X56244000Y-34759588D01*
X56248000Y-34763589D01*
X56252000Y-34759588D01*
X56248000Y-34755587D01*
X56244000Y-34759588D01*
X55682275Y-34759588D01*
X55681334Y-34750252D01*
X55680000Y-34749558D01*
X55678928Y-34749000D01*
X55676000Y-34755587D01*
X55653947Y-34755587D01*
X55648253Y-34731579D01*
X55668000Y-34731579D01*
X55668578Y-34735816D01*
X55673334Y-34736914D01*
X55674291Y-34735742D01*
X55674264Y-34735471D01*
X56196000Y-34735471D01*
X56198746Y-34739255D01*
X56210424Y-34746708D01*
X56224321Y-34752733D01*
X56232719Y-34753534D01*
X56229455Y-34748679D01*
X56216034Y-34741053D01*
X56202213Y-34735740D01*
X56196000Y-34735471D01*
X55674264Y-34735471D01*
X55673468Y-34727578D01*
X56180000Y-34727578D01*
X56184000Y-34731579D01*
X56188000Y-34727578D01*
X56184000Y-34723577D01*
X56180000Y-34727578D01*
X55673468Y-34727578D01*
X55673334Y-34726244D01*
X55670928Y-34724992D01*
X55668000Y-34731579D01*
X55648253Y-34731579D01*
X55647099Y-34726713D01*
X55646263Y-34719576D01*
X56164000Y-34719576D01*
X56168000Y-34723577D01*
X56172000Y-34719576D01*
X56168000Y-34715574D01*
X56164000Y-34719576D01*
X55646263Y-34719576D01*
X55644471Y-34704280D01*
X56140648Y-34704280D01*
X56149237Y-34712337D01*
X56153707Y-34714284D01*
X56152764Y-34708808D01*
X56150295Y-34705253D01*
X56143528Y-34699569D01*
X56142410Y-34699647D01*
X56140648Y-34704280D01*
X55644471Y-34704280D01*
X55643010Y-34691803D01*
X55641381Y-34647553D01*
X55641310Y-34639550D01*
X55662626Y-34639550D01*
X55662639Y-34645814D01*
X55663155Y-34666651D01*
X55664265Y-34675254D01*
X55665774Y-34669738D01*
X55665885Y-34668818D01*
X55666552Y-34654318D01*
X56076714Y-34654318D01*
X56077507Y-34657323D01*
X56090000Y-34668677D01*
X56109221Y-34684178D01*
X56126274Y-34696326D01*
X56132000Y-34697498D01*
X56130917Y-34695562D01*
X56120971Y-34685881D01*
X56104000Y-34672103D01*
X56103469Y-34671698D01*
X56085931Y-34659247D01*
X56076714Y-34654318D01*
X55666552Y-34654318D01*
X55667119Y-34641981D01*
X55667041Y-34640259D01*
X56052648Y-34640259D01*
X56061237Y-34648317D01*
X56065707Y-34650264D01*
X56064764Y-34644788D01*
X56062295Y-34641233D01*
X56055528Y-34635549D01*
X56054410Y-34635627D01*
X56052648Y-34640259D01*
X55667041Y-34640259D01*
X55665839Y-34613721D01*
X55665440Y-34610354D01*
X55664029Y-34606582D01*
X55663026Y-34616839D01*
X55662626Y-34639550D01*
X55641310Y-34639550D01*
X55641300Y-34638462D01*
X55644052Y-34583327D01*
X55644474Y-34581333D01*
X55981599Y-34581333D01*
X55982253Y-34584175D01*
X55993285Y-34594713D01*
X56014000Y-34611884D01*
X56028031Y-34622495D01*
X56037484Y-34628166D01*
X56036711Y-34624853D01*
X56036575Y-34624685D01*
X56021933Y-34610054D01*
X56002711Y-34594618D01*
X55992020Y-34587252D01*
X55981599Y-34581333D01*
X55644474Y-34581333D01*
X55648244Y-34563526D01*
X55668000Y-34563526D01*
X55668578Y-34567763D01*
X55673334Y-34568861D01*
X55673844Y-34568237D01*
X55956648Y-34568237D01*
X55965237Y-34576294D01*
X55969707Y-34578242D01*
X55968764Y-34572765D01*
X55966295Y-34569210D01*
X55959528Y-34563526D01*
X55958410Y-34563604D01*
X55956648Y-34568237D01*
X55673844Y-34568237D01*
X55674291Y-34567689D01*
X55673334Y-34558191D01*
X55670928Y-34556939D01*
X55668000Y-34563526D01*
X55648244Y-34563526D01*
X55652479Y-34543520D01*
X55676000Y-34543520D01*
X55680000Y-34547521D01*
X55684000Y-34543520D01*
X55683437Y-34542957D01*
X55916000Y-34542957D01*
X55919428Y-34547260D01*
X55932000Y-34555524D01*
X55942121Y-34560034D01*
X55948000Y-34560088D01*
X55944573Y-34555786D01*
X55932000Y-34547521D01*
X55921880Y-34543011D01*
X55916000Y-34542957D01*
X55683437Y-34542957D01*
X55680000Y-34539519D01*
X55676000Y-34543520D01*
X55652479Y-34543520D01*
X55653246Y-34539896D01*
X55655336Y-34535518D01*
X55900000Y-34535518D01*
X55904000Y-34539519D01*
X55908000Y-34535518D01*
X55904000Y-34531516D01*
X55900000Y-34535518D01*
X55655336Y-34535518D01*
X55659157Y-34527515D01*
X55884000Y-34527515D01*
X55888000Y-34531516D01*
X55892000Y-34527515D01*
X55888000Y-34523514D01*
X55884000Y-34527515D01*
X55659157Y-34527515D01*
X55662527Y-34520457D01*
X55684000Y-34520457D01*
X55684521Y-34521552D01*
X55692000Y-34519513D01*
X55694369Y-34517868D01*
X55700000Y-34510566D01*
X55699480Y-34509471D01*
X55692000Y-34511510D01*
X55689632Y-34513154D01*
X55684000Y-34520457D01*
X55662527Y-34520457D01*
X55667971Y-34509054D01*
X55855789Y-34509054D01*
X55855859Y-34512659D01*
X55865655Y-34518998D01*
X55867173Y-34519568D01*
X55875189Y-34521247D01*
X55870134Y-34514518D01*
X55864252Y-34509952D01*
X55855789Y-34509054D01*
X55667971Y-34509054D01*
X55669798Y-34505227D01*
X55678163Y-34495505D01*
X55700000Y-34495505D01*
X55704000Y-34499506D01*
X55708000Y-34495505D01*
X55706278Y-34493783D01*
X55815055Y-34493783D01*
X55815096Y-34496588D01*
X55824310Y-34502519D01*
X55838601Y-34506916D01*
X55842799Y-34505605D01*
X55833400Y-34498529D01*
X55824003Y-34494226D01*
X55815055Y-34493783D01*
X55706278Y-34493783D01*
X55704000Y-34491504D01*
X55700000Y-34495505D01*
X55678163Y-34495505D01*
X55685077Y-34487470D01*
X55720292Y-34487470D01*
X55725733Y-34486669D01*
X55774167Y-34486669D01*
X55774291Y-34489401D01*
X55784667Y-34490872D01*
X55792531Y-34489591D01*
X55789500Y-34486037D01*
X55784874Y-34484759D01*
X55774167Y-34486669D01*
X55725733Y-34486669D01*
X55732642Y-34485652D01*
X55742951Y-34481320D01*
X55741094Y-34477197D01*
X55735978Y-34476512D01*
X55722148Y-34482153D01*
X55721777Y-34482530D01*
X55720292Y-34487470D01*
X55685077Y-34487470D01*
X55694620Y-34476380D01*
X55706320Y-34466877D01*
X55719703Y-34461205D01*
X55738445Y-34459757D01*
X55767798Y-34461462D01*
X55773897Y-34462004D01*
X55808543Y-34467754D01*
X55843171Y-34479129D01*
X55884171Y-34498145D01*
X55948159Y-34530623D01*
X55960575Y-34501060D01*
X55971881Y-34471710D01*
X55986620Y-34429390D01*
X56003657Y-34377538D01*
X56022265Y-34318628D01*
X56041715Y-34255133D01*
X56061280Y-34189529D01*
X56080231Y-34124289D01*
X56097841Y-34061887D01*
X56113381Y-34004798D01*
X56126125Y-33955497D01*
X56135343Y-33916456D01*
X56140309Y-33890151D01*
X56142005Y-33875586D01*
X56143737Y-33817527D01*
X56138071Y-33762072D01*
X56125519Y-33715259D01*
X56124058Y-33711817D01*
X56103901Y-33684160D01*
X56072924Y-33660428D01*
X56035701Y-33642848D01*
X55996805Y-33633647D01*
X55960809Y-33635052D01*
X55951840Y-33637312D01*
X55932396Y-33644735D01*
X55915617Y-33656224D01*
X55900652Y-33673434D01*
X55886654Y-33698024D01*
X55872772Y-33731650D01*
X55858158Y-33775970D01*
X55841962Y-33832640D01*
X55823335Y-33903319D01*
X55822663Y-33905916D01*
X55810331Y-33950778D01*
X55793821Y-34006990D01*
X55774220Y-34071057D01*
X55752613Y-34139484D01*
X55730087Y-34208776D01*
X55707727Y-34275436D01*
X55699962Y-34298196D01*
X55675549Y-34370161D01*
X55655010Y-34431669D01*
X55637226Y-34486334D01*
X55621078Y-34537773D01*
X55605445Y-34589602D01*
X55589210Y-34645438D01*
X55571253Y-34708897D01*
X55550454Y-34783596D01*
X55549765Y-34786076D01*
X55537204Y-34829279D01*
X55524194Y-34870853D01*
X55512231Y-34906179D01*
X55502812Y-34930638D01*
X55494578Y-34949748D01*
X55486946Y-34968213D01*
X55484000Y-34976447D01*
X55453892Y-34976447D01*
X55455220Y-34975428D01*
X55467630Y-34960372D01*
X55478874Y-34938749D01*
X55492054Y-34906246D01*
X55497504Y-34891325D01*
X55509795Y-34854272D01*
X55523885Y-34808519D01*
X55538429Y-34758492D01*
X55552085Y-34708614D01*
X55560170Y-34678340D01*
X55573022Y-34631461D01*
X55585075Y-34588873D01*
X55595267Y-34554313D01*
X55602531Y-34531516D01*
X55627335Y-34459515D01*
X55657241Y-34371084D01*
X55686525Y-34282843D01*
X55714510Y-34196918D01*
X55740518Y-34115436D01*
X55763870Y-34040525D01*
X55783890Y-33974312D01*
X55799900Y-33918923D01*
X55811222Y-33876485D01*
X55815265Y-33860322D01*
X55831662Y-33798117D01*
X55846347Y-33749129D01*
X55860154Y-33711276D01*
X55873921Y-33682478D01*
X55888482Y-33660652D01*
X55904673Y-33643719D01*
X55917188Y-33634284D01*
X55954655Y-33618696D01*
X55996856Y-33615391D01*
X56040430Y-33623886D01*
G37*
%TD*%
M02*
