%TF.GenerationSoftware,KiCad,Pcbnew,8.0.6*%
%TF.CreationDate,2025-02-14T15:15:11-07:00*%
%TF.ProjectId,KiCad_Curve_Tracer,4b694361-645f-4437-9572-76655f547261,rev?*%
%TF.SameCoordinates,Original*%
%TF.FileFunction,Copper,L2,Bot*%
%TF.FilePolarity,Positive*%
%FSLAX46Y46*%
G04 Gerber Fmt 4.6, Leading zero omitted, Abs format (unit mm)*
G04 Created by KiCad (PCBNEW 8.0.6) date 2025-02-14 15:15:11*
%MOMM*%
%LPD*%
G01*
G04 APERTURE LIST*
%TA.AperFunction,ComponentPad*%
%ADD10R,1.700000X1.700000*%
%TD*%
%TA.AperFunction,ComponentPad*%
%ADD11O,1.700000X1.700000*%
%TD*%
%TA.AperFunction,ComponentPad*%
%ADD12C,1.600000*%
%TD*%
%TA.AperFunction,ComponentPad*%
%ADD13O,1.600000X1.600000*%
%TD*%
%TA.AperFunction,ComponentPad*%
%ADD14R,1.371600X1.371600*%
%TD*%
%TA.AperFunction,ComponentPad*%
%ADD15C,1.371600*%
%TD*%
%TA.AperFunction,Conductor*%
%ADD16C,0.750000*%
%TD*%
G04 APERTURE END LIST*
D10*
%TO.P,J1,1,Pin_1*%
%TO.N,GND*%
X45720000Y-35560000D03*
D11*
%TO.P,J1,2,Pin_2*%
%TO.N,/opamp curve tracer/Vi*%
X45720000Y-38100000D03*
%TD*%
D10*
%TO.P,J5,1,Pin_1*%
%TO.N,/opamp curve tracer/Vo*%
X60960000Y-58420000D03*
D11*
%TO.P,J5,2,Pin_2*%
%TO.N,GND*%
X60960000Y-60960000D03*
%TD*%
D12*
%TO.P,R1,1*%
%TO.N,/opamp curve tracer/rng*%
X57340842Y-61653113D03*
D13*
%TO.P,R1,2*%
%TO.N,/opamp curve tracer/Vo*%
X57340842Y-51493113D03*
%TD*%
D10*
%TO.P,J2,1,Pin_1*%
%TO.N,/opamp curve tracer/DUT+*%
X60960000Y-35560000D03*
D11*
%TO.P,J2,2,Pin_2*%
%TO.N,/opamp curve tracer/DUT-*%
X60960000Y-38100000D03*
%TD*%
D12*
%TO.P,C2,1*%
%TO.N,/opamp curve tracer/V-*%
X46314710Y-41422000D03*
%TO.P,C2,2*%
%TO.N,GND*%
X46314710Y-43922000D03*
%TD*%
D14*
%TO.P,U1,1*%
%TO.N,/opamp curve tracer/DUT+*%
X57513415Y-40125370D03*
D15*
%TO.P,U1,2,-*%
X54973415Y-40125370D03*
%TO.P,U1,3,+*%
%TO.N,/opamp curve tracer/Vi*%
X52433415Y-40125370D03*
%TO.P,U1,4,V-*%
%TO.N,/opamp curve tracer/V-*%
X49893415Y-40125370D03*
%TO.P,U1,5,+*%
%TO.N,GND*%
X49893415Y-47745370D03*
%TO.P,U1,6,-*%
%TO.N,/opamp curve tracer/DUT-*%
X52433415Y-47745370D03*
%TO.P,U1,7*%
%TO.N,/opamp curve tracer/Vo*%
X54973415Y-47745370D03*
%TO.P,U1,8,V+*%
%TO.N,/opamp curve tracer/V+*%
X57513415Y-47745370D03*
%TD*%
D12*
%TO.P,R2,1*%
%TO.N,/opamp curve tracer/DUT-*%
X54204239Y-51493113D03*
D13*
%TO.P,R2,2*%
%TO.N,/opamp curve tracer/rng*%
X54204239Y-61653113D03*
%TD*%
D12*
%TO.P,C1,1*%
%TO.N,/opamp curve tracer/V+*%
X61214000Y-46462000D03*
%TO.P,C1,2*%
%TO.N,GND*%
X61214000Y-43962000D03*
%TD*%
D10*
%TO.P,J4,1,Pin_1*%
%TO.N,/opamp curve tracer/V-*%
X45720000Y-50800000D03*
D11*
%TO.P,J4,2,Pin_2*%
%TO.N,GND*%
X45720000Y-53340000D03*
%TO.P,J4,3,Pin_3*%
%TO.N,/opamp curve tracer/V+*%
X45720000Y-55880000D03*
%TD*%
D10*
%TO.P,J3,1,Pin_1*%
%TO.N,/opamp curve tracer/Vo*%
X50681593Y-53340000D03*
D11*
%TO.P,J3,2,Pin_2*%
%TO.N,/opamp curve tracer/rng*%
X50681593Y-55880000D03*
%TD*%
D16*
%TO.N,/opamp curve tracer/V+*%
X54864000Y-58420000D02*
X61214000Y-52070000D01*
X61214000Y-52070000D02*
X61214000Y-46462000D01*
X48260000Y-58420000D02*
X54864000Y-58420000D01*
X48260000Y-58420000D02*
X45720000Y-55880000D01*
%TD*%
%TA.AperFunction,Conductor*%
%TO.N,GND*%
G36*
X62942539Y-33540185D02*
G01*
X62988294Y-33592989D01*
X62999500Y-33644500D01*
X62999500Y-64145500D01*
X62979815Y-64212539D01*
X62927011Y-64258294D01*
X62875500Y-64269500D01*
X43804500Y-64269500D01*
X43737461Y-64249815D01*
X43691706Y-64197011D01*
X43680500Y-64145500D01*
X43680500Y-61653111D01*
X52898771Y-61653111D01*
X52898771Y-61653114D01*
X52918603Y-61879799D01*
X52918605Y-61879810D01*
X52977497Y-62099601D01*
X52977500Y-62099610D01*
X53073670Y-62305845D01*
X53073671Y-62305847D01*
X53204193Y-62492254D01*
X53365097Y-62653158D01*
X53365100Y-62653160D01*
X53551505Y-62783681D01*
X53757743Y-62879852D01*
X53977547Y-62938748D01*
X54139469Y-62952914D01*
X54204237Y-62958581D01*
X54204239Y-62958581D01*
X54204241Y-62958581D01*
X54260912Y-62953622D01*
X54430931Y-62938748D01*
X54650735Y-62879852D01*
X54856973Y-62783681D01*
X55043378Y-62653160D01*
X55204286Y-62492252D01*
X55334807Y-62305847D01*
X55430978Y-62099609D01*
X55489874Y-61879805D01*
X55509707Y-61653113D01*
X55509707Y-61653111D01*
X56035374Y-61653111D01*
X56035374Y-61653114D01*
X56055206Y-61879799D01*
X56055208Y-61879810D01*
X56114100Y-62099601D01*
X56114103Y-62099610D01*
X56210273Y-62305845D01*
X56210274Y-62305847D01*
X56340796Y-62492254D01*
X56501700Y-62653158D01*
X56501703Y-62653160D01*
X56688108Y-62783681D01*
X56894346Y-62879852D01*
X57114150Y-62938748D01*
X57276072Y-62952914D01*
X57340840Y-62958581D01*
X57340842Y-62958581D01*
X57340844Y-62958581D01*
X57397515Y-62953622D01*
X57567534Y-62938748D01*
X57787338Y-62879852D01*
X57993576Y-62783681D01*
X58179981Y-62653160D01*
X58340889Y-62492252D01*
X58471410Y-62305847D01*
X58567581Y-62099609D01*
X58626477Y-61879805D01*
X58646310Y-61653113D01*
X58626477Y-61426421D01*
X58567581Y-61206617D01*
X58471410Y-61000379D01*
X58340889Y-60813974D01*
X58340887Y-60813971D01*
X58179983Y-60653067D01*
X57993576Y-60522545D01*
X57993574Y-60522544D01*
X57787339Y-60426374D01*
X57787330Y-60426371D01*
X57567539Y-60367479D01*
X57567535Y-60367478D01*
X57567534Y-60367478D01*
X57567533Y-60367477D01*
X57567528Y-60367477D01*
X57340844Y-60347645D01*
X57340840Y-60347645D01*
X57114155Y-60367477D01*
X57114144Y-60367479D01*
X56894353Y-60426371D01*
X56894344Y-60426374D01*
X56688109Y-60522544D01*
X56688107Y-60522545D01*
X56501700Y-60653067D01*
X56340796Y-60813971D01*
X56210274Y-61000378D01*
X56210273Y-61000380D01*
X56114103Y-61206615D01*
X56114100Y-61206624D01*
X56055208Y-61426415D01*
X56055206Y-61426426D01*
X56035374Y-61653111D01*
X55509707Y-61653111D01*
X55489874Y-61426421D01*
X55430978Y-61206617D01*
X55334807Y-61000379D01*
X55204286Y-60813974D01*
X55204284Y-60813971D01*
X55043380Y-60653067D01*
X54856973Y-60522545D01*
X54856971Y-60522544D01*
X54650736Y-60426374D01*
X54650727Y-60426371D01*
X54430936Y-60367479D01*
X54430932Y-60367478D01*
X54430931Y-60367478D01*
X54430930Y-60367477D01*
X54430925Y-60367477D01*
X54204241Y-60347645D01*
X54204237Y-60347645D01*
X53977552Y-60367477D01*
X53977541Y-60367479D01*
X53757750Y-60426371D01*
X53757741Y-60426374D01*
X53551506Y-60522544D01*
X53551504Y-60522545D01*
X53365097Y-60653067D01*
X53204193Y-60813971D01*
X53073671Y-61000378D01*
X53073670Y-61000380D01*
X52977500Y-61206615D01*
X52977497Y-61206624D01*
X52918605Y-61426415D01*
X52918603Y-61426426D01*
X52898771Y-61653111D01*
X43680500Y-61653111D01*
X43680500Y-55879999D01*
X44364341Y-55879999D01*
X44364341Y-55880000D01*
X44384936Y-56115403D01*
X44384938Y-56115413D01*
X44446094Y-56343655D01*
X44446096Y-56343659D01*
X44446097Y-56343663D01*
X44545965Y-56557830D01*
X44545967Y-56557834D01*
X44654281Y-56712521D01*
X44681505Y-56751401D01*
X44848599Y-56918495D01*
X44945384Y-56986265D01*
X45042165Y-57054032D01*
X45042167Y-57054033D01*
X45042170Y-57054035D01*
X45256337Y-57153903D01*
X45484592Y-57215063D01*
X45672918Y-57231539D01*
X45719999Y-57235659D01*
X45720000Y-57235659D01*
X45770457Y-57231244D01*
X45838957Y-57245010D01*
X45868947Y-57267091D01*
X47701897Y-59100042D01*
X47701901Y-59100045D01*
X47845288Y-59195854D01*
X47845301Y-59195861D01*
X48004621Y-59261853D01*
X48004626Y-59261855D01*
X48173766Y-59295499D01*
X48173769Y-59295500D01*
X48173771Y-59295500D01*
X54950231Y-59295500D01*
X54950232Y-59295499D01*
X55119374Y-59261855D01*
X55278705Y-59195858D01*
X55422099Y-59100045D01*
X57000009Y-57522135D01*
X59609500Y-57522135D01*
X59609500Y-59317870D01*
X59609501Y-59317876D01*
X59615908Y-59377483D01*
X59666202Y-59512328D01*
X59666206Y-59512335D01*
X59752452Y-59627544D01*
X59752455Y-59627547D01*
X59867664Y-59713793D01*
X59867671Y-59713797D01*
X60002517Y-59764091D01*
X60002516Y-59764091D01*
X60009444Y-59764835D01*
X60062127Y-59770500D01*
X61857872Y-59770499D01*
X61917483Y-59764091D01*
X62052331Y-59713796D01*
X62167546Y-59627546D01*
X62253796Y-59512331D01*
X62304091Y-59377483D01*
X62310500Y-59317873D01*
X62310499Y-57522128D01*
X62304091Y-57462517D01*
X62253796Y-57327669D01*
X62253795Y-57327668D01*
X62253793Y-57327664D01*
X62167547Y-57212455D01*
X62167544Y-57212452D01*
X62052335Y-57126206D01*
X62052328Y-57126202D01*
X61917482Y-57075908D01*
X61917483Y-57075908D01*
X61857883Y-57069501D01*
X61857881Y-57069500D01*
X61857873Y-57069500D01*
X61857864Y-57069500D01*
X60062129Y-57069500D01*
X60062123Y-57069501D01*
X60002516Y-57075908D01*
X59867671Y-57126202D01*
X59867664Y-57126206D01*
X59752455Y-57212452D01*
X59752452Y-57212455D01*
X59666206Y-57327664D01*
X59666202Y-57327671D01*
X59615908Y-57462517D01*
X59610999Y-57508181D01*
X59609501Y-57522123D01*
X59609500Y-57522135D01*
X57000009Y-57522135D01*
X61894045Y-52628099D01*
X61989858Y-52484705D01*
X62055855Y-52325374D01*
X62089500Y-52156229D01*
X62089500Y-51983771D01*
X62089500Y-47477048D01*
X62109185Y-47410009D01*
X62125814Y-47389371D01*
X62214047Y-47301139D01*
X62344568Y-47114734D01*
X62440739Y-46908496D01*
X62499635Y-46688692D01*
X62519468Y-46462000D01*
X62499635Y-46235308D01*
X62440739Y-46015504D01*
X62344568Y-45809266D01*
X62214047Y-45622861D01*
X62214045Y-45622858D01*
X62053141Y-45461954D01*
X61866734Y-45331432D01*
X61866732Y-45331431D01*
X61660497Y-45235261D01*
X61660488Y-45235258D01*
X61440697Y-45176366D01*
X61440693Y-45176365D01*
X61440692Y-45176365D01*
X61440691Y-45176364D01*
X61440686Y-45176364D01*
X61214002Y-45156532D01*
X61213998Y-45156532D01*
X60987313Y-45176364D01*
X60987302Y-45176366D01*
X60767511Y-45235258D01*
X60767502Y-45235261D01*
X60561267Y-45331431D01*
X60561265Y-45331432D01*
X60374858Y-45461954D01*
X60213954Y-45622858D01*
X60083432Y-45809265D01*
X60083431Y-45809267D01*
X59987261Y-46015502D01*
X59987258Y-46015511D01*
X59928366Y-46235302D01*
X59928364Y-46235313D01*
X59908532Y-46461998D01*
X59908532Y-46462001D01*
X59928364Y-46688686D01*
X59928366Y-46688697D01*
X59987258Y-46908488D01*
X59987261Y-46908497D01*
X60083431Y-47114732D01*
X60083432Y-47114734D01*
X60213951Y-47301137D01*
X60213952Y-47301138D01*
X60213953Y-47301139D01*
X60302182Y-47389368D01*
X60335666Y-47450689D01*
X60338500Y-47477048D01*
X60338500Y-51655994D01*
X60318815Y-51723033D01*
X60302181Y-51743675D01*
X54537675Y-57508181D01*
X54476352Y-57541666D01*
X54449994Y-57544500D01*
X48674006Y-57544500D01*
X48606967Y-57524815D01*
X48586325Y-57508181D01*
X47107091Y-56028947D01*
X47073606Y-55967624D01*
X47071244Y-55930457D01*
X47075659Y-55880000D01*
X47075659Y-55879999D01*
X49325934Y-55879999D01*
X49325934Y-55880000D01*
X49346529Y-56115403D01*
X49346531Y-56115413D01*
X49407687Y-56343655D01*
X49407689Y-56343659D01*
X49407690Y-56343663D01*
X49507558Y-56557830D01*
X49507560Y-56557834D01*
X49615874Y-56712521D01*
X49643098Y-56751401D01*
X49810192Y-56918495D01*
X49906977Y-56986265D01*
X50003758Y-57054032D01*
X50003760Y-57054033D01*
X50003763Y-57054035D01*
X50217930Y-57153903D01*
X50446185Y-57215063D01*
X50634511Y-57231539D01*
X50681592Y-57235659D01*
X50681593Y-57235659D01*
X50681594Y-57235659D01*
X50720827Y-57232226D01*
X50917001Y-57215063D01*
X51145256Y-57153903D01*
X51359423Y-57054035D01*
X51552994Y-56918495D01*
X51720088Y-56751401D01*
X51855628Y-56557830D01*
X51955496Y-56343663D01*
X52016656Y-56115408D01*
X52037252Y-55880000D01*
X52016656Y-55644592D01*
X51955496Y-55416337D01*
X51855628Y-55202171D01*
X51720088Y-55008599D01*
X51598160Y-54886671D01*
X51564677Y-54825351D01*
X51569661Y-54755659D01*
X51611532Y-54699725D01*
X51642508Y-54682810D01*
X51773924Y-54633796D01*
X51889139Y-54547546D01*
X51975389Y-54432331D01*
X52025684Y-54297483D01*
X52032093Y-54237873D01*
X52032092Y-52442128D01*
X52025684Y-52382517D01*
X52006936Y-52332252D01*
X51975390Y-52247671D01*
X51975386Y-52247664D01*
X51889140Y-52132455D01*
X51889137Y-52132452D01*
X51773928Y-52046206D01*
X51773921Y-52046202D01*
X51639075Y-51995908D01*
X51639076Y-51995908D01*
X51579476Y-51989501D01*
X51579474Y-51989500D01*
X51579466Y-51989500D01*
X51579457Y-51989500D01*
X49783722Y-51989500D01*
X49783716Y-51989501D01*
X49724109Y-51995908D01*
X49589264Y-52046202D01*
X49589257Y-52046206D01*
X49474048Y-52132452D01*
X49474045Y-52132455D01*
X49387799Y-52247664D01*
X49387795Y-52247671D01*
X49337501Y-52382517D01*
X49331094Y-52442116D01*
X49331094Y-52442123D01*
X49331093Y-52442135D01*
X49331093Y-54237870D01*
X49331094Y-54237876D01*
X49337501Y-54297483D01*
X49387795Y-54432328D01*
X49387799Y-54432335D01*
X49474045Y-54547544D01*
X49474048Y-54547547D01*
X49589257Y-54633793D01*
X49589264Y-54633797D01*
X49720674Y-54682810D01*
X49776608Y-54724681D01*
X49801025Y-54790145D01*
X49786173Y-54858418D01*
X49765023Y-54886673D01*
X49643096Y-55008600D01*
X49507558Y-55202169D01*
X49507557Y-55202171D01*
X49407691Y-55416335D01*
X49407687Y-55416344D01*
X49346531Y-55644586D01*
X49346529Y-55644596D01*
X49325934Y-55879999D01*
X47075659Y-55879999D01*
X47055063Y-55644596D01*
X47055063Y-55644592D01*
X46993903Y-55416337D01*
X46894035Y-55202171D01*
X46758495Y-55008599D01*
X46758494Y-55008597D01*
X46591402Y-54841506D01*
X46591395Y-54841501D01*
X46397834Y-54705967D01*
X46397830Y-54705965D01*
X46348174Y-54682810D01*
X46183663Y-54606097D01*
X46183659Y-54606096D01*
X46183655Y-54606094D01*
X45955413Y-54544938D01*
X45955403Y-54544936D01*
X45720001Y-54524341D01*
X45719999Y-54524341D01*
X45484596Y-54544936D01*
X45484586Y-54544938D01*
X45256344Y-54606094D01*
X45256335Y-54606098D01*
X45042171Y-54705964D01*
X45042169Y-54705965D01*
X44848597Y-54841505D01*
X44681505Y-55008597D01*
X44545965Y-55202169D01*
X44545964Y-55202171D01*
X44446098Y-55416335D01*
X44446094Y-55416344D01*
X44384938Y-55644586D01*
X44384936Y-55644596D01*
X44364341Y-55879999D01*
X43680500Y-55879999D01*
X43680500Y-49902135D01*
X44369500Y-49902135D01*
X44369500Y-51697870D01*
X44369501Y-51697876D01*
X44375908Y-51757483D01*
X44426202Y-51892328D01*
X44426206Y-51892335D01*
X44512452Y-52007544D01*
X44512455Y-52007547D01*
X44627664Y-52093793D01*
X44627671Y-52093797D01*
X44762517Y-52144091D01*
X44762516Y-52144091D01*
X44769444Y-52144835D01*
X44822127Y-52150500D01*
X46617872Y-52150499D01*
X46677483Y-52144091D01*
X46812331Y-52093796D01*
X46927546Y-52007546D01*
X47013796Y-51892331D01*
X47064091Y-51757483D01*
X47070500Y-51697873D01*
X47070500Y-51493111D01*
X52898771Y-51493111D01*
X52898771Y-51493114D01*
X52918603Y-51719799D01*
X52918605Y-51719810D01*
X52977497Y-51939601D01*
X52977500Y-51939610D01*
X53073670Y-52145845D01*
X53073671Y-52145847D01*
X53204193Y-52332254D01*
X53365097Y-52493158D01*
X53365100Y-52493160D01*
X53551505Y-52623681D01*
X53757743Y-52719852D01*
X53977547Y-52778748D01*
X54139469Y-52792914D01*
X54204237Y-52798581D01*
X54204239Y-52798581D01*
X54204241Y-52798581D01*
X54260912Y-52793622D01*
X54430931Y-52778748D01*
X54650735Y-52719852D01*
X54856973Y-52623681D01*
X55043378Y-52493160D01*
X55204286Y-52332252D01*
X55334807Y-52145847D01*
X55430978Y-51939609D01*
X55489874Y-51719805D01*
X55509707Y-51493113D01*
X55509707Y-51493111D01*
X56035374Y-51493111D01*
X56035374Y-51493114D01*
X56055206Y-51719799D01*
X56055208Y-51719810D01*
X56114100Y-51939601D01*
X56114103Y-51939610D01*
X56210273Y-52145845D01*
X56210274Y-52145847D01*
X56340796Y-52332254D01*
X56501700Y-52493158D01*
X56501703Y-52493160D01*
X56688108Y-52623681D01*
X56894346Y-52719852D01*
X57114150Y-52778748D01*
X57276072Y-52792914D01*
X57340840Y-52798581D01*
X57340842Y-52798581D01*
X57340844Y-52798581D01*
X57397515Y-52793622D01*
X57567534Y-52778748D01*
X57787338Y-52719852D01*
X57993576Y-52623681D01*
X58179981Y-52493160D01*
X58340889Y-52332252D01*
X58471410Y-52145847D01*
X58567581Y-51939609D01*
X58626477Y-51719805D01*
X58646310Y-51493113D01*
X58626477Y-51266421D01*
X58567581Y-51046617D01*
X58471410Y-50840379D01*
X58340889Y-50653974D01*
X58340887Y-50653971D01*
X58179983Y-50493067D01*
X57993576Y-50362545D01*
X57993574Y-50362544D01*
X57787339Y-50266374D01*
X57787330Y-50266371D01*
X57567539Y-50207479D01*
X57567535Y-50207478D01*
X57567534Y-50207478D01*
X57567533Y-50207477D01*
X57567528Y-50207477D01*
X57340844Y-50187645D01*
X57340840Y-50187645D01*
X57114155Y-50207477D01*
X57114144Y-50207479D01*
X56894353Y-50266371D01*
X56894344Y-50266374D01*
X56688109Y-50362544D01*
X56688107Y-50362545D01*
X56501700Y-50493067D01*
X56340796Y-50653971D01*
X56210274Y-50840378D01*
X56210273Y-50840380D01*
X56114103Y-51046615D01*
X56114100Y-51046624D01*
X56055208Y-51266415D01*
X56055206Y-51266426D01*
X56035374Y-51493111D01*
X55509707Y-51493111D01*
X55489874Y-51266421D01*
X55430978Y-51046617D01*
X55334807Y-50840379D01*
X55204286Y-50653974D01*
X55204284Y-50653971D01*
X55043380Y-50493067D01*
X54856973Y-50362545D01*
X54856971Y-50362544D01*
X54650736Y-50266374D01*
X54650727Y-50266371D01*
X54430936Y-50207479D01*
X54430932Y-50207478D01*
X54430931Y-50207478D01*
X54430930Y-50207477D01*
X54430925Y-50207477D01*
X54204241Y-50187645D01*
X54204237Y-50187645D01*
X53977552Y-50207477D01*
X53977541Y-50207479D01*
X53757750Y-50266371D01*
X53757741Y-50266374D01*
X53551506Y-50362544D01*
X53551504Y-50362545D01*
X53365097Y-50493067D01*
X53204193Y-50653971D01*
X53073671Y-50840378D01*
X53073670Y-50840380D01*
X52977500Y-51046615D01*
X52977497Y-51046624D01*
X52918605Y-51266415D01*
X52918603Y-51266426D01*
X52898771Y-51493111D01*
X47070500Y-51493111D01*
X47070499Y-49902128D01*
X47064091Y-49842517D01*
X47013796Y-49707669D01*
X47013795Y-49707668D01*
X47013793Y-49707664D01*
X46927547Y-49592455D01*
X46927544Y-49592452D01*
X46812335Y-49506206D01*
X46812328Y-49506202D01*
X46677482Y-49455908D01*
X46677483Y-49455908D01*
X46617883Y-49449501D01*
X46617881Y-49449500D01*
X46617873Y-49449500D01*
X46617864Y-49449500D01*
X44822129Y-49449500D01*
X44822123Y-49449501D01*
X44762516Y-49455908D01*
X44627671Y-49506202D01*
X44627664Y-49506206D01*
X44512455Y-49592452D01*
X44512452Y-49592455D01*
X44426206Y-49707664D01*
X44426202Y-49707671D01*
X44375908Y-49842517D01*
X44369501Y-49902116D01*
X44369501Y-49902123D01*
X44369500Y-49902135D01*
X43680500Y-49902135D01*
X43680500Y-47745370D01*
X51242033Y-47745370D01*
X51262318Y-47964283D01*
X51322484Y-48175749D01*
X51420478Y-48372546D01*
X51420483Y-48372554D01*
X51486727Y-48460275D01*
X51552973Y-48547999D01*
X51715447Y-48696113D01*
X51902370Y-48811851D01*
X52107378Y-48891272D01*
X52323488Y-48931670D01*
X52323490Y-48931670D01*
X52543340Y-48931670D01*
X52543342Y-48931670D01*
X52759452Y-48891272D01*
X52964460Y-48811851D01*
X53151383Y-48696113D01*
X53313857Y-48547999D01*
X53446348Y-48372552D01*
X53544346Y-48175747D01*
X53584148Y-48035852D01*
X53621427Y-47976760D01*
X53684737Y-47947202D01*
X53753976Y-47956564D01*
X53807163Y-48001873D01*
X53822682Y-48035854D01*
X53862484Y-48175749D01*
X53960478Y-48372546D01*
X53960483Y-48372554D01*
X54026727Y-48460275D01*
X54092973Y-48547999D01*
X54255447Y-48696113D01*
X54442370Y-48811851D01*
X54647378Y-48891272D01*
X54863488Y-48931670D01*
X54863490Y-48931670D01*
X55083340Y-48931670D01*
X55083342Y-48931670D01*
X55299452Y-48891272D01*
X55504460Y-48811851D01*
X55691383Y-48696113D01*
X55853857Y-48547999D01*
X55986348Y-48372552D01*
X56084346Y-48175747D01*
X56124148Y-48035852D01*
X56161427Y-47976760D01*
X56224737Y-47947202D01*
X56293976Y-47956564D01*
X56347163Y-48001873D01*
X56362682Y-48035854D01*
X56402484Y-48175749D01*
X56500478Y-48372546D01*
X56500483Y-48372554D01*
X56566727Y-48460275D01*
X56632973Y-48547999D01*
X56795447Y-48696113D01*
X56982370Y-48811851D01*
X57187378Y-48891272D01*
X57403488Y-48931670D01*
X57403490Y-48931670D01*
X57623340Y-48931670D01*
X57623342Y-48931670D01*
X57839452Y-48891272D01*
X58044460Y-48811851D01*
X58231383Y-48696113D01*
X58393857Y-48547999D01*
X58526348Y-48372552D01*
X58624346Y-48175747D01*
X58684511Y-47964286D01*
X58704797Y-47745370D01*
X58684511Y-47526454D01*
X58624346Y-47314993D01*
X58624345Y-47314990D01*
X58526351Y-47118193D01*
X58526346Y-47118185D01*
X58491883Y-47072549D01*
X58393857Y-46942741D01*
X58231383Y-46794627D01*
X58206316Y-46779106D01*
X58044461Y-46678889D01*
X58044459Y-46678888D01*
X57973697Y-46651475D01*
X57839452Y-46599468D01*
X57623342Y-46559070D01*
X57403488Y-46559070D01*
X57187378Y-46599468D01*
X57130134Y-46621644D01*
X56982370Y-46678888D01*
X56982368Y-46678889D01*
X56795451Y-46794624D01*
X56795449Y-46794625D01*
X56795447Y-46794627D01*
X56670547Y-46908488D01*
X56632972Y-46942742D01*
X56500483Y-47118185D01*
X56500478Y-47118193D01*
X56402485Y-47314989D01*
X56402485Y-47314990D01*
X56402484Y-47314993D01*
X56381324Y-47389366D01*
X56362682Y-47454886D01*
X56325403Y-47513979D01*
X56262093Y-47543537D01*
X56192853Y-47534175D01*
X56139667Y-47488866D01*
X56124148Y-47454886D01*
X56115840Y-47425686D01*
X56084346Y-47314993D01*
X56082790Y-47311868D01*
X55986351Y-47118193D01*
X55986346Y-47118185D01*
X55951883Y-47072549D01*
X55853857Y-46942741D01*
X55691383Y-46794627D01*
X55666316Y-46779106D01*
X55504461Y-46678889D01*
X55504459Y-46678888D01*
X55433697Y-46651475D01*
X55299452Y-46599468D01*
X55083342Y-46559070D01*
X54863488Y-46559070D01*
X54647378Y-46599468D01*
X54590134Y-46621644D01*
X54442370Y-46678888D01*
X54442368Y-46678889D01*
X54255451Y-46794624D01*
X54255449Y-46794625D01*
X54255447Y-46794627D01*
X54130547Y-46908488D01*
X54092972Y-46942742D01*
X53960483Y-47118185D01*
X53960478Y-47118193D01*
X53862485Y-47314989D01*
X53862485Y-47314990D01*
X53862484Y-47314993D01*
X53841324Y-47389366D01*
X53822682Y-47454886D01*
X53785403Y-47513979D01*
X53722093Y-47543537D01*
X53652853Y-47534175D01*
X53599667Y-47488866D01*
X53584148Y-47454886D01*
X53575840Y-47425686D01*
X53544346Y-47314993D01*
X53542790Y-47311868D01*
X53446351Y-47118193D01*
X53446346Y-47118185D01*
X53411883Y-47072549D01*
X53313857Y-46942741D01*
X53151383Y-46794627D01*
X53126316Y-46779106D01*
X52964461Y-46678889D01*
X52964459Y-46678888D01*
X52893697Y-46651475D01*
X52759452Y-46599468D01*
X52543342Y-46559070D01*
X52323488Y-46559070D01*
X52107378Y-46599468D01*
X52050134Y-46621644D01*
X51902370Y-46678888D01*
X51902368Y-46678889D01*
X51715451Y-46794624D01*
X51715449Y-46794625D01*
X51715447Y-46794627D01*
X51590547Y-46908488D01*
X51552972Y-46942742D01*
X51420483Y-47118185D01*
X51420478Y-47118193D01*
X51322484Y-47314990D01*
X51262318Y-47526456D01*
X51242033Y-47745370D01*
X43680500Y-47745370D01*
X43680500Y-41421998D01*
X45009242Y-41421998D01*
X45009242Y-41422001D01*
X45029074Y-41648686D01*
X45029076Y-41648697D01*
X45087968Y-41868488D01*
X45087971Y-41868497D01*
X45184141Y-42074732D01*
X45184142Y-42074734D01*
X45314664Y-42261141D01*
X45475568Y-42422045D01*
X45475571Y-42422047D01*
X45661976Y-42552568D01*
X45868214Y-42648739D01*
X46088018Y-42707635D01*
X46249940Y-42721801D01*
X46314708Y-42727468D01*
X46314710Y-42727468D01*
X46314712Y-42727468D01*
X46371383Y-42722509D01*
X46541402Y-42707635D01*
X46761206Y-42648739D01*
X46967444Y-42552568D01*
X47153849Y-42422047D01*
X47314757Y-42261139D01*
X47445278Y-42074734D01*
X47541449Y-41868496D01*
X47600345Y-41648692D01*
X47620178Y-41422000D01*
X47600345Y-41195308D01*
X47541449Y-40975504D01*
X47445278Y-40769266D01*
X47314757Y-40582861D01*
X47314755Y-40582858D01*
X47153851Y-40421954D01*
X46967444Y-40291432D01*
X46967442Y-40291431D01*
X46761207Y-40195261D01*
X46761198Y-40195258D01*
X46541407Y-40136366D01*
X46541403Y-40136365D01*
X46541402Y-40136365D01*
X46541401Y-40136364D01*
X46541396Y-40136364D01*
X46415732Y-40125370D01*
X48702033Y-40125370D01*
X48722318Y-40344283D01*
X48782484Y-40555749D01*
X48880478Y-40752546D01*
X48880483Y-40752554D01*
X48946727Y-40840275D01*
X49012973Y-40927999D01*
X49175447Y-41076113D01*
X49300062Y-41153271D01*
X49325002Y-41168714D01*
X49362370Y-41191851D01*
X49567378Y-41271272D01*
X49783488Y-41311670D01*
X49783490Y-41311670D01*
X50003340Y-41311670D01*
X50003342Y-41311670D01*
X50219452Y-41271272D01*
X50424460Y-41191851D01*
X50611383Y-41076113D01*
X50773857Y-40927999D01*
X50906348Y-40752552D01*
X51004346Y-40555747D01*
X51044148Y-40415852D01*
X51081427Y-40356760D01*
X51144737Y-40327202D01*
X51213976Y-40336564D01*
X51267163Y-40381873D01*
X51282680Y-40415851D01*
X51297759Y-40468847D01*
X51322484Y-40555749D01*
X51420478Y-40752546D01*
X51420483Y-40752554D01*
X51486727Y-40840275D01*
X51552973Y-40927999D01*
X51715447Y-41076113D01*
X51840062Y-41153271D01*
X51865002Y-41168714D01*
X51902370Y-41191851D01*
X52107378Y-41271272D01*
X52323488Y-41311670D01*
X52323490Y-41311670D01*
X52543340Y-41311670D01*
X52543342Y-41311670D01*
X52759452Y-41271272D01*
X52964460Y-41191851D01*
X53151383Y-41076113D01*
X53313857Y-40927999D01*
X53446348Y-40752552D01*
X53544346Y-40555747D01*
X53584148Y-40415852D01*
X53621427Y-40356760D01*
X53684737Y-40327202D01*
X53753976Y-40336564D01*
X53807163Y-40381873D01*
X53822680Y-40415851D01*
X53837759Y-40468847D01*
X53862484Y-40555749D01*
X53960478Y-40752546D01*
X53960483Y-40752554D01*
X54026727Y-40840275D01*
X54092973Y-40927999D01*
X54255447Y-41076113D01*
X54380062Y-41153271D01*
X54405002Y-41168714D01*
X54442370Y-41191851D01*
X54647378Y-41271272D01*
X54863488Y-41311670D01*
X54863490Y-41311670D01*
X55083340Y-41311670D01*
X55083342Y-41311670D01*
X55299452Y-41271272D01*
X55504460Y-41191851D01*
X55691383Y-41076113D01*
X55853857Y-40927999D01*
X55986348Y-40752552D01*
X56084346Y-40555747D01*
X56084347Y-40555741D01*
X56086417Y-40550402D01*
X56087955Y-40550997D01*
X56121103Y-40498421D01*
X56184405Y-40468847D01*
X56253647Y-40478190D01*
X56306845Y-40523486D01*
X56327110Y-40590352D01*
X56327115Y-40591427D01*
X56327115Y-40859039D01*
X56327116Y-40859046D01*
X56333523Y-40918653D01*
X56383817Y-41053498D01*
X56383821Y-41053505D01*
X56470067Y-41168714D01*
X56470070Y-41168717D01*
X56585279Y-41254963D01*
X56585286Y-41254967D01*
X56720132Y-41305261D01*
X56720131Y-41305261D01*
X56727059Y-41306005D01*
X56779742Y-41311670D01*
X58247087Y-41311669D01*
X58306698Y-41305261D01*
X58441546Y-41254966D01*
X58556761Y-41168716D01*
X58643011Y-41053501D01*
X58693306Y-40918653D01*
X58699715Y-40859043D01*
X58699714Y-39391698D01*
X58693306Y-39332087D01*
X58689820Y-39322741D01*
X58643012Y-39197241D01*
X58643008Y-39197234D01*
X58556762Y-39082025D01*
X58556759Y-39082022D01*
X58441550Y-38995776D01*
X58441543Y-38995772D01*
X58306697Y-38945478D01*
X58306698Y-38945478D01*
X58247098Y-38939071D01*
X58247096Y-38939070D01*
X58247088Y-38939070D01*
X58247079Y-38939070D01*
X56779744Y-38939070D01*
X56779738Y-38939071D01*
X56720131Y-38945478D01*
X56585286Y-38995772D01*
X56585279Y-38995776D01*
X56470070Y-39082022D01*
X56470067Y-39082025D01*
X56383821Y-39197234D01*
X56383817Y-39197241D01*
X56333523Y-39332087D01*
X56327116Y-39391686D01*
X56327116Y-39391693D01*
X56327115Y-39391705D01*
X56327115Y-39659309D01*
X56307430Y-39726348D01*
X56254626Y-39772103D01*
X56185468Y-39782047D01*
X56121912Y-39753022D01*
X56087727Y-39699830D01*
X56086417Y-39700338D01*
X56084345Y-39694991D01*
X55986351Y-39498193D01*
X55986346Y-39498185D01*
X55905931Y-39391699D01*
X55853857Y-39322741D01*
X55691383Y-39174627D01*
X55633025Y-39138493D01*
X55504461Y-39058889D01*
X55504459Y-39058888D01*
X55433697Y-39031475D01*
X55299452Y-38979468D01*
X55083342Y-38939070D01*
X54863488Y-38939070D01*
X54647378Y-38979468D01*
X54590134Y-39001644D01*
X54442370Y-39058888D01*
X54442368Y-39058889D01*
X54255451Y-39174624D01*
X54255449Y-39174625D01*
X54255447Y-39174627D01*
X54146401Y-39274035D01*
X54092972Y-39322742D01*
X53960483Y-39498185D01*
X53960478Y-39498193D01*
X53862485Y-39694989D01*
X53862484Y-39694993D01*
X53837716Y-39782047D01*
X53822682Y-39834886D01*
X53785403Y-39893979D01*
X53722093Y-39923537D01*
X53652853Y-39914175D01*
X53599667Y-39868866D01*
X53584148Y-39834886D01*
X53544346Y-39694993D01*
X53526577Y-39659309D01*
X53446351Y-39498193D01*
X53446346Y-39498185D01*
X53365931Y-39391699D01*
X53313857Y-39322741D01*
X53151383Y-39174627D01*
X53093025Y-39138493D01*
X52964461Y-39058889D01*
X52964459Y-39058888D01*
X52893697Y-39031475D01*
X52759452Y-38979468D01*
X52543342Y-38939070D01*
X52323488Y-38939070D01*
X52107378Y-38979468D01*
X52050134Y-39001644D01*
X51902370Y-39058888D01*
X51902368Y-39058889D01*
X51715451Y-39174624D01*
X51715449Y-39174625D01*
X51715447Y-39174627D01*
X51606401Y-39274035D01*
X51552972Y-39322742D01*
X51420483Y-39498185D01*
X51420478Y-39498193D01*
X51322485Y-39694989D01*
X51322484Y-39694993D01*
X51297716Y-39782047D01*
X51282682Y-39834886D01*
X51245403Y-39893979D01*
X51182093Y-39923537D01*
X51112853Y-39914175D01*
X51059667Y-39868866D01*
X51044148Y-39834886D01*
X51004346Y-39694993D01*
X50986577Y-39659309D01*
X50906351Y-39498193D01*
X50906346Y-39498185D01*
X50825931Y-39391699D01*
X50773857Y-39322741D01*
X50611383Y-39174627D01*
X50553025Y-39138493D01*
X50424461Y-39058889D01*
X50424459Y-39058888D01*
X50353697Y-39031475D01*
X50219452Y-38979468D01*
X50003342Y-38939070D01*
X49783488Y-38939070D01*
X49567378Y-38979468D01*
X49510134Y-39001644D01*
X49362370Y-39058888D01*
X49362368Y-39058889D01*
X49175451Y-39174624D01*
X49175449Y-39174625D01*
X49175447Y-39174627D01*
X49066401Y-39274035D01*
X49012972Y-39322742D01*
X48880483Y-39498185D01*
X48880478Y-39498193D01*
X48782484Y-39694990D01*
X48722318Y-39906456D01*
X48702033Y-40125370D01*
X46415732Y-40125370D01*
X46314712Y-40116532D01*
X46314708Y-40116532D01*
X46088023Y-40136364D01*
X46088012Y-40136366D01*
X45868221Y-40195258D01*
X45868212Y-40195261D01*
X45661977Y-40291431D01*
X45661975Y-40291432D01*
X45475568Y-40421954D01*
X45314664Y-40582858D01*
X45184142Y-40769265D01*
X45184141Y-40769267D01*
X45087971Y-40975502D01*
X45087968Y-40975511D01*
X45029076Y-41195302D01*
X45029074Y-41195313D01*
X45009242Y-41421998D01*
X43680500Y-41421998D01*
X43680500Y-38099999D01*
X44364341Y-38099999D01*
X44364341Y-38100000D01*
X44384936Y-38335403D01*
X44384938Y-38335413D01*
X44446094Y-38563655D01*
X44446096Y-38563659D01*
X44446097Y-38563663D01*
X44545965Y-38777830D01*
X44545967Y-38777834D01*
X44654281Y-38932521D01*
X44681505Y-38971401D01*
X44848599Y-39138495D01*
X44900197Y-39174624D01*
X45042165Y-39274032D01*
X45042167Y-39274033D01*
X45042170Y-39274035D01*
X45256337Y-39373903D01*
X45484592Y-39435063D01*
X45672918Y-39451539D01*
X45719999Y-39455659D01*
X45720000Y-39455659D01*
X45720001Y-39455659D01*
X45759234Y-39452226D01*
X45955408Y-39435063D01*
X46183663Y-39373903D01*
X46397830Y-39274035D01*
X46591401Y-39138495D01*
X46758495Y-38971401D01*
X46894035Y-38777830D01*
X46993903Y-38563663D01*
X47055063Y-38335408D01*
X47075659Y-38100000D01*
X47075659Y-38099999D01*
X59604341Y-38099999D01*
X59604341Y-38100000D01*
X59624936Y-38335403D01*
X59624938Y-38335413D01*
X59686094Y-38563655D01*
X59686096Y-38563659D01*
X59686097Y-38563663D01*
X59785965Y-38777830D01*
X59785967Y-38777834D01*
X59894281Y-38932521D01*
X59921505Y-38971401D01*
X60088599Y-39138495D01*
X60140197Y-39174624D01*
X60282165Y-39274032D01*
X60282167Y-39274033D01*
X60282170Y-39274035D01*
X60496337Y-39373903D01*
X60724592Y-39435063D01*
X60912918Y-39451539D01*
X60959999Y-39455659D01*
X60960000Y-39455659D01*
X60960001Y-39455659D01*
X60999234Y-39452226D01*
X61195408Y-39435063D01*
X61423663Y-39373903D01*
X61637830Y-39274035D01*
X61831401Y-39138495D01*
X61998495Y-38971401D01*
X62134035Y-38777830D01*
X62233903Y-38563663D01*
X62295063Y-38335408D01*
X62315659Y-38100000D01*
X62295063Y-37864592D01*
X62233903Y-37636337D01*
X62134035Y-37422171D01*
X61998495Y-37228599D01*
X61876567Y-37106671D01*
X61843084Y-37045351D01*
X61848068Y-36975659D01*
X61889939Y-36919725D01*
X61920915Y-36902810D01*
X62052331Y-36853796D01*
X62167546Y-36767546D01*
X62253796Y-36652331D01*
X62304091Y-36517483D01*
X62310500Y-36457873D01*
X62310499Y-34662128D01*
X62304091Y-34602517D01*
X62253796Y-34467669D01*
X62253795Y-34467668D01*
X62253793Y-34467664D01*
X62167547Y-34352455D01*
X62167544Y-34352452D01*
X62052335Y-34266206D01*
X62052328Y-34266202D01*
X61917482Y-34215908D01*
X61917483Y-34215908D01*
X61857883Y-34209501D01*
X61857881Y-34209500D01*
X61857873Y-34209500D01*
X61857864Y-34209500D01*
X60062129Y-34209500D01*
X60062123Y-34209501D01*
X60002516Y-34215908D01*
X59867671Y-34266202D01*
X59867664Y-34266206D01*
X59752455Y-34352452D01*
X59752452Y-34352455D01*
X59666206Y-34467664D01*
X59666202Y-34467671D01*
X59615908Y-34602517D01*
X59609501Y-34662116D01*
X59609501Y-34662123D01*
X59609500Y-34662135D01*
X59609500Y-36457870D01*
X59609501Y-36457876D01*
X59615908Y-36517483D01*
X59666202Y-36652328D01*
X59666206Y-36652335D01*
X59752452Y-36767544D01*
X59752455Y-36767547D01*
X59867664Y-36853793D01*
X59867671Y-36853797D01*
X59999081Y-36902810D01*
X60055015Y-36944681D01*
X60079432Y-37010145D01*
X60064580Y-37078418D01*
X60043430Y-37106673D01*
X59921503Y-37228600D01*
X59785965Y-37422169D01*
X59785964Y-37422171D01*
X59686098Y-37636335D01*
X59686094Y-37636344D01*
X59624938Y-37864586D01*
X59624936Y-37864596D01*
X59604341Y-38099999D01*
X47075659Y-38099999D01*
X47055063Y-37864592D01*
X46993903Y-37636337D01*
X46894035Y-37422171D01*
X46758495Y-37228599D01*
X46758494Y-37228597D01*
X46591402Y-37061506D01*
X46591395Y-37061501D01*
X46397834Y-36925967D01*
X46397830Y-36925965D01*
X46348174Y-36902810D01*
X46183663Y-36826097D01*
X46183659Y-36826096D01*
X46183655Y-36826094D01*
X45955413Y-36764938D01*
X45955403Y-36764936D01*
X45720001Y-36744341D01*
X45719999Y-36744341D01*
X45484596Y-36764936D01*
X45484586Y-36764938D01*
X45256344Y-36826094D01*
X45256335Y-36826098D01*
X45042171Y-36925964D01*
X45042169Y-36925965D01*
X44848597Y-37061505D01*
X44681505Y-37228597D01*
X44545965Y-37422169D01*
X44545964Y-37422171D01*
X44446098Y-37636335D01*
X44446094Y-37636344D01*
X44384938Y-37864586D01*
X44384936Y-37864596D01*
X44364341Y-38099999D01*
X43680500Y-38099999D01*
X43680500Y-33644500D01*
X43700185Y-33577461D01*
X43752989Y-33531706D01*
X43804500Y-33520500D01*
X62875500Y-33520500D01*
X62942539Y-33540185D01*
G37*
%TD.AperFunction*%
%TD*%
M02*
