M48
; DRILL file {KiCad 8.0.6} date 2025-02-14T15:15:21-0700
; FORMAT={-:-/ absolute / inch / decimal}
; #@! TF.CreationDate,2025-02-14T15:15:21-07:00
; #@! TF.GenerationSoftware,Kicad,Pcbnew,8.0.6
; #@! TF.FileFunction,Plated,1,2,PTH
FMAT,2
INCH
; #@! TA.AperFunction,Plated,PTH,ComponentDrill
T1C0.0315
; #@! TA.AperFunction,Plated,PTH,ComponentDrill
T2C0.0340
; #@! TA.AperFunction,Plated,PTH,ComponentDrill
T3C0.0394
%
G90
G05
T1
X1.8234Y-1.6308
X1.8234Y-1.7292
X2.134Y-2.0273
X2.134Y-2.4273
X2.2575Y-2.0273
X2.2575Y-2.4273
X2.41Y-1.7308
X2.41Y-1.8292
T2
X1.9643Y-1.5797
X1.9643Y-1.8797
X2.0643Y-1.5797
X2.0643Y-1.8797
X2.1643Y-1.5797
X2.1643Y-1.8797
X2.2643Y-1.5797
X2.2643Y-1.8797
T3
X1.8Y-1.4
X1.8Y-1.5
X1.8Y-2.0
X1.8Y-2.1
X1.8Y-2.2
X1.9953Y-2.1
X1.9953Y-2.2
X2.4Y-1.4
X2.4Y-1.5
X2.4Y-2.3
X2.4Y-2.4
M30
