%TF.GenerationSoftware,KiCad,Pcbnew,8.0.6*%
%TF.CreationDate,2025-02-14T15:15:11-07:00*%
%TF.ProjectId,KiCad_Curve_Tracer,4b694361-645f-4437-9572-76655f547261,rev?*%
%TF.SameCoordinates,Original*%
%TF.FileFunction,Copper,L1,Top*%
%TF.FilePolarity,Positive*%
%FSLAX46Y46*%
G04 Gerber Fmt 4.6, Leading zero omitted, Abs format (unit mm)*
G04 Created by KiCad (PCBNEW 8.0.6) date 2025-02-14 15:15:11*
%MOMM*%
%LPD*%
G01*
G04 APERTURE LIST*
%TA.AperFunction,ComponentPad*%
%ADD10R,1.700000X1.700000*%
%TD*%
%TA.AperFunction,ComponentPad*%
%ADD11O,1.700000X1.700000*%
%TD*%
%TA.AperFunction,ComponentPad*%
%ADD12C,1.600000*%
%TD*%
%TA.AperFunction,ComponentPad*%
%ADD13O,1.600000X1.600000*%
%TD*%
%TA.AperFunction,ComponentPad*%
%ADD14R,1.371600X1.371600*%
%TD*%
%TA.AperFunction,ComponentPad*%
%ADD15C,1.371600*%
%TD*%
%TA.AperFunction,Conductor*%
%ADD16C,0.750000*%
%TD*%
G04 APERTURE END LIST*
D10*
%TO.P,J1,1,Pin_1*%
%TO.N,GND*%
X45720000Y-35560000D03*
D11*
%TO.P,J1,2,Pin_2*%
%TO.N,/opamp curve tracer/Vi*%
X45720000Y-38100000D03*
%TD*%
D10*
%TO.P,J5,1,Pin_1*%
%TO.N,/opamp curve tracer/Vo*%
X60960000Y-58420000D03*
D11*
%TO.P,J5,2,Pin_2*%
%TO.N,GND*%
X60960000Y-60960000D03*
%TD*%
D12*
%TO.P,R1,1*%
%TO.N,/opamp curve tracer/rng*%
X57340842Y-61653113D03*
D13*
%TO.P,R1,2*%
%TO.N,/opamp curve tracer/Vo*%
X57340842Y-51493113D03*
%TD*%
D10*
%TO.P,J2,1,Pin_1*%
%TO.N,/opamp curve tracer/DUT+*%
X60960000Y-35560000D03*
D11*
%TO.P,J2,2,Pin_2*%
%TO.N,/opamp curve tracer/DUT-*%
X60960000Y-38100000D03*
%TD*%
D12*
%TO.P,C2,1*%
%TO.N,/opamp curve tracer/V-*%
X46314710Y-41422000D03*
%TO.P,C2,2*%
%TO.N,GND*%
X46314710Y-43922000D03*
%TD*%
D14*
%TO.P,U1,1*%
%TO.N,/opamp curve tracer/DUT+*%
X57513415Y-40125370D03*
D15*
%TO.P,U1,2,-*%
X54973415Y-40125370D03*
%TO.P,U1,3,+*%
%TO.N,/opamp curve tracer/Vi*%
X52433415Y-40125370D03*
%TO.P,U1,4,V-*%
%TO.N,/opamp curve tracer/V-*%
X49893415Y-40125370D03*
%TO.P,U1,5,+*%
%TO.N,GND*%
X49893415Y-47745370D03*
%TO.P,U1,6,-*%
%TO.N,/opamp curve tracer/DUT-*%
X52433415Y-47745370D03*
%TO.P,U1,7*%
%TO.N,/opamp curve tracer/Vo*%
X54973415Y-47745370D03*
%TO.P,U1,8,V+*%
%TO.N,/opamp curve tracer/V+*%
X57513415Y-47745370D03*
%TD*%
D12*
%TO.P,R2,1*%
%TO.N,/opamp curve tracer/DUT-*%
X54204239Y-51493113D03*
D13*
%TO.P,R2,2*%
%TO.N,/opamp curve tracer/rng*%
X54204239Y-61653113D03*
%TD*%
D12*
%TO.P,C1,1*%
%TO.N,/opamp curve tracer/V+*%
X61214000Y-46462000D03*
%TO.P,C1,2*%
%TO.N,GND*%
X61214000Y-43962000D03*
%TD*%
D10*
%TO.P,J4,1,Pin_1*%
%TO.N,/opamp curve tracer/V-*%
X45720000Y-50800000D03*
D11*
%TO.P,J4,2,Pin_2*%
%TO.N,GND*%
X45720000Y-53340000D03*
%TO.P,J4,3,Pin_3*%
%TO.N,/opamp curve tracer/V+*%
X45720000Y-55880000D03*
%TD*%
D10*
%TO.P,J3,1,Pin_1*%
%TO.N,/opamp curve tracer/Vo*%
X50681593Y-53340000D03*
D11*
%TO.P,J3,2,Pin_2*%
%TO.N,/opamp curve tracer/rng*%
X50681593Y-55880000D03*
%TD*%
D16*
%TO.N,/opamp curve tracer/DUT-*%
X52433415Y-49722289D02*
X54204239Y-51493113D01*
X52433415Y-47745370D02*
X52433415Y-49722289D01*
X53848000Y-44196000D02*
X52433415Y-45610585D01*
X52433415Y-45610585D02*
X52433415Y-47745370D01*
X56388000Y-44196000D02*
X53848000Y-44196000D01*
X60960000Y-39624000D02*
X56388000Y-44196000D01*
X60960000Y-38100000D02*
X60960000Y-39624000D01*
%TO.N,/opamp curve tracer/V+*%
X59930630Y-47745370D02*
X61214000Y-46462000D01*
X57513415Y-47745370D02*
X59930630Y-47745370D01*
X57683682Y-47789831D02*
X57695831Y-47789831D01*
%TO.N,/opamp curve tracer/V-*%
X46314710Y-41422000D02*
X48596785Y-41422000D01*
X44650523Y-43086187D02*
X44650523Y-49730523D01*
X44650523Y-49730523D02*
X45720000Y-50800000D01*
X48596785Y-41422000D02*
X49893415Y-40125370D01*
X46314710Y-41422000D02*
X44650523Y-43086187D01*
%TO.N,/opamp curve tracer/Vi*%
X45720000Y-38100000D02*
X50408045Y-38100000D01*
X50408045Y-38100000D02*
X52433415Y-40125370D01*
%TO.N,/opamp curve tracer/DUT-*%
X54204239Y-51493113D02*
X53641158Y-51493113D01*
%TO.N,/opamp curve tracer/DUT+*%
X54973415Y-40125370D02*
X57513415Y-40125370D01*
X54973415Y-37482585D02*
X54973415Y-40125370D01*
X60960000Y-35560000D02*
X56896000Y-35560000D01*
X56896000Y-35560000D02*
X54973415Y-37482585D01*
%TO.N,/opamp curve tracer/Vo*%
X57335113Y-51493113D02*
X54973415Y-49131415D01*
X57404000Y-58420000D02*
X60960000Y-58420000D01*
X57340842Y-51493113D02*
X57340842Y-54800842D01*
X54973415Y-49131415D02*
X54973415Y-47745370D01*
X52324000Y-53340000D02*
X57404000Y-58420000D01*
X50681593Y-53340000D02*
X52324000Y-53340000D01*
X57340842Y-54800842D02*
X60960000Y-58420000D01*
X57340842Y-51493113D02*
X57335113Y-51493113D01*
%TO.N,/opamp curve tracer/rng*%
X57340842Y-61653113D02*
X54204239Y-61653113D01*
X50681593Y-55880000D02*
X50681593Y-58130467D01*
X50681593Y-58130467D02*
X54204239Y-61653113D01*
%TD*%
%TA.AperFunction,Conductor*%
%TO.N,GND*%
G36*
X62942539Y-33540185D02*
G01*
X62988294Y-33592989D01*
X62999500Y-33644500D01*
X62999500Y-64145500D01*
X62979815Y-64212539D01*
X62927011Y-64258294D01*
X62875500Y-64269500D01*
X43804500Y-64269500D01*
X43737461Y-64249815D01*
X43691706Y-64197011D01*
X43680500Y-64145500D01*
X43680500Y-55879999D01*
X44364341Y-55879999D01*
X44364341Y-55880000D01*
X44384936Y-56115403D01*
X44384938Y-56115413D01*
X44446094Y-56343655D01*
X44446096Y-56343659D01*
X44446097Y-56343663D01*
X44545965Y-56557830D01*
X44545967Y-56557834D01*
X44654281Y-56712521D01*
X44681505Y-56751401D01*
X44848599Y-56918495D01*
X44945384Y-56986265D01*
X45042165Y-57054032D01*
X45042167Y-57054033D01*
X45042170Y-57054035D01*
X45256337Y-57153903D01*
X45484592Y-57215063D01*
X45672918Y-57231539D01*
X45719999Y-57235659D01*
X45720000Y-57235659D01*
X45720001Y-57235659D01*
X45759234Y-57232226D01*
X45955408Y-57215063D01*
X46183663Y-57153903D01*
X46397830Y-57054035D01*
X46591401Y-56918495D01*
X46758495Y-56751401D01*
X46894035Y-56557830D01*
X46993903Y-56343663D01*
X47055063Y-56115408D01*
X47075659Y-55880000D01*
X47055063Y-55644592D01*
X46993903Y-55416337D01*
X46894035Y-55202171D01*
X46791840Y-55056220D01*
X46758494Y-55008597D01*
X46591402Y-54841506D01*
X46591395Y-54841501D01*
X46397834Y-54705967D01*
X46397830Y-54705965D01*
X46348174Y-54682810D01*
X46183663Y-54606097D01*
X46183659Y-54606096D01*
X46183655Y-54606094D01*
X45955413Y-54544938D01*
X45955403Y-54544936D01*
X45720001Y-54524341D01*
X45719999Y-54524341D01*
X45484596Y-54544936D01*
X45484586Y-54544938D01*
X45256344Y-54606094D01*
X45256335Y-54606098D01*
X45042171Y-54705964D01*
X45042169Y-54705965D01*
X44848597Y-54841505D01*
X44681505Y-55008597D01*
X44545965Y-55202169D01*
X44545964Y-55202171D01*
X44446098Y-55416335D01*
X44446094Y-55416344D01*
X44384938Y-55644586D01*
X44384936Y-55644596D01*
X44364341Y-55879999D01*
X43680500Y-55879999D01*
X43680500Y-50263413D01*
X43700185Y-50196374D01*
X43752989Y-50150619D01*
X43822147Y-50140675D01*
X43885703Y-50169700D01*
X43907602Y-50194522D01*
X43970477Y-50288621D01*
X43970480Y-50288625D01*
X44333181Y-50651325D01*
X44366666Y-50712648D01*
X44369500Y-50739006D01*
X44369500Y-51697870D01*
X44369501Y-51697876D01*
X44375908Y-51757483D01*
X44426202Y-51892328D01*
X44426206Y-51892335D01*
X44512452Y-52007544D01*
X44512455Y-52007547D01*
X44627664Y-52093793D01*
X44627671Y-52093797D01*
X44762517Y-52144091D01*
X44762516Y-52144091D01*
X44769444Y-52144835D01*
X44822127Y-52150500D01*
X46617872Y-52150499D01*
X46677483Y-52144091D01*
X46812331Y-52093796D01*
X46927546Y-52007546D01*
X47013796Y-51892331D01*
X47064091Y-51757483D01*
X47070500Y-51697873D01*
X47070499Y-49902128D01*
X47064091Y-49842517D01*
X47054481Y-49816752D01*
X47013797Y-49707671D01*
X47013793Y-49707664D01*
X46927547Y-49592455D01*
X46927544Y-49592452D01*
X46812335Y-49506206D01*
X46812328Y-49506202D01*
X46677482Y-49455908D01*
X46677483Y-49455908D01*
X46617883Y-49449501D01*
X46617881Y-49449500D01*
X46617873Y-49449500D01*
X46617865Y-49449500D01*
X45659006Y-49449500D01*
X45591967Y-49429815D01*
X45571325Y-49413181D01*
X45562342Y-49404198D01*
X45528857Y-49342875D01*
X45526023Y-49316517D01*
X45526023Y-43500192D01*
X45545708Y-43433153D01*
X45562338Y-43412515D01*
X46211916Y-42762936D01*
X46273237Y-42729453D01*
X46310403Y-42727091D01*
X46314710Y-42727468D01*
X46541402Y-42707635D01*
X46761206Y-42648739D01*
X46967444Y-42552568D01*
X47153849Y-42422047D01*
X47242078Y-42333817D01*
X47303399Y-42300334D01*
X47329758Y-42297500D01*
X48683016Y-42297500D01*
X48683017Y-42297499D01*
X48852159Y-42263855D01*
X49011490Y-42197858D01*
X49154884Y-42102045D01*
X49908940Y-41347989D01*
X49970263Y-41314504D01*
X49996621Y-41311670D01*
X50003340Y-41311670D01*
X50003342Y-41311670D01*
X50219452Y-41271272D01*
X50424460Y-41191851D01*
X50611383Y-41076113D01*
X50773857Y-40927999D01*
X50906348Y-40752552D01*
X51004346Y-40555747D01*
X51044148Y-40415852D01*
X51081427Y-40356760D01*
X51144737Y-40327202D01*
X51213976Y-40336564D01*
X51267163Y-40381873D01*
X51282680Y-40415851D01*
X51297503Y-40467945D01*
X51322484Y-40555749D01*
X51420478Y-40752546D01*
X51420483Y-40752554D01*
X51486727Y-40840275D01*
X51552973Y-40927999D01*
X51715447Y-41076113D01*
X51902370Y-41191851D01*
X52107378Y-41271272D01*
X52323488Y-41311670D01*
X52323490Y-41311670D01*
X52543340Y-41311670D01*
X52543342Y-41311670D01*
X52759452Y-41271272D01*
X52964460Y-41191851D01*
X53151383Y-41076113D01*
X53313857Y-40927999D01*
X53446348Y-40752552D01*
X53544346Y-40555747D01*
X53584148Y-40415852D01*
X53621427Y-40356760D01*
X53684737Y-40327202D01*
X53753976Y-40336564D01*
X53807163Y-40381873D01*
X53822680Y-40415851D01*
X53837503Y-40467945D01*
X53862484Y-40555749D01*
X53960478Y-40752546D01*
X53960483Y-40752554D01*
X54026727Y-40840275D01*
X54092973Y-40927999D01*
X54255447Y-41076113D01*
X54442370Y-41191851D01*
X54647378Y-41271272D01*
X54863488Y-41311670D01*
X54863490Y-41311670D01*
X55083340Y-41311670D01*
X55083342Y-41311670D01*
X55299452Y-41271272D01*
X55504460Y-41191851D01*
X55691383Y-41076113D01*
X55738420Y-41033232D01*
X55801224Y-41002616D01*
X55821958Y-41000870D01*
X56282350Y-41000870D01*
X56349389Y-41020555D01*
X56381617Y-41050559D01*
X56383818Y-41053499D01*
X56383819Y-41053501D01*
X56470069Y-41168716D01*
X56505583Y-41195302D01*
X56585279Y-41254963D01*
X56585286Y-41254967D01*
X56720132Y-41305261D01*
X56720131Y-41305261D01*
X56727059Y-41306005D01*
X56779742Y-41311670D01*
X57734823Y-41311669D01*
X57801862Y-41331353D01*
X57847617Y-41384157D01*
X57857561Y-41453316D01*
X57828536Y-41516872D01*
X57822504Y-41523350D01*
X56061675Y-43284181D01*
X56000352Y-43317666D01*
X55973994Y-43320500D01*
X53761768Y-43320500D01*
X53592633Y-43354143D01*
X53592621Y-43354146D01*
X53433301Y-43420138D01*
X53433288Y-43420145D01*
X53289901Y-43515954D01*
X53289897Y-43515957D01*
X51929814Y-44876042D01*
X51875316Y-44930540D01*
X51834002Y-44971854D01*
X51753368Y-45052487D01*
X51657560Y-45195873D01*
X51657553Y-45195886D01*
X51591561Y-45355206D01*
X51591558Y-45355218D01*
X51557915Y-45524351D01*
X51557915Y-46894636D01*
X51538230Y-46961675D01*
X51532869Y-46969363D01*
X51420483Y-47118185D01*
X51420478Y-47118193D01*
X51322484Y-47314990D01*
X51262318Y-47526456D01*
X51242033Y-47745370D01*
X51262318Y-47964283D01*
X51322484Y-48175749D01*
X51420478Y-48372546D01*
X51420483Y-48372554D01*
X51460400Y-48425412D01*
X51532869Y-48521377D01*
X51557561Y-48586737D01*
X51557915Y-48596103D01*
X51557915Y-49808522D01*
X51591558Y-49977655D01*
X51591561Y-49977667D01*
X51657553Y-50136987D01*
X51657560Y-50137000D01*
X51753369Y-50280387D01*
X51753372Y-50280391D01*
X52737739Y-51264757D01*
X52771224Y-51326080D01*
X52771676Y-51376627D01*
X52765658Y-51406884D01*
X52765658Y-51579346D01*
X52799301Y-51748479D01*
X52799304Y-51748491D01*
X52865296Y-51907811D01*
X52865303Y-51907824D01*
X52961111Y-52051210D01*
X52961112Y-52051211D01*
X52961113Y-52051212D01*
X53083059Y-52173158D01*
X53083062Y-52173160D01*
X53083063Y-52173161D01*
X53087770Y-52177024D01*
X53087283Y-52177617D01*
X53114696Y-52204437D01*
X53204193Y-52332254D01*
X53365097Y-52493158D01*
X53372219Y-52498145D01*
X53551505Y-52623681D01*
X53757743Y-52719852D01*
X53977547Y-52778748D01*
X54139469Y-52792914D01*
X54204237Y-52798581D01*
X54204239Y-52798581D01*
X54204241Y-52798581D01*
X54260912Y-52793622D01*
X54430931Y-52778748D01*
X54650735Y-52719852D01*
X54856973Y-52623681D01*
X55043378Y-52493160D01*
X55204286Y-52332252D01*
X55334807Y-52145847D01*
X55430978Y-51939609D01*
X55489874Y-51719805D01*
X55509707Y-51493113D01*
X55509233Y-51487700D01*
X55495093Y-51326080D01*
X55489874Y-51266421D01*
X55470411Y-51193783D01*
X55472074Y-51123936D01*
X55511236Y-51066073D01*
X55575465Y-51038569D01*
X55644367Y-51050155D01*
X55677867Y-51074011D01*
X55999442Y-51395586D01*
X56032927Y-51456909D01*
X56034887Y-51487700D01*
X56035374Y-51487700D01*
X56035374Y-51493114D01*
X56055206Y-51719799D01*
X56055208Y-51719810D01*
X56114100Y-51939601D01*
X56114103Y-51939610D01*
X56210273Y-52145845D01*
X56210274Y-52145847D01*
X56340793Y-52332250D01*
X56340794Y-52332251D01*
X56340795Y-52332252D01*
X56429024Y-52420481D01*
X56462508Y-52481802D01*
X56465342Y-52508161D01*
X56465342Y-54887075D01*
X56498985Y-55056208D01*
X56498988Y-55056220D01*
X56564980Y-55215540D01*
X56564987Y-55215553D01*
X56660796Y-55358940D01*
X56660799Y-55358944D01*
X58634675Y-57332819D01*
X58668160Y-57394142D01*
X58663176Y-57463834D01*
X58621304Y-57519767D01*
X58555840Y-57544184D01*
X58546994Y-57544500D01*
X57818006Y-57544500D01*
X57750967Y-57524815D01*
X57730325Y-57508181D01*
X52882102Y-52659957D01*
X52882098Y-52659954D01*
X52738711Y-52564145D01*
X52738698Y-52564138D01*
X52579378Y-52498146D01*
X52579366Y-52498143D01*
X52410232Y-52464500D01*
X52410229Y-52464500D01*
X52142357Y-52464500D01*
X52075318Y-52444815D01*
X52029563Y-52392011D01*
X52026175Y-52383833D01*
X51975390Y-52247671D01*
X51975386Y-52247664D01*
X51889140Y-52132455D01*
X51889137Y-52132452D01*
X51773928Y-52046206D01*
X51773921Y-52046202D01*
X51639075Y-51995908D01*
X51639076Y-51995908D01*
X51579476Y-51989501D01*
X51579474Y-51989500D01*
X51579466Y-51989500D01*
X51579457Y-51989500D01*
X49783722Y-51989500D01*
X49783716Y-51989501D01*
X49724109Y-51995908D01*
X49589264Y-52046202D01*
X49589257Y-52046206D01*
X49474048Y-52132452D01*
X49474045Y-52132455D01*
X49387799Y-52247664D01*
X49387795Y-52247671D01*
X49337501Y-52382517D01*
X49331094Y-52442116D01*
X49331093Y-52442135D01*
X49331093Y-54237870D01*
X49331094Y-54237876D01*
X49337501Y-54297483D01*
X49387795Y-54432328D01*
X49387799Y-54432335D01*
X49474045Y-54547544D01*
X49474048Y-54547547D01*
X49589257Y-54633793D01*
X49589264Y-54633797D01*
X49720674Y-54682810D01*
X49776608Y-54724681D01*
X49801025Y-54790145D01*
X49786173Y-54858418D01*
X49765023Y-54886673D01*
X49643096Y-55008600D01*
X49507558Y-55202169D01*
X49507557Y-55202171D01*
X49407691Y-55416335D01*
X49407687Y-55416344D01*
X49346531Y-55644586D01*
X49346529Y-55644596D01*
X49325934Y-55879999D01*
X49325934Y-55880000D01*
X49346529Y-56115403D01*
X49346531Y-56115413D01*
X49407687Y-56343655D01*
X49407689Y-56343659D01*
X49407690Y-56343663D01*
X49507558Y-56557830D01*
X49507560Y-56557834D01*
X49643094Y-56751395D01*
X49643099Y-56751402D01*
X49769774Y-56878077D01*
X49803259Y-56939400D01*
X49806093Y-56965758D01*
X49806093Y-58216700D01*
X49839736Y-58385833D01*
X49839739Y-58385845D01*
X49905731Y-58545165D01*
X49905738Y-58545178D01*
X50001547Y-58688565D01*
X50001550Y-58688569D01*
X52863300Y-61550318D01*
X52896785Y-61611641D01*
X52899148Y-61648798D01*
X52898771Y-61653110D01*
X52898771Y-61653114D01*
X52918603Y-61879799D01*
X52918605Y-61879810D01*
X52977497Y-62099601D01*
X52977500Y-62099610D01*
X53073670Y-62305845D01*
X53073671Y-62305847D01*
X53204193Y-62492254D01*
X53365097Y-62653158D01*
X53365100Y-62653160D01*
X53551505Y-62783681D01*
X53757743Y-62879852D01*
X53977547Y-62938748D01*
X54139469Y-62952914D01*
X54204237Y-62958581D01*
X54204239Y-62958581D01*
X54204241Y-62958581D01*
X54260912Y-62953622D01*
X54430931Y-62938748D01*
X54650735Y-62879852D01*
X54856973Y-62783681D01*
X55043378Y-62653160D01*
X55131607Y-62564930D01*
X55192928Y-62531447D01*
X55219287Y-62528613D01*
X56325794Y-62528613D01*
X56392833Y-62548298D01*
X56413470Y-62564927D01*
X56501703Y-62653160D01*
X56688108Y-62783681D01*
X56894346Y-62879852D01*
X57114150Y-62938748D01*
X57276072Y-62952914D01*
X57340840Y-62958581D01*
X57340842Y-62958581D01*
X57340844Y-62958581D01*
X57397515Y-62953622D01*
X57567534Y-62938748D01*
X57787338Y-62879852D01*
X57993576Y-62783681D01*
X58179981Y-62653160D01*
X58340889Y-62492252D01*
X58471410Y-62305847D01*
X58567581Y-62099609D01*
X58626477Y-61879805D01*
X58646310Y-61653113D01*
X58645932Y-61648798D01*
X58640643Y-61588343D01*
X58626477Y-61426421D01*
X58567581Y-61206617D01*
X58471410Y-61000379D01*
X58340889Y-60813974D01*
X58340887Y-60813971D01*
X58179983Y-60653067D01*
X57993576Y-60522545D01*
X57993574Y-60522544D01*
X57787339Y-60426374D01*
X57787330Y-60426371D01*
X57567539Y-60367479D01*
X57567535Y-60367478D01*
X57567534Y-60367478D01*
X57567533Y-60367477D01*
X57567528Y-60367477D01*
X57340844Y-60347645D01*
X57340840Y-60347645D01*
X57114155Y-60367477D01*
X57114144Y-60367479D01*
X56894353Y-60426371D01*
X56894344Y-60426374D01*
X56688109Y-60522544D01*
X56688107Y-60522545D01*
X56501704Y-60653064D01*
X56457590Y-60697179D01*
X56413473Y-60741295D01*
X56352153Y-60774779D01*
X56325794Y-60777613D01*
X55219287Y-60777613D01*
X55152248Y-60757928D01*
X55131610Y-60741298D01*
X55043378Y-60653066D01*
X55043377Y-60653065D01*
X55043376Y-60653064D01*
X54856973Y-60522545D01*
X54856971Y-60522544D01*
X54650736Y-60426374D01*
X54650727Y-60426371D01*
X54430936Y-60367479D01*
X54430932Y-60367478D01*
X54430931Y-60367478D01*
X54430930Y-60367477D01*
X54430925Y-60367477D01*
X54204241Y-60347645D01*
X54204236Y-60347645D01*
X54199924Y-60348022D01*
X54131425Y-60334251D01*
X54101444Y-60312174D01*
X51593412Y-57804142D01*
X51559927Y-57742819D01*
X51557093Y-57716461D01*
X51557093Y-56965758D01*
X51576778Y-56898719D01*
X51593412Y-56878077D01*
X51720088Y-56751401D01*
X51855628Y-56557830D01*
X51955496Y-56343663D01*
X52016656Y-56115408D01*
X52037252Y-55880000D01*
X52016656Y-55644592D01*
X51955496Y-55416337D01*
X51855628Y-55202171D01*
X51753432Y-55056220D01*
X51720089Y-55008600D01*
X51720086Y-55008597D01*
X51598160Y-54886671D01*
X51564677Y-54825351D01*
X51569661Y-54755659D01*
X51611532Y-54699725D01*
X51642508Y-54682810D01*
X51773924Y-54633796D01*
X51889139Y-54547546D01*
X51975389Y-54432331D01*
X51975390Y-54432327D01*
X51976450Y-54430912D01*
X52032384Y-54389041D01*
X52102075Y-54384057D01*
X52163398Y-54417542D01*
X56845897Y-59100042D01*
X56845901Y-59100045D01*
X56989288Y-59195854D01*
X56989301Y-59195861D01*
X57148621Y-59261853D01*
X57148626Y-59261855D01*
X57317766Y-59295499D01*
X57317769Y-59295500D01*
X57317771Y-59295500D01*
X57490229Y-59295500D01*
X59499236Y-59295500D01*
X59566275Y-59315185D01*
X59612030Y-59367989D01*
X59615418Y-59376167D01*
X59666202Y-59512328D01*
X59666206Y-59512335D01*
X59752452Y-59627544D01*
X59752455Y-59627547D01*
X59867664Y-59713793D01*
X59867671Y-59713797D01*
X60002517Y-59764091D01*
X60002516Y-59764091D01*
X60009444Y-59764835D01*
X60062127Y-59770500D01*
X61857872Y-59770499D01*
X61917483Y-59764091D01*
X62052331Y-59713796D01*
X62167546Y-59627546D01*
X62253796Y-59512331D01*
X62304091Y-59377483D01*
X62310500Y-59317873D01*
X62310499Y-57522128D01*
X62304091Y-57462517D01*
X62253796Y-57327669D01*
X62253795Y-57327668D01*
X62253793Y-57327664D01*
X62167547Y-57212455D01*
X62167544Y-57212452D01*
X62052335Y-57126206D01*
X62052328Y-57126202D01*
X61917482Y-57075908D01*
X61917483Y-57075908D01*
X61857883Y-57069501D01*
X61857881Y-57069500D01*
X61857873Y-57069500D01*
X61857865Y-57069500D01*
X60899006Y-57069500D01*
X60831967Y-57049815D01*
X60811325Y-57033181D01*
X58252661Y-54474517D01*
X58219176Y-54413194D01*
X58216342Y-54386836D01*
X58216342Y-52508161D01*
X58236027Y-52441122D01*
X58252656Y-52420484D01*
X58340889Y-52332252D01*
X58471410Y-52145847D01*
X58567581Y-51939609D01*
X58626477Y-51719805D01*
X58646310Y-51493113D01*
X58645836Y-51487700D01*
X58631696Y-51326080D01*
X58626477Y-51266421D01*
X58567581Y-51046617D01*
X58471410Y-50840379D01*
X58340889Y-50653974D01*
X58340887Y-50653971D01*
X58179983Y-50493067D01*
X57993576Y-50362545D01*
X57993574Y-50362544D01*
X57787339Y-50266374D01*
X57787330Y-50266371D01*
X57567539Y-50207479D01*
X57567535Y-50207478D01*
X57567534Y-50207478D01*
X57567533Y-50207477D01*
X57567528Y-50207477D01*
X57340844Y-50187645D01*
X57340842Y-50187645D01*
X57331263Y-50188483D01*
X57262763Y-50174713D01*
X57232779Y-50152635D01*
X55885234Y-48805090D01*
X55851749Y-48743767D01*
X55848915Y-48717409D01*
X55848915Y-48596103D01*
X55868600Y-48529064D01*
X55873952Y-48521387D01*
X55986348Y-48372552D01*
X56084346Y-48175747D01*
X56124148Y-48035852D01*
X56161427Y-47976760D01*
X56224737Y-47947202D01*
X56293976Y-47956564D01*
X56347163Y-48001873D01*
X56362682Y-48035854D01*
X56402484Y-48175749D01*
X56500478Y-48372546D01*
X56500483Y-48372554D01*
X56540400Y-48425412D01*
X56632973Y-48547999D01*
X56795447Y-48696113D01*
X56872411Y-48743767D01*
X56971450Y-48805090D01*
X56982370Y-48811851D01*
X57187378Y-48891272D01*
X57403488Y-48931670D01*
X57403490Y-48931670D01*
X57623340Y-48931670D01*
X57623342Y-48931670D01*
X57839452Y-48891272D01*
X58044460Y-48811851D01*
X58231383Y-48696113D01*
X58278420Y-48653232D01*
X58341224Y-48622616D01*
X58361958Y-48620870D01*
X60016861Y-48620870D01*
X60016862Y-48620869D01*
X60186004Y-48587225D01*
X60345335Y-48521228D01*
X60488729Y-48425415D01*
X61111206Y-47802936D01*
X61172527Y-47769453D01*
X61209693Y-47767091D01*
X61214000Y-47767468D01*
X61440692Y-47747635D01*
X61660496Y-47688739D01*
X61866734Y-47592568D01*
X62053139Y-47462047D01*
X62214047Y-47301139D01*
X62344568Y-47114734D01*
X62440739Y-46908496D01*
X62499635Y-46688692D01*
X62519468Y-46462000D01*
X62499635Y-46235308D01*
X62440739Y-46015504D01*
X62344568Y-45809266D01*
X62214047Y-45622861D01*
X62214045Y-45622858D01*
X62053141Y-45461954D01*
X61866734Y-45331432D01*
X61866732Y-45331431D01*
X61660497Y-45235261D01*
X61660488Y-45235258D01*
X61440697Y-45176366D01*
X61440693Y-45176365D01*
X61440692Y-45176365D01*
X61440691Y-45176364D01*
X61440686Y-45176364D01*
X61214002Y-45156532D01*
X61213998Y-45156532D01*
X60987313Y-45176364D01*
X60987302Y-45176366D01*
X60767511Y-45235258D01*
X60767502Y-45235261D01*
X60561267Y-45331431D01*
X60561265Y-45331432D01*
X60374858Y-45461954D01*
X60213954Y-45622858D01*
X60083432Y-45809265D01*
X60083431Y-45809267D01*
X59987261Y-46015502D01*
X59987258Y-46015511D01*
X59928366Y-46235302D01*
X59928364Y-46235313D01*
X59908532Y-46461998D01*
X59908532Y-46461999D01*
X59908909Y-46466311D01*
X59895139Y-46534810D01*
X59873061Y-46564793D01*
X59604303Y-46833552D01*
X59542983Y-46867036D01*
X59516624Y-46869870D01*
X58361958Y-46869870D01*
X58294919Y-46850185D01*
X58278420Y-46837507D01*
X58274080Y-46833551D01*
X58231383Y-46794627D01*
X58231381Y-46794626D01*
X58231379Y-46794624D01*
X58044461Y-46678889D01*
X58044459Y-46678888D01*
X57973697Y-46651475D01*
X57839452Y-46599468D01*
X57623342Y-46559070D01*
X57403488Y-46559070D01*
X57187378Y-46599468D01*
X57130134Y-46621644D01*
X56982370Y-46678888D01*
X56982368Y-46678889D01*
X56795451Y-46794624D01*
X56795449Y-46794625D01*
X56795447Y-46794627D01*
X56748410Y-46837507D01*
X56632972Y-46942742D01*
X56500483Y-47118185D01*
X56500478Y-47118193D01*
X56402485Y-47314989D01*
X56362682Y-47454886D01*
X56325403Y-47513979D01*
X56262093Y-47543537D01*
X56192853Y-47534175D01*
X56139667Y-47488866D01*
X56124148Y-47454886D01*
X56084346Y-47314993D01*
X56077448Y-47301141D01*
X55986351Y-47118193D01*
X55986346Y-47118185D01*
X55951883Y-47072549D01*
X55853857Y-46942741D01*
X55691383Y-46794627D01*
X55666316Y-46779106D01*
X55504461Y-46678889D01*
X55504459Y-46678888D01*
X55433697Y-46651475D01*
X55299452Y-46599468D01*
X55083342Y-46559070D01*
X54863488Y-46559070D01*
X54647378Y-46599468D01*
X54590134Y-46621644D01*
X54442370Y-46678888D01*
X54442368Y-46678889D01*
X54255451Y-46794624D01*
X54255449Y-46794625D01*
X54255447Y-46794627D01*
X54208410Y-46837507D01*
X54092972Y-46942742D01*
X53960483Y-47118185D01*
X53960478Y-47118193D01*
X53862485Y-47314989D01*
X53822682Y-47454886D01*
X53785403Y-47513979D01*
X53722093Y-47543537D01*
X53652853Y-47534175D01*
X53599667Y-47488866D01*
X53584148Y-47454886D01*
X53544346Y-47314993D01*
X53537448Y-47301141D01*
X53446351Y-47118193D01*
X53446346Y-47118185D01*
X53333961Y-46969363D01*
X53309269Y-46904001D01*
X53308915Y-46894636D01*
X53308915Y-46024591D01*
X53328600Y-45957552D01*
X53345234Y-45936910D01*
X54174325Y-45107819D01*
X54235648Y-45074334D01*
X54262006Y-45071500D01*
X56474231Y-45071500D01*
X56474232Y-45071499D01*
X56643374Y-45037855D01*
X56802705Y-44971858D01*
X56946099Y-44876045D01*
X61640045Y-40182099D01*
X61735858Y-40038705D01*
X61801855Y-39879374D01*
X61835500Y-39710229D01*
X61835500Y-39537771D01*
X61835500Y-39185758D01*
X61855185Y-39118719D01*
X61871819Y-39098077D01*
X61921907Y-39047989D01*
X61998495Y-38971401D01*
X62134035Y-38777830D01*
X62233903Y-38563663D01*
X62295063Y-38335408D01*
X62315659Y-38100000D01*
X62295063Y-37864592D01*
X62233903Y-37636337D01*
X62134035Y-37422171D01*
X62132483Y-37419955D01*
X61998496Y-37228600D01*
X61958077Y-37188181D01*
X61876567Y-37106671D01*
X61843084Y-37045351D01*
X61848068Y-36975659D01*
X61889939Y-36919725D01*
X61920915Y-36902810D01*
X62052331Y-36853796D01*
X62167546Y-36767546D01*
X62253796Y-36652331D01*
X62304091Y-36517483D01*
X62310500Y-36457873D01*
X62310499Y-34662128D01*
X62305299Y-34613757D01*
X62304091Y-34602516D01*
X62253797Y-34467671D01*
X62253793Y-34467664D01*
X62167547Y-34352455D01*
X62167544Y-34352452D01*
X62052335Y-34266206D01*
X62052328Y-34266202D01*
X61917482Y-34215908D01*
X61917483Y-34215908D01*
X61857883Y-34209501D01*
X61857881Y-34209500D01*
X61857873Y-34209500D01*
X61857864Y-34209500D01*
X60062129Y-34209500D01*
X60062123Y-34209501D01*
X60002516Y-34215908D01*
X59867671Y-34266202D01*
X59867664Y-34266206D01*
X59752455Y-34352452D01*
X59752452Y-34352455D01*
X59666206Y-34467664D01*
X59666202Y-34467671D01*
X59615418Y-34603833D01*
X59573547Y-34659767D01*
X59508083Y-34684184D01*
X59499236Y-34684500D01*
X56809768Y-34684500D01*
X56640633Y-34718143D01*
X56640621Y-34718146D01*
X56481301Y-34784138D01*
X56481288Y-34784145D01*
X56337901Y-34879954D01*
X56337897Y-34879957D01*
X54782356Y-36435500D01*
X54415316Y-36802540D01*
X54364063Y-36853793D01*
X54293368Y-36924487D01*
X54197560Y-37067873D01*
X54197553Y-37067886D01*
X54131561Y-37227206D01*
X54131558Y-37227218D01*
X54097915Y-37396351D01*
X54097915Y-39274636D01*
X54078230Y-39341675D01*
X54072869Y-39349363D01*
X53960483Y-39498185D01*
X53960478Y-39498193D01*
X53862485Y-39694989D01*
X53822682Y-39834886D01*
X53785403Y-39893979D01*
X53722093Y-39923537D01*
X53652853Y-39914175D01*
X53599667Y-39868866D01*
X53584148Y-39834886D01*
X53544346Y-39694993D01*
X53542790Y-39691868D01*
X53446351Y-39498193D01*
X53446346Y-39498185D01*
X53365931Y-39391699D01*
X53313857Y-39322741D01*
X53151383Y-39174627D01*
X53027751Y-39098077D01*
X52964461Y-39058889D01*
X52964459Y-39058888D01*
X52893697Y-39031475D01*
X52759452Y-38979468D01*
X52543342Y-38939070D01*
X52543340Y-38939070D01*
X52536621Y-38939070D01*
X52469582Y-38919385D01*
X52448940Y-38902751D01*
X50966147Y-37419957D01*
X50966143Y-37419954D01*
X50822756Y-37324145D01*
X50822743Y-37324138D01*
X50663423Y-37258146D01*
X50663411Y-37258143D01*
X50494277Y-37224500D01*
X50494274Y-37224500D01*
X46805758Y-37224500D01*
X46738719Y-37204815D01*
X46718077Y-37188181D01*
X46591402Y-37061506D01*
X46591395Y-37061501D01*
X46397834Y-36925967D01*
X46397830Y-36925965D01*
X46348174Y-36902810D01*
X46183663Y-36826097D01*
X46183659Y-36826096D01*
X46183655Y-36826094D01*
X45955413Y-36764938D01*
X45955403Y-36764936D01*
X45720001Y-36744341D01*
X45719999Y-36744341D01*
X45484596Y-36764936D01*
X45484586Y-36764938D01*
X45256344Y-36826094D01*
X45256335Y-36826098D01*
X45042171Y-36925964D01*
X45042169Y-36925965D01*
X44848597Y-37061505D01*
X44681505Y-37228597D01*
X44545965Y-37422169D01*
X44545964Y-37422171D01*
X44446098Y-37636335D01*
X44446094Y-37636344D01*
X44384938Y-37864586D01*
X44384936Y-37864596D01*
X44364341Y-38099999D01*
X44364341Y-38100000D01*
X44384936Y-38335403D01*
X44384938Y-38335413D01*
X44446094Y-38563655D01*
X44446096Y-38563659D01*
X44446097Y-38563663D01*
X44545965Y-38777830D01*
X44545967Y-38777834D01*
X44633436Y-38902751D01*
X44681505Y-38971401D01*
X44848599Y-39138495D01*
X44923781Y-39191138D01*
X45042165Y-39274032D01*
X45042167Y-39274033D01*
X45042170Y-39274035D01*
X45256337Y-39373903D01*
X45484592Y-39435063D01*
X45672918Y-39451539D01*
X45719999Y-39455659D01*
X45720000Y-39455659D01*
X45720001Y-39455659D01*
X45759234Y-39452226D01*
X45955408Y-39435063D01*
X46183663Y-39373903D01*
X46397830Y-39274035D01*
X46591401Y-39138495D01*
X46718077Y-39011819D01*
X46779400Y-38978334D01*
X46805758Y-38975500D01*
X49073799Y-38975500D01*
X49140838Y-38995185D01*
X49186593Y-39047989D01*
X49196537Y-39117147D01*
X49167512Y-39180703D01*
X49157351Y-39191123D01*
X49017916Y-39318235D01*
X49012972Y-39322742D01*
X48880483Y-39498185D01*
X48880478Y-39498193D01*
X48782484Y-39694990D01*
X48722318Y-39906456D01*
X48710939Y-40029251D01*
X48685152Y-40094188D01*
X48675149Y-40105490D01*
X48270460Y-40510181D01*
X48209137Y-40543666D01*
X48182779Y-40546500D01*
X47329758Y-40546500D01*
X47262719Y-40526815D01*
X47242081Y-40510185D01*
X47153849Y-40421953D01*
X47153848Y-40421952D01*
X47153847Y-40421951D01*
X46967444Y-40291432D01*
X46967442Y-40291431D01*
X46761207Y-40195261D01*
X46761198Y-40195258D01*
X46541407Y-40136366D01*
X46541403Y-40136365D01*
X46541402Y-40136365D01*
X46541401Y-40136364D01*
X46541396Y-40136364D01*
X46314712Y-40116532D01*
X46314708Y-40116532D01*
X46088023Y-40136364D01*
X46088012Y-40136366D01*
X45868221Y-40195258D01*
X45868212Y-40195261D01*
X45661977Y-40291431D01*
X45661975Y-40291432D01*
X45475568Y-40421954D01*
X45314664Y-40582858D01*
X45184142Y-40769265D01*
X45184141Y-40769267D01*
X45087971Y-40975502D01*
X45087968Y-40975511D01*
X45029076Y-41195302D01*
X45029074Y-41195313D01*
X45009242Y-41421998D01*
X45009242Y-41421999D01*
X45009619Y-41426311D01*
X44995849Y-41494810D01*
X44973771Y-41524793D01*
X44300712Y-42197854D01*
X44092424Y-42406142D01*
X44031450Y-42467116D01*
X43970476Y-42528089D01*
X43907602Y-42622187D01*
X43853989Y-42666992D01*
X43784664Y-42675699D01*
X43721637Y-42645544D01*
X43684918Y-42586101D01*
X43680500Y-42553296D01*
X43680500Y-33644500D01*
X43700185Y-33577461D01*
X43752989Y-33531706D01*
X43804500Y-33520500D01*
X62875500Y-33520500D01*
X62942539Y-33540185D01*
G37*
%TD.AperFunction*%
%TD*%
M02*
