%TF.GenerationSoftware,KiCad,Pcbnew,8.0.6*%
%TF.CreationDate,2025-02-14T15:15:11-07:00*%
%TF.ProjectId,KiCad_Curve_Tracer,4b694361-645f-4437-9572-76655f547261,rev?*%
%TF.SameCoordinates,Original*%
%TF.FileFunction,Legend,Top*%
%TF.FilePolarity,Positive*%
%FSLAX46Y46*%
G04 Gerber Fmt 4.6, Leading zero omitted, Abs format (unit mm)*
G04 Created by KiCad (PCBNEW 8.0.6) date 2025-02-14 15:15:11*
%MOMM*%
%LPD*%
G01*
G04 APERTURE LIST*
%ADD10C,0.150000*%
%ADD11C,0.200000*%
%ADD12C,0.120000*%
%ADD13C,0.152400*%
G04 APERTURE END LIST*
D10*
X57858819Y-58316666D02*
X57858819Y-58888094D01*
X57858819Y-58602380D02*
X56858819Y-58602380D01*
X56858819Y-58602380D02*
X57001676Y-58697618D01*
X57001676Y-58697618D02*
X57096914Y-58792856D01*
X57096914Y-58792856D02*
X57144533Y-58888094D01*
X56858819Y-57697618D02*
X56858819Y-57602380D01*
X56858819Y-57602380D02*
X56906438Y-57507142D01*
X56906438Y-57507142D02*
X56954057Y-57459523D01*
X56954057Y-57459523D02*
X57049295Y-57411904D01*
X57049295Y-57411904D02*
X57239771Y-57364285D01*
X57239771Y-57364285D02*
X57477866Y-57364285D01*
X57477866Y-57364285D02*
X57668342Y-57411904D01*
X57668342Y-57411904D02*
X57763580Y-57459523D01*
X57763580Y-57459523D02*
X57811200Y-57507142D01*
X57811200Y-57507142D02*
X57858819Y-57602380D01*
X57858819Y-57602380D02*
X57858819Y-57697618D01*
X57858819Y-57697618D02*
X57811200Y-57792856D01*
X57811200Y-57792856D02*
X57763580Y-57840475D01*
X57763580Y-57840475D02*
X57668342Y-57888094D01*
X57668342Y-57888094D02*
X57477866Y-57935713D01*
X57477866Y-57935713D02*
X57239771Y-57935713D01*
X57239771Y-57935713D02*
X57049295Y-57888094D01*
X57049295Y-57888094D02*
X56954057Y-57840475D01*
X56954057Y-57840475D02*
X56906438Y-57792856D01*
X56906438Y-57792856D02*
X56858819Y-57697618D01*
X56858819Y-56745237D02*
X56858819Y-56649999D01*
X56858819Y-56649999D02*
X56906438Y-56554761D01*
X56906438Y-56554761D02*
X56954057Y-56507142D01*
X56954057Y-56507142D02*
X57049295Y-56459523D01*
X57049295Y-56459523D02*
X57239771Y-56411904D01*
X57239771Y-56411904D02*
X57477866Y-56411904D01*
X57477866Y-56411904D02*
X57668342Y-56459523D01*
X57668342Y-56459523D02*
X57763580Y-56507142D01*
X57763580Y-56507142D02*
X57811200Y-56554761D01*
X57811200Y-56554761D02*
X57858819Y-56649999D01*
X57858819Y-56649999D02*
X57858819Y-56745237D01*
X57858819Y-56745237D02*
X57811200Y-56840475D01*
X57811200Y-56840475D02*
X57763580Y-56888094D01*
X57763580Y-56888094D02*
X57668342Y-56935713D01*
X57668342Y-56935713D02*
X57477866Y-56983332D01*
X57477866Y-56983332D02*
X57239771Y-56983332D01*
X57239771Y-56983332D02*
X57049295Y-56935713D01*
X57049295Y-56935713D02*
X56954057Y-56888094D01*
X56954057Y-56888094D02*
X56906438Y-56840475D01*
X56906438Y-56840475D02*
X56858819Y-56745237D01*
X57858819Y-55983332D02*
X56858819Y-55983332D01*
X57858819Y-55411904D02*
X57287390Y-55840475D01*
X56858819Y-55411904D02*
X57430247Y-55983332D01*
X44413868Y-58927539D02*
X44413868Y-57927539D01*
X44413868Y-57927539D02*
X44794820Y-57927539D01*
X44794820Y-57927539D02*
X44890058Y-57975158D01*
X44890058Y-57975158D02*
X44937677Y-58022777D01*
X44937677Y-58022777D02*
X44985296Y-58118015D01*
X44985296Y-58118015D02*
X44985296Y-58260872D01*
X44985296Y-58260872D02*
X44937677Y-58356110D01*
X44937677Y-58356110D02*
X44890058Y-58403729D01*
X44890058Y-58403729D02*
X44794820Y-58451348D01*
X44794820Y-58451348D02*
X44413868Y-58451348D01*
X45604344Y-57927539D02*
X45794820Y-57927539D01*
X45794820Y-57927539D02*
X45890058Y-57975158D01*
X45890058Y-57975158D02*
X45985296Y-58070396D01*
X45985296Y-58070396D02*
X46032915Y-58260872D01*
X46032915Y-58260872D02*
X46032915Y-58594205D01*
X46032915Y-58594205D02*
X45985296Y-58784681D01*
X45985296Y-58784681D02*
X45890058Y-58879920D01*
X45890058Y-58879920D02*
X45794820Y-58927539D01*
X45794820Y-58927539D02*
X45604344Y-58927539D01*
X45604344Y-58927539D02*
X45509106Y-58879920D01*
X45509106Y-58879920D02*
X45413868Y-58784681D01*
X45413868Y-58784681D02*
X45366249Y-58594205D01*
X45366249Y-58594205D02*
X45366249Y-58260872D01*
X45366249Y-58260872D02*
X45413868Y-58070396D01*
X45413868Y-58070396D02*
X45509106Y-57975158D01*
X45509106Y-57975158D02*
X45604344Y-57927539D01*
X46366249Y-57927539D02*
X46604344Y-58927539D01*
X46604344Y-58927539D02*
X46794820Y-58213253D01*
X46794820Y-58213253D02*
X46985296Y-58927539D01*
X46985296Y-58927539D02*
X47223392Y-57927539D01*
X45936819Y-47696285D02*
X45936819Y-47601047D01*
X45936819Y-47601047D02*
X45984438Y-47505809D01*
X45984438Y-47505809D02*
X46032057Y-47458190D01*
X46032057Y-47458190D02*
X46127295Y-47410571D01*
X46127295Y-47410571D02*
X46317771Y-47362952D01*
X46317771Y-47362952D02*
X46555866Y-47362952D01*
X46555866Y-47362952D02*
X46746342Y-47410571D01*
X46746342Y-47410571D02*
X46841580Y-47458190D01*
X46841580Y-47458190D02*
X46889200Y-47505809D01*
X46889200Y-47505809D02*
X46936819Y-47601047D01*
X46936819Y-47601047D02*
X46936819Y-47696285D01*
X46936819Y-47696285D02*
X46889200Y-47791523D01*
X46889200Y-47791523D02*
X46841580Y-47839142D01*
X46841580Y-47839142D02*
X46746342Y-47886761D01*
X46746342Y-47886761D02*
X46555866Y-47934380D01*
X46555866Y-47934380D02*
X46317771Y-47934380D01*
X46317771Y-47934380D02*
X46127295Y-47886761D01*
X46127295Y-47886761D02*
X46032057Y-47839142D01*
X46032057Y-47839142D02*
X45984438Y-47791523D01*
X45984438Y-47791523D02*
X45936819Y-47696285D01*
X46841580Y-46934380D02*
X46889200Y-46886761D01*
X46889200Y-46886761D02*
X46936819Y-46934380D01*
X46936819Y-46934380D02*
X46889200Y-46981999D01*
X46889200Y-46981999D02*
X46841580Y-46934380D01*
X46841580Y-46934380D02*
X46936819Y-46934380D01*
X46936819Y-45934381D02*
X46936819Y-46505809D01*
X46936819Y-46220095D02*
X45936819Y-46220095D01*
X45936819Y-46220095D02*
X46079676Y-46315333D01*
X46079676Y-46315333D02*
X46174914Y-46410571D01*
X46174914Y-46410571D02*
X46222533Y-46505809D01*
X46270152Y-45077238D02*
X46936819Y-45077238D01*
X46270152Y-45505809D02*
X46793961Y-45505809D01*
X46793961Y-45505809D02*
X46889200Y-45458190D01*
X46889200Y-45458190D02*
X46936819Y-45362952D01*
X46936819Y-45362952D02*
X46936819Y-45220095D01*
X46936819Y-45220095D02*
X46889200Y-45124857D01*
X46889200Y-45124857D02*
X46841580Y-45077238D01*
D11*
X61584780Y-54836816D02*
X60584780Y-55170149D01*
X60584780Y-55170149D02*
X61584780Y-55503482D01*
X60584780Y-55979673D02*
X60632400Y-55884435D01*
X60632400Y-55884435D02*
X60680019Y-55836816D01*
X60680019Y-55836816D02*
X60775257Y-55789197D01*
X60775257Y-55789197D02*
X61060971Y-55789197D01*
X61060971Y-55789197D02*
X61156209Y-55836816D01*
X61156209Y-55836816D02*
X61203828Y-55884435D01*
X61203828Y-55884435D02*
X61251447Y-55979673D01*
X61251447Y-55979673D02*
X61251447Y-56122530D01*
X61251447Y-56122530D02*
X61203828Y-56217768D01*
X61203828Y-56217768D02*
X61156209Y-56265387D01*
X61156209Y-56265387D02*
X61060971Y-56313006D01*
X61060971Y-56313006D02*
X60775257Y-56313006D01*
X60775257Y-56313006D02*
X60680019Y-56265387D01*
X60680019Y-56265387D02*
X60632400Y-56217768D01*
X60632400Y-56217768D02*
X60584780Y-56122530D01*
X60584780Y-56122530D02*
X60584780Y-55979673D01*
D10*
X61430819Y-50236285D02*
X61430819Y-50141047D01*
X61430819Y-50141047D02*
X61478438Y-50045809D01*
X61478438Y-50045809D02*
X61526057Y-49998190D01*
X61526057Y-49998190D02*
X61621295Y-49950571D01*
X61621295Y-49950571D02*
X61811771Y-49902952D01*
X61811771Y-49902952D02*
X62049866Y-49902952D01*
X62049866Y-49902952D02*
X62240342Y-49950571D01*
X62240342Y-49950571D02*
X62335580Y-49998190D01*
X62335580Y-49998190D02*
X62383200Y-50045809D01*
X62383200Y-50045809D02*
X62430819Y-50141047D01*
X62430819Y-50141047D02*
X62430819Y-50236285D01*
X62430819Y-50236285D02*
X62383200Y-50331523D01*
X62383200Y-50331523D02*
X62335580Y-50379142D01*
X62335580Y-50379142D02*
X62240342Y-50426761D01*
X62240342Y-50426761D02*
X62049866Y-50474380D01*
X62049866Y-50474380D02*
X61811771Y-50474380D01*
X61811771Y-50474380D02*
X61621295Y-50426761D01*
X61621295Y-50426761D02*
X61526057Y-50379142D01*
X61526057Y-50379142D02*
X61478438Y-50331523D01*
X61478438Y-50331523D02*
X61430819Y-50236285D01*
X62335580Y-49474380D02*
X62383200Y-49426761D01*
X62383200Y-49426761D02*
X62430819Y-49474380D01*
X62430819Y-49474380D02*
X62383200Y-49521999D01*
X62383200Y-49521999D02*
X62335580Y-49474380D01*
X62335580Y-49474380D02*
X62430819Y-49474380D01*
X62430819Y-48474381D02*
X62430819Y-49045809D01*
X62430819Y-48760095D02*
X61430819Y-48760095D01*
X61430819Y-48760095D02*
X61573676Y-48855333D01*
X61573676Y-48855333D02*
X61668914Y-48950571D01*
X61668914Y-48950571D02*
X61716533Y-49045809D01*
X61764152Y-47617238D02*
X62430819Y-47617238D01*
X61764152Y-48045809D02*
X62287961Y-48045809D01*
X62287961Y-48045809D02*
X62383200Y-47998190D01*
X62383200Y-47998190D02*
X62430819Y-47902952D01*
X62430819Y-47902952D02*
X62430819Y-47760095D01*
X62430819Y-47760095D02*
X62383200Y-47664857D01*
X62383200Y-47664857D02*
X62335580Y-47617238D01*
X54556819Y-57816666D02*
X54556819Y-58388094D01*
X54556819Y-58102380D02*
X53556819Y-58102380D01*
X53556819Y-58102380D02*
X53699676Y-58197618D01*
X53699676Y-58197618D02*
X53794914Y-58292856D01*
X53794914Y-58292856D02*
X53842533Y-58388094D01*
X53556819Y-57197618D02*
X53556819Y-57102380D01*
X53556819Y-57102380D02*
X53604438Y-57007142D01*
X53604438Y-57007142D02*
X53652057Y-56959523D01*
X53652057Y-56959523D02*
X53747295Y-56911904D01*
X53747295Y-56911904D02*
X53937771Y-56864285D01*
X53937771Y-56864285D02*
X54175866Y-56864285D01*
X54175866Y-56864285D02*
X54366342Y-56911904D01*
X54366342Y-56911904D02*
X54461580Y-56959523D01*
X54461580Y-56959523D02*
X54509200Y-57007142D01*
X54509200Y-57007142D02*
X54556819Y-57102380D01*
X54556819Y-57102380D02*
X54556819Y-57197618D01*
X54556819Y-57197618D02*
X54509200Y-57292856D01*
X54509200Y-57292856D02*
X54461580Y-57340475D01*
X54461580Y-57340475D02*
X54366342Y-57388094D01*
X54366342Y-57388094D02*
X54175866Y-57435713D01*
X54175866Y-57435713D02*
X53937771Y-57435713D01*
X53937771Y-57435713D02*
X53747295Y-57388094D01*
X53747295Y-57388094D02*
X53652057Y-57340475D01*
X53652057Y-57340475D02*
X53604438Y-57292856D01*
X53604438Y-57292856D02*
X53556819Y-57197618D01*
X53556819Y-56245237D02*
X53556819Y-56149999D01*
X53556819Y-56149999D02*
X53604438Y-56054761D01*
X53604438Y-56054761D02*
X53652057Y-56007142D01*
X53652057Y-56007142D02*
X53747295Y-55959523D01*
X53747295Y-55959523D02*
X53937771Y-55911904D01*
X53937771Y-55911904D02*
X54175866Y-55911904D01*
X54175866Y-55911904D02*
X54366342Y-55959523D01*
X54366342Y-55959523D02*
X54461580Y-56007142D01*
X54461580Y-56007142D02*
X54509200Y-56054761D01*
X54509200Y-56054761D02*
X54556819Y-56149999D01*
X54556819Y-56149999D02*
X54556819Y-56245237D01*
X54556819Y-56245237D02*
X54509200Y-56340475D01*
X54509200Y-56340475D02*
X54461580Y-56388094D01*
X54461580Y-56388094D02*
X54366342Y-56435713D01*
X54366342Y-56435713D02*
X54175866Y-56483332D01*
X54175866Y-56483332D02*
X53937771Y-56483332D01*
X53937771Y-56483332D02*
X53747295Y-56435713D01*
X53747295Y-56435713D02*
X53652057Y-56388094D01*
X53652057Y-56388094D02*
X53604438Y-56340475D01*
X53604438Y-56340475D02*
X53556819Y-56245237D01*
D11*
X61537161Y-63631482D02*
X61584780Y-63536244D01*
X61584780Y-63536244D02*
X61584780Y-63393387D01*
X61584780Y-63393387D02*
X61537161Y-63250530D01*
X61537161Y-63250530D02*
X61441923Y-63155292D01*
X61441923Y-63155292D02*
X61346685Y-63107673D01*
X61346685Y-63107673D02*
X61156209Y-63060054D01*
X61156209Y-63060054D02*
X61013352Y-63060054D01*
X61013352Y-63060054D02*
X60822876Y-63107673D01*
X60822876Y-63107673D02*
X60727638Y-63155292D01*
X60727638Y-63155292D02*
X60632400Y-63250530D01*
X60632400Y-63250530D02*
X60584780Y-63393387D01*
X60584780Y-63393387D02*
X60584780Y-63488625D01*
X60584780Y-63488625D02*
X60632400Y-63631482D01*
X60632400Y-63631482D02*
X60680019Y-63679101D01*
X60680019Y-63679101D02*
X61013352Y-63679101D01*
X61013352Y-63679101D02*
X61013352Y-63488625D01*
X56266780Y-35675673D02*
X57266780Y-35675673D01*
X57266780Y-35675673D02*
X57266780Y-35913768D01*
X57266780Y-35913768D02*
X57219161Y-36056625D01*
X57219161Y-36056625D02*
X57123923Y-36151863D01*
X57123923Y-36151863D02*
X57028685Y-36199482D01*
X57028685Y-36199482D02*
X56838209Y-36247101D01*
X56838209Y-36247101D02*
X56695352Y-36247101D01*
X56695352Y-36247101D02*
X56504876Y-36199482D01*
X56504876Y-36199482D02*
X56409638Y-36151863D01*
X56409638Y-36151863D02*
X56314400Y-36056625D01*
X56314400Y-36056625D02*
X56266780Y-35913768D01*
X56266780Y-35913768D02*
X56266780Y-35675673D01*
X57266780Y-36675673D02*
X56457257Y-36675673D01*
X56457257Y-36675673D02*
X56362019Y-36723292D01*
X56362019Y-36723292D02*
X56314400Y-36770911D01*
X56314400Y-36770911D02*
X56266780Y-36866149D01*
X56266780Y-36866149D02*
X56266780Y-37056625D01*
X56266780Y-37056625D02*
X56314400Y-37151863D01*
X56314400Y-37151863D02*
X56362019Y-37199482D01*
X56362019Y-37199482D02*
X56457257Y-37247101D01*
X56457257Y-37247101D02*
X57266780Y-37247101D01*
X57266780Y-37580435D02*
X57266780Y-38151863D01*
X56266780Y-37866149D02*
X57266780Y-37866149D01*
X48442845Y-53610366D02*
X48490464Y-53515128D01*
X48490464Y-53515128D02*
X48490464Y-53372271D01*
X48490464Y-53372271D02*
X48442845Y-53229414D01*
X48442845Y-53229414D02*
X48347607Y-53134176D01*
X48347607Y-53134176D02*
X48252369Y-53086557D01*
X48252369Y-53086557D02*
X48061893Y-53038938D01*
X48061893Y-53038938D02*
X47919036Y-53038938D01*
X47919036Y-53038938D02*
X47728560Y-53086557D01*
X47728560Y-53086557D02*
X47633322Y-53134176D01*
X47633322Y-53134176D02*
X47538084Y-53229414D01*
X47538084Y-53229414D02*
X47490464Y-53372271D01*
X47490464Y-53372271D02*
X47490464Y-53467509D01*
X47490464Y-53467509D02*
X47538084Y-53610366D01*
X47538084Y-53610366D02*
X47585703Y-53657985D01*
X47585703Y-53657985D02*
X47919036Y-53657985D01*
X47919036Y-53657985D02*
X47919036Y-53467509D01*
X47930264Y-55547733D02*
X47930264Y-56309638D01*
X47549311Y-55928685D02*
X48311216Y-55928685D01*
X47989110Y-50418841D02*
X47989110Y-51180746D01*
X48765161Y-35691482D02*
X48812780Y-35596244D01*
X48812780Y-35596244D02*
X48812780Y-35453387D01*
X48812780Y-35453387D02*
X48765161Y-35310530D01*
X48765161Y-35310530D02*
X48669923Y-35215292D01*
X48669923Y-35215292D02*
X48574685Y-35167673D01*
X48574685Y-35167673D02*
X48384209Y-35120054D01*
X48384209Y-35120054D02*
X48241352Y-35120054D01*
X48241352Y-35120054D02*
X48050876Y-35167673D01*
X48050876Y-35167673D02*
X47955638Y-35215292D01*
X47955638Y-35215292D02*
X47860400Y-35310530D01*
X47860400Y-35310530D02*
X47812780Y-35453387D01*
X47812780Y-35453387D02*
X47812780Y-35548625D01*
X47812780Y-35548625D02*
X47860400Y-35691482D01*
X47860400Y-35691482D02*
X47908019Y-35739101D01*
X47908019Y-35739101D02*
X48241352Y-35739101D01*
X48241352Y-35739101D02*
X48241352Y-35548625D01*
D10*
X49823809Y-51254819D02*
X49823809Y-50588152D01*
X49823809Y-50778628D02*
X49871428Y-50683390D01*
X49871428Y-50683390D02*
X49919047Y-50635771D01*
X49919047Y-50635771D02*
X50014285Y-50588152D01*
X50014285Y-50588152D02*
X50109523Y-50588152D01*
X50442857Y-50588152D02*
X50442857Y-51254819D01*
X50442857Y-50683390D02*
X50490476Y-50635771D01*
X50490476Y-50635771D02*
X50585714Y-50588152D01*
X50585714Y-50588152D02*
X50728571Y-50588152D01*
X50728571Y-50588152D02*
X50823809Y-50635771D01*
X50823809Y-50635771D02*
X50871428Y-50731009D01*
X50871428Y-50731009D02*
X50871428Y-51254819D01*
X51776190Y-50588152D02*
X51776190Y-51397676D01*
X51776190Y-51397676D02*
X51728571Y-51492914D01*
X51728571Y-51492914D02*
X51680952Y-51540533D01*
X51680952Y-51540533D02*
X51585714Y-51588152D01*
X51585714Y-51588152D02*
X51442857Y-51588152D01*
X51442857Y-51588152D02*
X51347619Y-51540533D01*
X51776190Y-51207200D02*
X51680952Y-51254819D01*
X51680952Y-51254819D02*
X51490476Y-51254819D01*
X51490476Y-51254819D02*
X51395238Y-51207200D01*
X51395238Y-51207200D02*
X51347619Y-51159580D01*
X51347619Y-51159580D02*
X51300000Y-51064342D01*
X51300000Y-51064342D02*
X51300000Y-50778628D01*
X51300000Y-50778628D02*
X51347619Y-50683390D01*
X51347619Y-50683390D02*
X51395238Y-50635771D01*
X51395238Y-50635771D02*
X51490476Y-50588152D01*
X51490476Y-50588152D02*
X51680952Y-50588152D01*
X51680952Y-50588152D02*
X51776190Y-50635771D01*
D11*
X58425733Y-35167673D02*
X58425733Y-35929578D01*
X58044780Y-35548625D02*
X58806685Y-35548625D01*
X58425733Y-37707673D02*
X58425733Y-38469578D01*
D10*
X50474952Y-43650819D02*
X51046380Y-43650819D01*
X50760666Y-44650819D02*
X50760666Y-43650819D01*
X51855904Y-44650819D02*
X51379714Y-44650819D01*
X51379714Y-44650819D02*
X51379714Y-43650819D01*
X52379714Y-43650819D02*
X52474952Y-43650819D01*
X52474952Y-43650819D02*
X52570190Y-43698438D01*
X52570190Y-43698438D02*
X52617809Y-43746057D01*
X52617809Y-43746057D02*
X52665428Y-43841295D01*
X52665428Y-43841295D02*
X52713047Y-44031771D01*
X52713047Y-44031771D02*
X52713047Y-44269866D01*
X52713047Y-44269866D02*
X52665428Y-44460342D01*
X52665428Y-44460342D02*
X52617809Y-44555580D01*
X52617809Y-44555580D02*
X52570190Y-44603200D01*
X52570190Y-44603200D02*
X52474952Y-44650819D01*
X52474952Y-44650819D02*
X52379714Y-44650819D01*
X52379714Y-44650819D02*
X52284476Y-44603200D01*
X52284476Y-44603200D02*
X52236857Y-44555580D01*
X52236857Y-44555580D02*
X52189238Y-44460342D01*
X52189238Y-44460342D02*
X52141619Y-44269866D01*
X52141619Y-44269866D02*
X52141619Y-44031771D01*
X52141619Y-44031771D02*
X52189238Y-43841295D01*
X52189238Y-43841295D02*
X52236857Y-43746057D01*
X52236857Y-43746057D02*
X52284476Y-43698438D01*
X52284476Y-43698438D02*
X52379714Y-43650819D01*
X53617809Y-43650819D02*
X53141619Y-43650819D01*
X53141619Y-43650819D02*
X53094000Y-44127009D01*
X53094000Y-44127009D02*
X53141619Y-44079390D01*
X53141619Y-44079390D02*
X53236857Y-44031771D01*
X53236857Y-44031771D02*
X53474952Y-44031771D01*
X53474952Y-44031771D02*
X53570190Y-44079390D01*
X53570190Y-44079390D02*
X53617809Y-44127009D01*
X53617809Y-44127009D02*
X53665428Y-44222247D01*
X53665428Y-44222247D02*
X53665428Y-44460342D01*
X53665428Y-44460342D02*
X53617809Y-44555580D01*
X53617809Y-44555580D02*
X53570190Y-44603200D01*
X53570190Y-44603200D02*
X53474952Y-44650819D01*
X53474952Y-44650819D02*
X53236857Y-44650819D01*
X53236857Y-44650819D02*
X53141619Y-44603200D01*
X53141619Y-44603200D02*
X53094000Y-44555580D01*
X54046381Y-43746057D02*
X54094000Y-43698438D01*
X54094000Y-43698438D02*
X54189238Y-43650819D01*
X54189238Y-43650819D02*
X54427333Y-43650819D01*
X54427333Y-43650819D02*
X54522571Y-43698438D01*
X54522571Y-43698438D02*
X54570190Y-43746057D01*
X54570190Y-43746057D02*
X54617809Y-43841295D01*
X54617809Y-43841295D02*
X54617809Y-43936533D01*
X54617809Y-43936533D02*
X54570190Y-44079390D01*
X54570190Y-44079390D02*
X53998762Y-44650819D01*
X53998762Y-44650819D02*
X54617809Y-44650819D01*
X55617809Y-44555580D02*
X55570190Y-44603200D01*
X55570190Y-44603200D02*
X55427333Y-44650819D01*
X55427333Y-44650819D02*
X55332095Y-44650819D01*
X55332095Y-44650819D02*
X55189238Y-44603200D01*
X55189238Y-44603200D02*
X55094000Y-44507961D01*
X55094000Y-44507961D02*
X55046381Y-44412723D01*
X55046381Y-44412723D02*
X54998762Y-44222247D01*
X54998762Y-44222247D02*
X54998762Y-44079390D01*
X54998762Y-44079390D02*
X55046381Y-43888914D01*
X55046381Y-43888914D02*
X55094000Y-43793676D01*
X55094000Y-43793676D02*
X55189238Y-43698438D01*
X55189238Y-43698438D02*
X55332095Y-43650819D01*
X55332095Y-43650819D02*
X55427333Y-43650819D01*
X55427333Y-43650819D02*
X55570190Y-43698438D01*
X55570190Y-43698438D02*
X55617809Y-43746057D01*
X56046381Y-44650819D02*
X56046381Y-43650819D01*
X56046381Y-43650819D02*
X56427333Y-43650819D01*
X56427333Y-43650819D02*
X56522571Y-43698438D01*
X56522571Y-43698438D02*
X56570190Y-43746057D01*
X56570190Y-43746057D02*
X56617809Y-43841295D01*
X56617809Y-43841295D02*
X56617809Y-43984152D01*
X56617809Y-43984152D02*
X56570190Y-44079390D01*
X56570190Y-44079390D02*
X56522571Y-44127009D01*
X56522571Y-44127009D02*
X56427333Y-44174628D01*
X56427333Y-44174628D02*
X56046381Y-44174628D01*
D11*
X48812780Y-37310816D02*
X47812780Y-37644149D01*
X47812780Y-37644149D02*
X48812780Y-37977482D01*
X47812780Y-38310816D02*
X48479447Y-38310816D01*
X48812780Y-38310816D02*
X48765161Y-38263197D01*
X48765161Y-38263197D02*
X48717542Y-38310816D01*
X48717542Y-38310816D02*
X48765161Y-38358435D01*
X48765161Y-38358435D02*
X48812780Y-38310816D01*
X48812780Y-38310816D02*
X48717542Y-38310816D01*
D10*
X57030343Y-54810819D02*
X56697010Y-54334628D01*
X56458915Y-54810819D02*
X56458915Y-53810819D01*
X56458915Y-53810819D02*
X56839867Y-53810819D01*
X56839867Y-53810819D02*
X56935105Y-53858438D01*
X56935105Y-53858438D02*
X56982724Y-53906057D01*
X56982724Y-53906057D02*
X57030343Y-54001295D01*
X57030343Y-54001295D02*
X57030343Y-54144152D01*
X57030343Y-54144152D02*
X56982724Y-54239390D01*
X56982724Y-54239390D02*
X56935105Y-54287009D01*
X56935105Y-54287009D02*
X56839867Y-54334628D01*
X56839867Y-54334628D02*
X56458915Y-54334628D01*
X57982724Y-54810819D02*
X57411296Y-54810819D01*
X57697010Y-54810819D02*
X57697010Y-53810819D01*
X57697010Y-53810819D02*
X57601772Y-53953676D01*
X57601772Y-53953676D02*
X57506534Y-54048914D01*
X57506534Y-54048914D02*
X57411296Y-54096533D01*
X45063580Y-46140666D02*
X45111200Y-46188285D01*
X45111200Y-46188285D02*
X45158819Y-46331142D01*
X45158819Y-46331142D02*
X45158819Y-46426380D01*
X45158819Y-46426380D02*
X45111200Y-46569237D01*
X45111200Y-46569237D02*
X45015961Y-46664475D01*
X45015961Y-46664475D02*
X44920723Y-46712094D01*
X44920723Y-46712094D02*
X44730247Y-46759713D01*
X44730247Y-46759713D02*
X44587390Y-46759713D01*
X44587390Y-46759713D02*
X44396914Y-46712094D01*
X44396914Y-46712094D02*
X44301676Y-46664475D01*
X44301676Y-46664475D02*
X44206438Y-46569237D01*
X44206438Y-46569237D02*
X44158819Y-46426380D01*
X44158819Y-46426380D02*
X44158819Y-46331142D01*
X44158819Y-46331142D02*
X44206438Y-46188285D01*
X44206438Y-46188285D02*
X44254057Y-46140666D01*
X44254057Y-45759713D02*
X44206438Y-45712094D01*
X44206438Y-45712094D02*
X44158819Y-45616856D01*
X44158819Y-45616856D02*
X44158819Y-45378761D01*
X44158819Y-45378761D02*
X44206438Y-45283523D01*
X44206438Y-45283523D02*
X44254057Y-45235904D01*
X44254057Y-45235904D02*
X44349295Y-45188285D01*
X44349295Y-45188285D02*
X44444533Y-45188285D01*
X44444533Y-45188285D02*
X44587390Y-45235904D01*
X44587390Y-45235904D02*
X45158819Y-45807332D01*
X45158819Y-45807332D02*
X45158819Y-45188285D01*
X52832095Y-41872819D02*
X52832095Y-42682342D01*
X52832095Y-42682342D02*
X52879714Y-42777580D01*
X52879714Y-42777580D02*
X52927333Y-42825200D01*
X52927333Y-42825200D02*
X53022571Y-42872819D01*
X53022571Y-42872819D02*
X53213047Y-42872819D01*
X53213047Y-42872819D02*
X53308285Y-42825200D01*
X53308285Y-42825200D02*
X53355904Y-42777580D01*
X53355904Y-42777580D02*
X53403523Y-42682342D01*
X53403523Y-42682342D02*
X53403523Y-41872819D01*
X54403523Y-42872819D02*
X53832095Y-42872819D01*
X54117809Y-42872819D02*
X54117809Y-41872819D01*
X54117809Y-41872819D02*
X54022571Y-42015676D01*
X54022571Y-42015676D02*
X53927333Y-42110914D01*
X53927333Y-42110914D02*
X53832095Y-42158533D01*
X58714552Y-40125369D02*
X58952647Y-40125369D01*
X58857409Y-40363464D02*
X58952647Y-40125369D01*
X58952647Y-40125369D02*
X58857409Y-39887274D01*
X59143123Y-40268226D02*
X58952647Y-40125369D01*
X58952647Y-40125369D02*
X59143123Y-39982512D01*
X59804913Y-40125370D02*
X59566818Y-40125370D01*
X59662056Y-39887275D02*
X59566818Y-40125370D01*
X59566818Y-40125370D02*
X59662056Y-40363465D01*
X59376342Y-39982513D02*
X59566818Y-40125370D01*
X59566818Y-40125370D02*
X59376342Y-40268227D01*
X53929123Y-54810819D02*
X53595790Y-54334628D01*
X53357695Y-54810819D02*
X53357695Y-53810819D01*
X53357695Y-53810819D02*
X53738647Y-53810819D01*
X53738647Y-53810819D02*
X53833885Y-53858438D01*
X53833885Y-53858438D02*
X53881504Y-53906057D01*
X53881504Y-53906057D02*
X53929123Y-54001295D01*
X53929123Y-54001295D02*
X53929123Y-54144152D01*
X53929123Y-54144152D02*
X53881504Y-54239390D01*
X53881504Y-54239390D02*
X53833885Y-54287009D01*
X53833885Y-54287009D02*
X53738647Y-54334628D01*
X53738647Y-54334628D02*
X53357695Y-54334628D01*
X54310076Y-53906057D02*
X54357695Y-53858438D01*
X54357695Y-53858438D02*
X54452933Y-53810819D01*
X54452933Y-53810819D02*
X54691028Y-53810819D01*
X54691028Y-53810819D02*
X54786266Y-53858438D01*
X54786266Y-53858438D02*
X54833885Y-53906057D01*
X54833885Y-53906057D02*
X54881504Y-54001295D01*
X54881504Y-54001295D02*
X54881504Y-54096533D01*
X54881504Y-54096533D02*
X54833885Y-54239390D01*
X54833885Y-54239390D02*
X54262457Y-54810819D01*
X54262457Y-54810819D02*
X54881504Y-54810819D01*
X60811580Y-48680666D02*
X60859200Y-48728285D01*
X60859200Y-48728285D02*
X60906819Y-48871142D01*
X60906819Y-48871142D02*
X60906819Y-48966380D01*
X60906819Y-48966380D02*
X60859200Y-49109237D01*
X60859200Y-49109237D02*
X60763961Y-49204475D01*
X60763961Y-49204475D02*
X60668723Y-49252094D01*
X60668723Y-49252094D02*
X60478247Y-49299713D01*
X60478247Y-49299713D02*
X60335390Y-49299713D01*
X60335390Y-49299713D02*
X60144914Y-49252094D01*
X60144914Y-49252094D02*
X60049676Y-49204475D01*
X60049676Y-49204475D02*
X59954438Y-49109237D01*
X59954438Y-49109237D02*
X59906819Y-48966380D01*
X59906819Y-48966380D02*
X59906819Y-48871142D01*
X59906819Y-48871142D02*
X59954438Y-48728285D01*
X59954438Y-48728285D02*
X60002057Y-48680666D01*
X60906819Y-47728285D02*
X60906819Y-48299713D01*
X60906819Y-48013999D02*
X59906819Y-48013999D01*
X59906819Y-48013999D02*
X60049676Y-48109237D01*
X60049676Y-48109237D02*
X60144914Y-48204475D01*
X60144914Y-48204475D02*
X60192533Y-48299713D01*
D12*
%TO.C,J1*%
X44390000Y-34230000D02*
X45720000Y-34230000D01*
X44390000Y-35560000D02*
X44390000Y-34230000D01*
X44390000Y-36830000D02*
X44390000Y-39430000D01*
X44390000Y-36830000D02*
X47050000Y-36830000D01*
X44390000Y-39430000D02*
X47050000Y-39430000D01*
X47050000Y-36830000D02*
X47050000Y-39430000D01*
%TO.C,J5*%
X59630000Y-57090000D02*
X60960000Y-57090000D01*
X59630000Y-58420000D02*
X59630000Y-57090000D01*
X59630000Y-59690000D02*
X59630000Y-62290000D01*
X59630000Y-59690000D02*
X62290000Y-59690000D01*
X59630000Y-62290000D02*
X62290000Y-62290000D01*
X62290000Y-59690000D02*
X62290000Y-62290000D01*
%TO.C,R1*%
X55970842Y-53303113D02*
X55970842Y-59843113D01*
X55970842Y-59843113D02*
X58710842Y-59843113D01*
X57340842Y-52533113D02*
X57340842Y-53303113D01*
X57340842Y-60613113D02*
X57340842Y-59843113D01*
X58710842Y-53303113D02*
X55970842Y-53303113D01*
X58710842Y-59843113D02*
X58710842Y-53303113D01*
%TO.C,J2*%
X59630000Y-34230000D02*
X60960000Y-34230000D01*
X59630000Y-35560000D02*
X59630000Y-34230000D01*
X59630000Y-36830000D02*
X59630000Y-39430000D01*
X59630000Y-36830000D02*
X62290000Y-36830000D01*
X59630000Y-39430000D02*
X62290000Y-39430000D01*
X62290000Y-36830000D02*
X62290000Y-39430000D01*
%TO.C,C2*%
X45394710Y-42043000D02*
X45394710Y-43301000D01*
X47234710Y-42043000D02*
X47234710Y-43301000D01*
D13*
%TO.C,U1*%
X48623415Y-40633370D02*
X48623415Y-47237370D01*
X48623415Y-47237370D02*
X49010601Y-47237370D01*
X49010601Y-40633370D02*
X48623415Y-40633370D01*
X50776229Y-47237370D02*
X51550601Y-47237370D01*
X51550601Y-40633370D02*
X50776229Y-40633370D01*
X53316229Y-47237370D02*
X54090601Y-47237370D01*
X54090601Y-40633370D02*
X53316229Y-40633370D01*
X55856229Y-47237370D02*
X56630601Y-47237370D01*
X56494875Y-40633370D02*
X55856229Y-40633370D01*
X58396229Y-47237370D02*
X58783415Y-47237370D01*
X58783415Y-47237370D02*
X58783415Y-40633370D01*
X58783415Y-44240170D02*
G75*
G02*
X58783415Y-43630570I0J304800D01*
G01*
D12*
%TO.C,R2*%
X52834239Y-53303113D02*
X52834239Y-59843113D01*
X52834239Y-59843113D02*
X55574239Y-59843113D01*
X54204239Y-52533113D02*
X54204239Y-53303113D01*
X54204239Y-60613113D02*
X54204239Y-59843113D01*
X55574239Y-53303113D02*
X52834239Y-53303113D01*
X55574239Y-59843113D02*
X55574239Y-53303113D01*
%TO.C,C1*%
X60294000Y-45841000D02*
X60294000Y-44583000D01*
X62134000Y-45841000D02*
X62134000Y-44583000D01*
%TO.C,J4*%
X44390000Y-49470000D02*
X45720000Y-49470000D01*
X44390000Y-50800000D02*
X44390000Y-49470000D01*
X44390000Y-52070000D02*
X44390000Y-57210000D01*
X44390000Y-52070000D02*
X47050000Y-52070000D01*
X44390000Y-57210000D02*
X47050000Y-57210000D01*
X47050000Y-52070000D02*
X47050000Y-57210000D01*
%TO.C,J3*%
X49351593Y-52010000D02*
X50681593Y-52010000D01*
X49351593Y-53340000D02*
X49351593Y-52010000D01*
X49351593Y-54610000D02*
X49351593Y-57210000D01*
X49351593Y-54610000D02*
X52011593Y-54610000D01*
X49351593Y-57210000D02*
X52011593Y-57210000D01*
X52011593Y-54610000D02*
X52011593Y-57210000D01*
%TD*%
M02*
